<?xml version="1.0" encoding="UTF-8" standalone="no"?>
<svg
   xmlns:dc="http://purl.org/dc/elements/1.1/"
   xmlns:cc="http://creativecommons.org/ns#"
   xmlns:rdf="http://www.w3.org/1999/02/22-rdf-syntax-ns#"
   xmlns:svg="http://www.w3.org/2000/svg"
   xmlns="http://www.w3.org/2000/svg"
   xmlns:sodipodi="http://sodipodi.sourceforge.net/DTD/sodipodi-0.dtd"
   xmlns:inkscape="http://www.inkscape.org/namespaces/inkscape"
   version="1.1"
   id="svg2"
   xml:space="preserve"
   width="1000"
   height="666.66669"
   viewBox="0 0 1000 666.66669"
   sodipodi:docname="4802329.eps"><metadata
     id="metadata8"><rdf:RDF><cc:Work
         rdf:about=""><dc:format>image/svg+xml</dc:format><dc:type
           rdf:resource="http://purl.org/dc/dcmitype/StillImage" /></cc:Work></rdf:RDF></metadata><defs
     id="defs6" /><sodipodi:namedview
     pagecolor="#ffffff"
     bordercolor="#666666"
     borderopacity="1"
     objecttolerance="10"
     gridtolerance="10"
     guidetolerance="10"
     inkscape:pageopacity="0"
     inkscape:pageshadow="2"
     inkscape:window-width="640"
     inkscape:window-height="480"
     id="namedview4" /><g
     id="g10"
     inkscape:groupmode="layer"
     inkscape:label="ink_ext_XXXXXX"
     transform="matrix(1.3333333,0,0,-1.3333333,0,666.66667)"><g
       id="g12"
       transform="scale(0.1)"><path
         d="M 7500,0 H 0 V 4997.26 H 7500 V 0"
         style="fill:#fef0d4;fill-opacity:1;fill-rule:nonzero;stroke:none"
         id="path14" /><path
         d="m 4166.67,3334.27 v 832.84 H 5000 v -832.84 h -833.33"
         style="fill:#fef0d4;fill-opacity:1;fill-rule:nonzero;stroke:none"
         id="path16" /><path
         d="M 3333.33,4167.11 H 6066.68 L 5000,4999.95 h -833.22 l -833.45,-832.84"
         style="fill:#fef0d4;fill-opacity:1;fill-rule:nonzero;stroke:none"
         id="path18" /><path
         d="M 833.332,4167.11 H 0 v 832.84 h 833.332 v -832.84"
         style="fill:#fef0d4;fill-opacity:1;fill-rule:nonzero;stroke:none"
         id="path20" /><path
         d="M 416.852,4583.35 H 0 v 416.6 h 416.852 v -416.6"
         style="fill:#451b52;fill-opacity:1;fill-rule:nonzero;stroke:none"
         id="path22" /><path
         d="M 1666.67,4167.11 H 833.332 v 832.84 h 833.338 v -832.84"
         style="fill:#451b52;fill-opacity:1;fill-rule:nonzero;stroke:none"
         id="path24" /><path
         d="m 2500,4167.11 h -833.33 v 832.84 H 2500 v -832.84"
         style="fill:#ed1c24;fill-opacity:1;fill-rule:nonzero;stroke:none"
         id="path26" /><path
         d="M 3333.33,4167.11 H 2500 v 832.84 h 833.33 v -832.84"
         style="fill:#451b52;fill-opacity:1;fill-rule:nonzero;stroke:none"
         id="path28" /><path
         d="m 5000,4167.11 h -833.33 v 832.84 H 5000 v -832.84"
         style="fill:#fef0d4;fill-opacity:1;fill-rule:nonzero;stroke:none"
         id="path30" /><path
         d="m 5833.34,4167.11 h -0.5 c -459.96,0 -832.84,372.88 -832.84,832.84 v 0 h 833.34 v -832.84"
         style="fill:#ed1c24;fill-opacity:1;fill-rule:nonzero;stroke:none"
         id="path32" /><path
         d="m 3333.45,4167.11 h 0.5 c 459.96,0 832.83,372.88 832.83,832.84 v 0 h -833.33 v -832.84"
         style="fill:#f7942d;fill-opacity:1;fill-rule:nonzero;stroke:none"
         id="path34" /><path
         d="m 3333.45,4549.88 h 0.27 c 248.57,0 450.08,201.5 450.08,450.07 v 0 h -450.35 v -450.07"
         style="fill:#ed1c24;fill-opacity:1;fill-rule:nonzero;stroke:none"
         id="path36" /><path
         d="m 6666.67,4167.11 h -833.33 v 832.84 h 833.33 v -832.84"
         style="fill:#ed1c24;fill-opacity:1;fill-rule:nonzero;stroke:none"
         id="path38" /><path
         d="m 7500,4167.11 h -833.33 v 832.84 H 7500 v -832.84"
         style="fill:#ed1c24;fill-opacity:1;fill-rule:nonzero;stroke:none"
         id="path40" /><path
         d="M 833.332,3334.27 H 0 v 832.84 h 833.332 v -832.84"
         style="fill:#451b52;fill-opacity:1;fill-rule:nonzero;stroke:none"
         id="path42" /><path
         d="M 1666.67,3334.27 H 833.332 v 832.84 h 833.338 v -832.84"
         style="fill:#f7942d;fill-opacity:1;fill-rule:nonzero;stroke:none"
         id="path44" /><path
         d="m 1425.09,3575.7 h -350.18 v 349.99 h 350.18 V 3575.7"
         style="fill:#451b52;fill-opacity:1;fill-rule:nonzero;stroke:none"
         id="path46" /><path
         d="m 2500,3334.27 h -833.33 v 832.84 H 2500 v -832.84"
         style="fill:#fef0d4;fill-opacity:1;fill-rule:nonzero;stroke:none"
         id="path48" /><path
         d="M 3333.33,3334.27 H 2500 v 832.84 h 833.33 v -832.84"
         style="fill:#ed1c24;fill-opacity:1;fill-rule:nonzero;stroke:none"
         id="path50" /><path
         d="m 4166.67,3334.27 h -833.34 v 832.84 h 833.34 v -832.84"
         style="fill:#fef0d4;fill-opacity:1;fill-rule:nonzero;stroke:none"
         id="path52" /><path
         d="m 3750.25,3334.4 h -0.5 c -229.91,0 -416.3,186.38 -416.3,416.3 v 0 c 0,229.91 186.39,416.3 416.3,416.3 h 0.5 c 229.91,0 416.3,-186.39 416.3,-416.3 v 0 c 0,-229.92 -186.39,-416.3 -416.3,-416.3"
         style="fill:#451b52;fill-opacity:1;fill-rule:nonzero;stroke:none"
         id="path54" /><path
         d="m 3750.09,3604.26 h -0.18 c -80.87,0 -146.43,65.57 -146.43,146.44 v 0 c 0,80.86 65.56,146.43 146.43,146.43 h 0.18 c 80.86,0 146.43,-65.57 146.43,-146.43 v 0 c 0,-80.87 -65.57,-146.44 -146.43,-146.44"
         style="fill:#fef0d4;fill-opacity:1;fill-rule:nonzero;stroke:none"
         id="path56" /><path
         d="M 5833.34,3334.27 H 5000 v 832.84 h 833.34 v -832.84"
         style="fill:#451b52;fill-opacity:1;fill-rule:nonzero;stroke:none"
         id="path58" /><path
         d="m 6666.67,3334.27 h -833.33 v 832.84 h 833.33 v -832.84"
         style="fill:#f7942d;fill-opacity:1;fill-rule:nonzero;stroke:none"
         id="path60" /><path
         d="m 7500,3334.27 h -833.33 v 832.84 H 7500 v -832.84"
         style="fill:#ed1c24;fill-opacity:1;fill-rule:nonzero;stroke:none"
         id="path62" /><path
         d="M 833.332,2501.44 H 0 v 832.83 h 833.332 v -832.83"
         style="fill:#fef0d4;fill-opacity:1;fill-rule:nonzero;stroke:none"
         id="path64" /><path
         d="M 1666.67,2501.44 H 833.332 v 832.83 h 833.338 v -832.83"
         style="fill:#fef0d4;fill-opacity:1;fill-rule:nonzero;stroke:none"
         id="path66" /><path
         d="m 2500,2501.44 h -833.33 v 832.83 H 2500 v -832.83"
         style="fill:#ed1c24;fill-opacity:1;fill-rule:nonzero;stroke:none"
         id="path68" /><path
         d="M 3333.33,2501.44 H 2500 v 832.83 h 833.33 v -832.83"
         style="fill:#451b52;fill-opacity:1;fill-rule:nonzero;stroke:none"
         id="path70" /><path
         d="m 2500,3334.27 v 0 c -460.24,0 -833.33,-372.87 -833.33,-832.83 v 0 H 2500 3333.33 v 0 c 0,459.96 -373.09,832.83 -833.33,832.83 v 0"
         style="fill:#fef0d4;fill-opacity:1;fill-rule:nonzero;stroke:none"
         id="path72" /><path
         d="m 4166.67,2501.44 h -833.34 v 832.83 h 833.34 v -832.83"
         style="fill:#451b52;fill-opacity:1;fill-rule:nonzero;stroke:none"
         id="path74" /><path
         d="m 5000,2501.44 h -833.33 v 832.83 H 5000 v -832.83"
         style="fill:#ed1c24;fill-opacity:1;fill-rule:nonzero;stroke:none"
         id="path76" /><path
         d="M 5833.34,2501.44 H 5000 v 832.83 h 833.34 v -832.83"
         style="fill:#ed1c24;fill-opacity:1;fill-rule:nonzero;stroke:none"
         id="path78" /><path
         d="m 6666.67,2501.44 h -833.33 v 832.83 h 833.33 v -832.83"
         style="fill:#ed1c24;fill-opacity:1;fill-rule:nonzero;stroke:none"
         id="path80" /><path
         d="m 7500,2501.44 h -833.33 v 832.83 H 7500 v -832.83"
         style="fill:#ed1c24;fill-opacity:1;fill-rule:nonzero;stroke:none"
         id="path82" /><path
         d="M 7500,3334.27 V 2501.44 H 6666.67 Z"
         style="fill:#f7942d;fill-opacity:1;fill-rule:nonzero;stroke:none"
         id="path84" /><path
         d="M 833.332,1668.6 H 0 v 832.84 H 833.332 V 1668.6"
         style="fill:#ed1c24;fill-opacity:1;fill-rule:nonzero;stroke:none"
         id="path86" /><path
         d="M 1666.67,1668.6 H 833.332 v 832.84 H 1666.67 V 1668.6"
         style="fill:#ed1c24;fill-opacity:1;fill-rule:nonzero;stroke:none"
         id="path88" /><path
         d="m 2500,1668.6 h -833.33 v 832.84 H 2500 V 1668.6"
         style="fill:#ed1c24;fill-opacity:1;fill-rule:nonzero;stroke:none"
         id="path90" /><path
         d="M 3333.33,1668.6 H 2500 v 832.84 h 833.33 V 1668.6"
         style="fill:#451b52;fill-opacity:1;fill-rule:nonzero;stroke:none"
         id="path92" /><path
         d="m 4166.67,1668.6 h -833.34 v 832.84 h 833.34 V 1668.6"
         style="fill:#ed1c24;fill-opacity:1;fill-rule:nonzero;stroke:none"
         id="path94" /><path
         d="m 5000,1668.6 h -833.33 v 832.84 H 5000 V 1668.6"
         style="fill:#ed1c24;fill-opacity:1;fill-rule:nonzero;stroke:none"
         id="path96" /><path
         d="M 2500,835.77 H 1666.67 V 1668.6 H 2500 V 835.77"
         style="fill:#ed1c24;fill-opacity:1;fill-rule:nonzero;stroke:none"
         id="path98" /><path
         d="M 3333.33,835.77 H 2500 v 832.83 h 833.33 V 835.77"
         style="fill:#ed1c24;fill-opacity:1;fill-rule:nonzero;stroke:none"
         id="path100" /><path
         d="M 1666.67,835.77 H 833.332 V 1668.6 H 1666.67 V 835.77"
         style="fill:#451b52;fill-opacity:1;fill-rule:nonzero;stroke:none"
         id="path102" /><path
         d="M 833.332,2.92969 H 0 V 835.77 H 833.332 V 2.92969"
         style="fill:#f7942d;fill-opacity:1;fill-rule:nonzero;stroke:none"
         id="path104" /><path
         d="M 833.332,835.77 H 0 V 1668.6 H 833.332 V 835.77"
         style="fill:#fef0d4;fill-opacity:1;fill-rule:nonzero;stroke:none"
         id="path106" /><path
         d="M 1666.67,2.92969 H 833.332 V 835.77 H 1666.67 V 2.92969"
         style="fill:#fef0d4;fill-opacity:1;fill-rule:nonzero;stroke:none"
         id="path108" /><path
         d="m 833.332,1668.6 v 0 C 373.098,1668.6 0,1295.73 0,835.77 v 0 0 C 0,375.801 373.098,2.92969 833.332,2.92969 v 0 h 0.004 c 460.234,0 833.334,372.87131 833.334,832.84031 v 0 0 c 0,459.96 -373.1,832.83 -833.334,832.83 h -0.004"
         style="fill:#ed1c24;fill-opacity:1;fill-rule:nonzero;stroke:none"
         id="path110" /><path
         d="m 833.332,2.92969 v 0 h 0.004 c 460.234,0 833.334,372.87131 833.334,832.84031 v 0 0 c 0,459.96 -373.1,832.83 -833.334,832.83 h -0.004 v 0 V 2.92969"
         style="fill:#451b52;fill-opacity:1;fill-rule:nonzero;stroke:none"
         id="path112" /><path
         d="M 3333.31,835.801 V 2.92188 H 2500.03 V 835.801 h 833.28"
         style="fill:#ed1c24;fill-opacity:1;fill-rule:nonzero;stroke:none"
         id="path114" /><path
         d="M 4166.69,835.801 V 2.92188 H 3333.41 V 835.801 h 833.28"
         style="fill:#fef0d4;fill-opacity:1;fill-rule:nonzero;stroke:none"
         id="path116" /><path
         d="M 4166.69,1668.6 V 835.719 H 3333.41 V 1668.6 h 833.28"
         style="fill:#fef0d4;fill-opacity:1;fill-rule:nonzero;stroke:none"
         id="path118" /><path
         d="M 5000,1668.6 V 835.719 H 4166.72 V 1668.6 H 5000"
         style="fill:#fef0d4;fill-opacity:1;fill-rule:nonzero;stroke:none"
         id="path120" /><path
         d="M 5000,2.92969 H 4166.67 V 835.77 H 5000 V 2.92969"
         style="fill:#ed1c24;fill-opacity:1;fill-rule:nonzero;stroke:none"
         id="path122" /><path
         d="m 5000,1668.6 v 0 C 4079.53,1668.6 3333.33,922.859 3333.33,2.92969 v 0 H 5000 V 1668.6"
         style="fill:#451b52;fill-opacity:1;fill-rule:nonzero;stroke:none"
         id="path124" /><path
         d="M 4999.97,1668.57 3333.31,2.92188 C 3333.31,922.84 4079.49,1668.57 4999.97,1668.57"
         style="fill:#f7942d;fill-opacity:1;fill-rule:nonzero;stroke:none"
         id="path126" /><path
         d="M 6666.67,2501.44 4166.67,2.92969 h 2500 z"
         style="fill:#f7942d;fill-opacity:1;fill-rule:nonzero;stroke:none"
         id="path128" /><path
         d="m 6666.67,1668.6 h -833.33 v 832.84 h 833.33 V 1668.6"
         style="fill:#ed1c24;fill-opacity:1;fill-rule:nonzero;stroke:none"
         id="path130" /><path
         d="m 7500,1668.6 h -833.33 v 832.84 H 7500 V 1668.6"
         style="fill:#fef0d4;fill-opacity:1;fill-rule:nonzero;stroke:none"
         id="path132" /><path
         d="m 6666.67,835.77 h -833.33 v 832.83 h 833.33 V 835.77"
         style="fill:#f7942d;fill-opacity:1;fill-rule:nonzero;stroke:none"
         id="path134" /><path
         d="M 7500,835.77 H 6666.67 V 1668.6 H 7500 V 835.77"
         style="fill:#451b52;fill-opacity:1;fill-rule:nonzero;stroke:none"
         id="path136" /><path
         d="M 7500,2.92969 H 6666.67 V 835.77 H 7500 V 2.92969"
         style="fill:#fef0d4;fill-opacity:1;fill-rule:nonzero;stroke:none"
         id="path138" /><path
         d="m 7500,2.92969 h -833.33 v 0 C 6666.67,462.891 7039.54,835.77 7499.5,835.77 h 0.5 V 2.92969"
         style="fill:#ed1c24;fill-opacity:1;fill-rule:nonzero;stroke:none"
         id="path140" /><path
         d="m 7500,2.92969 h -471.67 v 0 C 7028.33,263.281 7239.37,474.32 7499.72,474.32 H 7500 V 2.92969"
         style="fill:#451b52;fill-opacity:1;fill-rule:nonzero;stroke:none"
         id="path142" /><path
         d="M 5000,3334.27 3333.33,1668.6 v 832.84 H 5000 c 0,0 0,807.96 0,832.83"
         style="fill:#f7942d;fill-opacity:1;fill-rule:nonzero;stroke:none"
         id="path144" /><path
         d="M 5833.34,1668.6 H 5000 v 832.84 h 833.34 V 1668.6"
         style="fill:#fef0d4;fill-opacity:1;fill-rule:nonzero;stroke:none"
         id="path146" /><path
         d="m 4999.97,1668.57 833.36,832.87 V 1668.6 Z"
         style="fill:#451b52;fill-opacity:1;fill-rule:nonzero;stroke:none"
         id="path148" /><path
         d="m 5833.34,2501.44 833.36,832.87 v -832.84 z"
         style="fill:#fef0d4;fill-opacity:1;fill-rule:nonzero;stroke:none"
         id="path150" /><path
         d="m 1666.66,3334.24 833.35,832.86 v -832.83 z"
         style="fill:#451b52;fill-opacity:1;fill-rule:nonzero;stroke:none"
         id="path152" /><path
         d="m 3333.33,3334.27 v 832.84 l -833.32,-832.84 z"
         style="fill:#f7942d;fill-opacity:1;fill-rule:nonzero;stroke:none"
         id="path154" /><path
         d="M 1666.66,5000 0,3334.24 v 832.88 L 833.375,5000 h 833.285"
         style="fill:#f7942d;fill-opacity:1;fill-rule:nonzero;stroke:none"
         id="path156" /><path
         d="m 4167.83,3750.89 416.85,-416.62 v 0.02 c 0,230.09 -186.64,416.61 -416.85,416.6 v 0"
         style="fill:#ed1c24;fill-opacity:1;fill-rule:nonzero;stroke:none"
         id="path158" /><path
         d="m 4584.68,3334.27 -416.85,416.62 v -0.02 c 0,-230.09 186.63,-416.61 416.85,-416.6 v 0"
         style="fill:#ed1c24;fill-opacity:1;fill-rule:nonzero;stroke:none"
         id="path160" /><path
         d="m 5000,3750.89 -416.86,-416.62 v 0.02 c 0,230.09 186.64,416.61 416.86,416.6 v 0"
         style="fill:#f7942d;fill-opacity:1;fill-rule:nonzero;stroke:none"
         id="path162" /><path
         d="M 4583.14,3334.27 5000,3750.89 v -0.02 c 0,-230.09 -186.63,-416.61 -416.86,-416.6 v 0"
         style="fill:#f7942d;fill-opacity:1;fill-rule:nonzero;stroke:none"
         id="path164" /><path
         d="m 4167.83,4167.11 416.85,-416.61 v 0.02 c 0,230.09 -186.64,416.61 -416.85,416.59 v 0"
         style="fill:#ed1c24;fill-opacity:1;fill-rule:nonzero;stroke:none"
         id="path166" /><path
         d="m 4584.68,3750.5 -416.85,416.61 v -0.02 c 0,-230.08 186.63,-416.6 416.85,-416.59 v 0"
         style="fill:#ed1c24;fill-opacity:1;fill-rule:nonzero;stroke:none"
         id="path168" /><path
         d="M 5000,4167.11 4583.14,3750.5 v 0.02 c 0,230.09 186.64,416.61 416.86,416.59 v 0"
         style="fill:#f7942d;fill-opacity:1;fill-rule:nonzero;stroke:none"
         id="path170" /><path
         d="M 4583.14,3750.5 5000,4167.11 v -0.02 c 0,-230.08 -186.63,-416.6 -416.86,-416.59 v 0"
         style="fill:#f7942d;fill-opacity:1;fill-rule:nonzero;stroke:none"
         id="path172" /><path
         d="M 0.0117188,3334.27 833.348,2917.83 v 416.44 z"
         style="fill:#ed1c24;fill-opacity:1;fill-rule:nonzero;stroke:none"
         id="path174" /><path
         d="M 1666.67,3334.27 H 833.348 v -416.44 z"
         style="fill:#451b52;fill-opacity:1;fill-rule:nonzero;stroke:none"
         id="path176" /><path
         d="M 1666.66,1668.6 833.32,2085.05 V 1668.6 Z"
         style="fill:#f7942d;fill-opacity:1;fill-rule:nonzero;stroke:none"
         id="path178" /><path
         d="m 0,1668.6 h 833.32 v 416.45 z"
         style="fill:#f7942d;fill-opacity:1;fill-rule:nonzero;stroke:none"
         id="path180" /><path
         d="M 5833.34,835.77 H 5000 v 832.83 h 833.34 V 835.77"
         style="fill:#ed1c24;fill-opacity:1;fill-rule:nonzero;stroke:none"
         id="path182" /><path
         d="m 5000,835.77 833.34,832.83 V 835.77 Z"
         style="fill:#fef0d4;fill-opacity:1;fill-rule:nonzero;stroke:none"
         id="path184" /><path
         d="m 5417.04,3334.4 h -0.5 c -229.91,0 -416.3,186.38 -416.3,416.3 v 0 c 0,229.91 186.39,416.3 416.3,416.3 h 0.5 c 229.91,0 416.3,-186.39 416.3,-416.3 v 0 c 0,-229.92 -186.39,-416.3 -416.3,-416.3"
         style="fill:#fef0d4;fill-opacity:1;fill-rule:nonzero;stroke:none"
         id="path186" /><path
         d="m 5416.87,3604.26 h -0.17 c -80.87,0 -146.43,65.57 -146.43,146.44 v 0 c 0,80.86 65.56,146.43 146.43,146.43 h 0.17 c 80.87,0 146.44,-65.57 146.44,-146.43 v 0 c 0,-80.87 -65.57,-146.44 -146.44,-146.44"
         style="fill:#451b52;fill-opacity:1;fill-rule:nonzero;stroke:none"
         id="path188" /><path
         d="m 4583.25,4999.95 c -230.49,-230.33 -230.5,-603.78 -0.02,-834.12 l 0.02,-0.02 v 0 c 230.48,230.33 230.49,603.78 0.02,834.12 l -0.02,0.02 v 0"
         style="fill:#451b52;fill-opacity:1;fill-rule:nonzero;stroke:none"
         id="path190" /><path
         d="m 4668.65,4586.28 c 0,-47.56 -38.58,-86.12 -86.17,-86.12 -47.59,0 -86.17,38.56 -86.17,86.12 0,47.56 38.58,86.12 86.17,86.12 47.59,0 86.17,-38.56 86.17,-86.12"
         style="fill:#f7942d;fill-opacity:1;fill-rule:nonzero;stroke:none"
         id="path192" /><path
         d="m 5447.41,646.711 c 0,-47.57 -38.59,-86.129 -86.17,-86.129 -47.59,0 -86.18,38.559 -86.18,86.129 h 172.35"
         style="fill:#fef0d4;fill-opacity:1;fill-rule:nonzero;stroke:none"
         id="path194" /><path
         d="m 6385.09,646.711 c 0,-47.57 -38.57,-86.129 -86.16,-86.129 -47.6,0 -86.17,38.559 -86.17,86.129 h 172.33"
         style="fill:#fef0d4;fill-opacity:1;fill-rule:nonzero;stroke:none"
         id="path196" /><path
         d="m 5926.13,646.711 c 0,-47.57 -38.58,-86.129 -86.17,-86.129 -47.59,0 -86.17,38.559 -86.17,86.129 h 172.34"
         style="fill:#451b52;fill-opacity:1;fill-rule:nonzero;stroke:none"
         id="path198" /><path
         d="m 5833.34,835.77 h 833.33 V 1668.6 L 5833.34,835.77 v 0"
         style="fill:#ed1c24;fill-opacity:1;fill-rule:nonzero;stroke:none"
         id="path200" /><path
         d="m 7499.8,835.77 h -833.34 v 832.83 h 0.01 L 7499.8,835.77 v 0"
         style="fill:#ed1c24;fill-opacity:1;fill-rule:nonzero;stroke:none"
         id="path202" /><path
         d="m 6249.2,2216.83 h 0.01 c 157.27,0 284.77,127.42 284.77,284.61 v 0 H 6249.2 5964.42 v 0 c 0,-157.19 127.5,-284.61 284.78,-284.61 v 0"
         style="fill:#451b52;fill-opacity:1;fill-rule:nonzero;stroke:none"
         id="path204" /><path
         d="m 7091.94,2216.83 v 0 c 157.28,0 284.78,127.42 284.78,284.61 v 0 h -284.78 -284.78 v 0 c 0,-157.19 127.5,-284.61 284.78,-284.61 v 0"
         style="fill:#451b52;fill-opacity:1;fill-rule:nonzero;stroke:none"
         id="path206" /><path
         d="M 6666.7,2501.47 6380.26,1668.6 h 569.56 z"
         style="fill:#f7942d;fill-opacity:1;fill-rule:nonzero;stroke:none"
         id="path208" /><path
         d="m 6665.05,1383.99 v 0 c 157.27,0 284.77,127.42 284.77,284.61 v 0 h -284.77 -284.79 v 0 c 0,-157.19 127.5,-284.61 284.79,-284.61 v 0"
         style="fill:#fef0d4;fill-opacity:1;fill-rule:nonzero;stroke:none"
         id="path210" /><path
         d="m 5000,2.92969 h 242.18 V 419.34 H 5000 V 2.92969"
         style="fill:#ed1c24;fill-opacity:1;fill-rule:nonzero;stroke:none"
         id="path212" /><path
         d="m 5474.83,2.92969 h 242.18 V 419.34 H 5474.83 V 2.92969"
         style="fill:#451b52;fill-opacity:1;fill-rule:nonzero;stroke:none"
         id="path214" /><path
         d="m 5949.65,2.92969 h 242.19 V 419.34 H 5949.65 V 2.92969"
         style="fill:#ed1c24;fill-opacity:1;fill-rule:nonzero;stroke:none"
         id="path216" /><path
         d="M 6424.48,419.34 V 2.92969 h 242.19 V 419.34 h -242.19"
         style="fill:#451b52;fill-opacity:1;fill-rule:nonzero;stroke:none"
         id="path218" /><path
         d="M 3333.11,3.10938 H 1666.66 V 1668.57 Z"
         style="fill:#f7942d;fill-opacity:1;fill-rule:nonzero;stroke:none"
         id="path220" /><path
         d="M 1666.67,1668.6 H 2500 v 0 c 0,-459.96 -372.87,-832.83 -832.84,-832.83 h -0.49 v 832.83"
         style="fill:#fef0d4;fill-opacity:1;fill-rule:nonzero;stroke:none"
         id="path222" /><path
         d="m 1666.67,1668.6 h 430.76 v 0 c 0,-237.76 -192.74,-430.51 -430.5,-430.51 h -0.26 v 430.51"
         style="fill:#f7942d;fill-opacity:1;fill-rule:nonzero;stroke:none"
         id="path224" /><path
         d="m 833.379,2085.02 v 0 c 0,229.99 -186.563,416.44 -416.688,416.44 H 0 v -416.44 h 833.379"
         style="fill:#451b52;fill-opacity:1;fill-rule:nonzero;stroke:none"
         id="path226" /><path
         d="m 833.289,2085.02 v 0 c 0,229.99 186.561,416.44 416.691,416.44 h 416.69 V 2085.02 H 833.289"
         style="fill:#451b52;fill-opacity:1;fill-rule:nonzero;stroke:none"
         id="path228" /><path
         d="m 833.289,2917.88 v 0 c 0,-229.99 186.561,-416.44 416.691,-416.44 h 416.69 v 416.44 H 833.289"
         style="fill:#f7942d;fill-opacity:1;fill-rule:nonzero;stroke:none"
         id="path230" /><path
         d="m 833.379,2917.88 v 0 c 0,-229.99 -186.563,-416.44 -416.688,-416.44 H 0 v 416.44 h 833.379"
         style="fill:#f7942d;fill-opacity:1;fill-rule:nonzero;stroke:none"
         id="path232" /><path
         d="m 2500,1668.6 v 0 -0.02 c 0,-230.08 186.64,-416.6 416.86,-416.58 v 0 0.02 c 0,230.08 -186.64,416.59 -416.86,416.58"
         style="fill:#451b52;fill-opacity:1;fill-rule:nonzero;stroke:none"
         id="path234" /><path
         d="m 3332.17,1668.6 c -230.22,0.01 -416.85,-186.5 -416.85,-416.58 v -0.02 0 c 230.22,-0.02 416.85,186.5 416.85,416.58 v 0.02 0"
         style="fill:#f7942d;fill-opacity:1;fill-rule:nonzero;stroke:none"
         id="path236" /><path
         d="m 2915.32,1252 v 0 -0.03 c 0,-230.08 186.63,-416.591 416.85,-416.579 v 0 0.019 c 0,230.08 -186.63,416.6 -416.85,416.59"
         style="fill:#451b52;fill-opacity:1;fill-rule:nonzero;stroke:none"
         id="path238" /><path
         d="M 2500,835.391 2916.86,1252 v -0.02 c 0,-230.09 -186.64,-416.601 -416.86,-416.589 v 0"
         style="fill:#f7942d;fill-opacity:1;fill-rule:nonzero;stroke:none"
         id="path240" /><path
         d="M 2916.86,1252 2500,835.391 v 0.019 c 0,230.08 186.64,416.6 416.86,416.59 v 0"
         style="fill:#f7942d;fill-opacity:1;fill-rule:nonzero;stroke:none"
         id="path242" /><path
         d="m 2382.84,4583.53 -299.51,299.33 -299.51,-299.33 299.51,-299.33 299.51,299.33"
         style="fill:#fef0d4;fill-opacity:1;fill-rule:nonzero;stroke:none"
         id="path244" /><path
         d="m 3245.49,4583.53 -299.51,299.33 -299.51,-299.33 299.51,-299.33 299.51,299.33"
         style="fill:#ed1c24;fill-opacity:1;fill-rule:nonzero;stroke:none"
         id="path246" /><path
         d="M 5000,2501.44 4166.67,1668.6 h 833.3 z"
         style="fill:#451b52;fill-opacity:1;fill-rule:nonzero;stroke:none"
         id="path248" /><path
         d="m 833.332,1144.14 v 0 c -170.41,0 -308.551,-138.07 -308.551,-308.37 v 0 0 c 0,-170.309 138.141,-308.372 308.551,-308.372 v 0 0 c 170.408,0 308.558,138.063 308.558,308.372 v 0 0 c 0,170.3 -138.15,308.37 -308.558,308.37 v 0"
         style="fill:#fef0d4;fill-opacity:1;fill-rule:nonzero;stroke:none"
         id="path250" /><path
         d="m 833.332,978.34 v 0 c -78.789,0 -142.656,-63.828 -142.656,-142.57 v 0 0 c 0,-78.739 63.867,-142.579 142.656,-142.579 v 0 0 c 78.789,0 142.66,63.84 142.66,142.579 v 0 0 c 0,78.742 -63.871,142.57 -142.66,142.57 v 0"
         style="fill:#451b52;fill-opacity:1;fill-rule:nonzero;stroke:none"
         id="path252" /><path
         d="m 833.332,302.969 v 0 c -294.434,0 -533.117,238.543 -533.117,532.801 v 0 0 c 0,294.26 238.683,532.8 533.117,532.8 v 0 h 0.004 v 98.31 h -0.004 v 0 c -348.766,0 -631.488,-282.56 -631.488,-631.11 v 0 0 c 0,-348.559 282.722,-631.122 631.488,-631.122 v 0 h 0.004 v 98.321 h -0.004"
         style="fill:#f7942d;fill-opacity:1;fill-rule:nonzero;stroke:none"
         id="path254" /><path
         d="m 833.336,1466.88 v -98.31 c 294.434,0 533.114,-238.54 533.114,-532.8 v 0 0 c 0,-294.258 -238.68,-532.801 -533.114,-532.801 v -98.321 c 348.764,0 631.494,282.563 631.494,631.122 v 0 0 c 0,348.55 -282.73,631.11 -631.494,631.11"
         style="fill:#ed1c24;fill-opacity:1;fill-rule:nonzero;stroke:none"
         id="path256" /><path
         d="m 5000,2966.76 v 0 c 257.14,0 465.59,-208.33 465.59,-465.32 v 0 H 5000 v 465.32"
         style="fill:#451b52;fill-opacity:1;fill-rule:nonzero;stroke:none"
         id="path258" /><path
         d="m 5000,2966.76 v 0 c -257.14,0 -465.6,-208.33 -465.6,-465.32 v 0 H 5000 v 465.32"
         style="fill:#451b52;fill-opacity:1;fill-rule:nonzero;stroke:none"
         id="path260" /><path
         d="m 386.852,4110.59 c 15.64,-15.63 15.64,-40.97 0,-56.61 -15.641,-15.62 -40.997,-15.62 -56.637,0 -15.637,15.64 -15.637,40.98 0,56.61 15.64,15.63 40.996,15.63 56.637,0"
         style="fill:#451b52;fill-opacity:1;fill-rule:nonzero;stroke:none"
         id="path262" /><path
         d="m 577.527,4301.14 c 15.637,-15.62 15.637,-40.97 0,-56.6 -15.64,-15.63 -40.996,-15.63 -56.636,0 -15.641,15.63 -15.641,40.98 0,56.6 15.64,15.63 40.996,15.63 56.636,0"
         style="fill:#451b52;fill-opacity:1;fill-rule:nonzero;stroke:none"
         id="path264" /><path
         d="m 768.195,4491.71 c 15.641,-15.63 15.641,-40.98 0,-56.6 -15.64,-15.64 -40.996,-15.64 -56.636,0 -15.641,15.62 -15.641,40.97 0,56.6 15.64,15.63 40.996,15.63 56.636,0"
         style="fill:#451b52;fill-opacity:1;fill-rule:nonzero;stroke:none"
         id="path266" /><path
         d="m 958.867,4682.26 c 15.641,-15.63 15.641,-40.97 0,-56.6 -15.637,-15.63 -40.996,-15.63 -56.633,0 -15.64,15.63 -15.64,40.97 0,56.6 15.637,15.63 40.996,15.63 56.633,0"
         style="fill:#451b52;fill-opacity:1;fill-rule:nonzero;stroke:none"
         id="path268" /><path
         d="m 7023.67,1006.84 c 0,22.11 17.93,40.03 40.05,40.03 22.12,0 40.05,-17.92 40.05,-40.03 0,-22.102 -17.93,-40.02 -40.05,-40.02 -22.12,0 -40.05,17.918 -40.05,40.02"
         style="fill:#451b52;fill-opacity:1;fill-rule:nonzero;stroke:none"
         id="path270" /><path
         d="m 6754.02,1006.84 c 0,22.11 17.93,40.03 40.04,40.03 22.12,0 40.05,-17.92 40.05,-40.03 0,-22.102 -17.93,-40.02 -40.05,-40.02 -22.11,0 -40.04,17.918 -40.04,40.02"
         style="fill:#451b52;fill-opacity:1;fill-rule:nonzero;stroke:none"
         id="path272" /><path
         d="m 6484.36,1006.84 c 0,22.11 17.93,40.03 40.05,40.03 22.12,0 40.05,-17.92 40.05,-40.03 0,-22.102 -17.93,-40.02 -40.05,-40.02 -22.12,0 -40.05,17.918 -40.05,40.02"
         style="fill:#451b52;fill-opacity:1;fill-rule:nonzero;stroke:none"
         id="path274" /><path
         d="m 6214.71,1006.84 c 0,22.11 17.93,40.03 40.05,40.03 22.12,0 40.05,-17.92 40.05,-40.03 0,-22.102 -17.93,-40.02 -40.05,-40.02 -22.12,0 -40.05,17.918 -40.05,40.02"
         style="fill:#451b52;fill-opacity:1;fill-rule:nonzero;stroke:none"
         id="path276" /><path
         d="m 5189.63,3113.78 c 0,-22.1 -17.93,-40.02 -40.05,-40.02 -22.12,0 -40.05,17.92 -40.05,40.02 0,22.11 17.93,40.03 40.05,40.03 22.12,0 40.05,-17.92 40.05,-40.03"
         style="fill:#fef0d4;fill-opacity:1;fill-rule:nonzero;stroke:none"
         id="path278" /><path
         d="m 5459.27,3113.78 c 0,-22.1 -17.93,-40.02 -40.05,-40.02 -22.11,0 -40.04,17.92 -40.04,40.02 0,22.11 17.93,40.03 40.04,40.03 22.12,0 40.05,-17.92 40.05,-40.03"
         style="fill:#fef0d4;fill-opacity:1;fill-rule:nonzero;stroke:none"
         id="path280" /><path
         d="m 5728.92,3113.78 c 0,-22.1 -17.93,-40.02 -40.05,-40.02 -22.12,0 -40.05,17.92 -40.05,40.02 0,22.11 17.93,40.03 40.05,40.03 22.12,0 40.05,-17.92 40.05,-40.03"
         style="fill:#fef0d4;fill-opacity:1;fill-rule:nonzero;stroke:none"
         id="path282" /><path
         d="m 3510.78,3113.78 c 0,-22.1 -17.93,-40.02 -40.05,-40.02 -22.12,0 -40.05,17.92 -40.05,40.02 0,22.11 17.93,40.03 40.05,40.03 22.12,0 40.05,-17.92 40.05,-40.03"
         style="fill:#fef0d4;fill-opacity:1;fill-rule:nonzero;stroke:none"
         id="path284" /><path
         d="m 3780.43,3113.78 c 0,-22.1 -17.93,-40.02 -40.05,-40.02 -22.12,0 -40.05,17.92 -40.05,40.02 0,22.11 17.93,40.03 40.05,40.03 22.12,0 40.05,-17.92 40.05,-40.03"
         style="fill:#fef0d4;fill-opacity:1;fill-rule:nonzero;stroke:none"
         id="path286" /><path
         d="m 4050.07,3113.78 c 0,-22.1 -17.93,-40.02 -40.04,-40.02 -22.11,0 -40.04,17.92 -40.04,40.02 0,22.11 17.93,40.03 40.04,40.03 22.11,0 40.04,-17.92 40.04,-40.03"
         style="fill:#fef0d4;fill-opacity:1;fill-rule:nonzero;stroke:none"
         id="path288" /><path
         d="m 2500,3088.31 v 0 0 c -324.32,0 -587.23,-262.75 -587.23,-586.87 v 0 0 c 0,-324.12 262.91,-586.87 587.23,-586.87 v 0 0 c 324.32,0 587.22,262.75 587.22,586.87 v 0 0 c 0,324.12 -262.9,586.87 -587.22,586.87"
         style="fill:#f7942d;fill-opacity:1;fill-rule:nonzero;stroke:none"
         id="path290" /><path
         d="m 2500,2835.25 v 0 c -184.47,0 -334,-149.45 -334,-333.81 v 0 h 334 334.01 v 0 c 0,184.36 -149.55,333.81 -334.01,333.81 v 0"
         style="fill:#ed1c24;fill-opacity:1;fill-rule:nonzero;stroke:none"
         id="path292" /><path
         d="m 1666.67,1668.6 v 832.84 H 2500 Z"
         style="fill:#fef0d4;fill-opacity:1;fill-rule:nonzero;stroke:none"
         id="path294" /><path
         d="m 2500,2167.63 v 0 c 184.46,0 334.01,149.46 334.01,333.81 v 0 H 2500 2166 v 0 c 0,-184.35 149.53,-333.81 334,-333.81 v 0"
         style="fill:#451b52;fill-opacity:1;fill-rule:nonzero;stroke:none"
         id="path296" /><path
         d="M 4166.69,835.801 3333.46,3.05859 h 833.23 z"
         style="fill:#fef0d4;fill-opacity:1;fill-rule:nonzero;stroke:none"
         id="path298" /><path
         d="M 4166.09,1668.57 3749.2,1251.83 3332.21,1668.57 Z"
         style="fill:#ed1c24;fill-opacity:1;fill-rule:nonzero;stroke:none"
         id="path300" /><path
         d="m 3332.21,1668.6 416.89,416.74 416.99,-416.74 z"
         style="fill:#451b52;fill-opacity:1;fill-rule:nonzero;stroke:none"
         id="path302" /><path
         d="m 7500,3334.27 v 0 c -920.47,0 -1666.66,745.75 -1666.66,1665.68 v 0 H 7500 V 3334.27"
         style="fill:#fef0d4;fill-opacity:1;fill-rule:nonzero;stroke:none"
         id="path304" /><path
         d="m 6185.36,4999.95 v 0 H 5978.2 v 0 c 0,-839.97 681.34,-1520.89 1521.8,-1520.89 v 0 207.04 0 c -726.06,0 -1314.64,588.23 -1314.64,1313.85"
         style="fill:#451b52;fill-opacity:1;fill-rule:nonzero;stroke:none"
         id="path306" /><path
         d="m 7500,3854.86 v 0 c -632.8,0 -1145.78,512.67 -1145.78,1145.09 v 0 H 7500 V 3854.86"
         style="fill:#f7942d;fill-opacity:1;fill-rule:nonzero;stroke:none"
         id="path308" /><path
         d="m 7500,4137.81 v 0 c -476.43,0 -862.65,385.99 -862.65,862.14 v 0 H 7500 v -862.14"
         style="fill:#ed1c24;fill-opacity:1;fill-rule:nonzero;stroke:none"
         id="path310" /><path
         d="m 7500,4456.14 v 0 c -300.51,0 -544.13,243.47 -544.13,543.81 v 0 H 7500 v -543.81"
         style="fill:#451b52;fill-opacity:1;fill-rule:nonzero;stroke:none"
         id="path312" /><path
         d="M 2500,2.92969 H 1666.67 V 835.77 H 2500 V 2.92969"
         style="fill:#ed1c24;fill-opacity:1;fill-rule:nonzero;stroke:none"
         id="path314" /><path
         d="M 2500,835.391 1666.86,2.73828 H 2500 Z"
         style="fill:#451b52;fill-opacity:1;fill-rule:nonzero;stroke:none"
         id="path316" /><path
         d="m 2083.42,265.75 h -0.18 c -84.83,0 -153.6,68.77 -153.6,153.59 v 0.012 c 0,84.828 68.77,153.597 153.6,153.597 h 0.18 c 84.83,0 153.6,-68.769 153.6,-153.597 v -0.012 c 0,-84.82 -68.77,-153.59 -153.6,-153.59"
         style="fill:#fef0d4;fill-opacity:1;fill-rule:nonzero;stroke:none"
         id="path318" /><path
         d="m 2500.37,3.10938 h 832.3 v 0.4414 L 2916.74,419.242 2500.37,3.10938"
         style="fill:#ed1c24;fill-opacity:1;fill-rule:nonzero;stroke:none"
         id="path320" /><path
         d="M 3333.31,419.25 V 3.51172 l -0.6,-0.40234 H 2500.33 L 2916.72,419.25 h 416.59"
         style="fill:#451b52;fill-opacity:1;fill-rule:nonzero;stroke:none"
         id="path322" /><path
         d="m 6666.7,3334.31 -833.33,832.83 v -832.87 z"
         style="fill:#451b52;fill-opacity:1;fill-rule:nonzero;stroke:none"
         id="path324" /></g></g></svg>
