<svg xmlns="http://www.w3.org/2000/svg" width="1000" height="666.667"><path d="M1000 666.667H0V.365h1000v666.302" fill="#fef0d4"/><path d="M555.556 222.097V111.052h111.11v111.045h-111.11M444.444 111.052h364.447L666.667.007H555.57L444.444 111.052M111.11 111.052H0V.007h111.11v111.045" fill="#fef0d4"/><path d="M55.58 55.553H0V.007h55.58v55.546M222.223 111.052H111.11V.007h111.112v111.045" fill="#451b52"/><path d="M333.333 111.052h-111.11V.007h111.11v111.045" fill="#ed1c24"/><path d="M444.444 111.052h-111.11V.007h111.11v111.045" fill="#451b52"/><path d="M666.667 111.052H555.556V.007h111.11v111.045" fill="#fef0d4"/><path d="M777.779 111.052h-.067c-61.328 0-111.045-49.717-111.045-111.045h111.112v111.045" fill="#ed1c24"/><path d="M444.46 111.052h.067c61.328 0 111.044-49.717 111.044-111.045H444.46v111.045" fill="#f7942d"/><path d="M444.46 60.016h.036c33.143 0 60.01-26.867 60.01-60.01H444.46v60.01M888.89 111.052H777.778V.007h111.11v111.045M1000 111.052H888.89V.007H1000v111.045" fill="#ed1c24"/><path d="M111.11 222.097H0V111.052h111.11v111.045" fill="#451b52"/><path d="M222.223 222.097H111.11V111.052h111.112v111.045" fill="#f7942d"/><path d="M190.012 189.907h-46.69V143.24h46.69v46.666" fill="#451b52"/><path d="M333.333 222.097h-111.11V111.052h111.11v111.045" fill="#fef0d4"/><path d="M444.444 222.097h-111.11V111.052h111.11v111.045" fill="#ed1c24"/><path d="M555.556 222.097H444.444V111.052h111.112v111.045" fill="#fef0d4"/><path d="M500.033 222.08h-.066c-30.655 0-55.507-24.85-55.507-55.507 0-30.654 24.852-55.506 55.507-55.506h.066c30.655 0 55.507 24.852 55.507 55.506 0 30.656-24.852 55.507-55.507 55.507" fill="#451b52"/><path d="M500.012 186.099h-.024c-10.783 0-19.524-8.743-19.524-19.526 0-10.781 8.741-19.524 19.524-19.524h.024c10.781 0 19.524 8.743 19.524 19.524 0 10.783-8.743 19.526-19.524 19.526" fill="#fef0d4"/><path d="M777.779 222.097H666.667V111.052h111.112v111.045" fill="#451b52"/><path d="M888.89 222.097H777.778V111.052h111.11v111.045" fill="#f7942d"/><path d="M1000 222.097H888.89V111.052H1000v111.045" fill="#ed1c24"/><path d="M111.11 333.141H0V222.097h111.11v111.044M222.223 333.141H111.11V222.097h111.112v111.044" fill="#fef0d4"/><path d="M333.333 333.141h-111.11V222.097h111.11v111.044" fill="#ed1c24"/><path d="M444.444 333.141h-111.11V222.097h111.11v111.044" fill="#451b52"/><path d="M333.333 222.097c-61.365 0-111.11 49.716-111.11 111.044h222.221c0-61.328-49.745-111.044-111.11-111.044" fill="#fef0d4"/><path d="M555.556 333.141H444.444V222.097h111.112v111.044" fill="#451b52"/><path d="M666.667 333.141H555.556V222.097h111.11v111.044M777.779 333.141H666.667V222.097h111.112v111.044" fill="#ed1c24"/><path d="M888.89 333.141H777.778V222.097h111.11v111.044M1000 333.141H888.89V222.097H1000v111.044" fill="#ed1c24"/><path d="M1000 222.097v111.044H888.89z" fill="#f7942d"/><path d="M111.11 444.187H0V333.14h111.11v111.046M222.223 444.187H111.11V333.14h111.112v111.046M333.333 444.187h-111.11V333.14h111.11v111.046" fill="#ed1c24"/><path d="M444.444 444.187h-111.11V333.14h111.11v111.046" fill="#451b52"/><path d="M555.556 444.187H444.444V333.14h111.112v111.046M666.667 444.187H555.556V333.14h111.11v111.046M333.333 555.23h-111.11V444.188h111.11V555.23M444.444 555.23h-111.11V444.188h111.11V555.23" fill="#ed1c24"/><path d="M222.223 555.23H111.11V444.188h111.112V555.23" fill="#451b52"/><path d="M111.11 666.276H0V555.231h111.11v111.045" fill="#f7942d"/><path d="M111.11 555.23H0V444.188h111.11V555.23M222.223 666.276H111.11V555.231h111.112v111.045" fill="#fef0d4"/><path d="M111.11 444.187C49.747 444.187 0 493.903 0 555.23c0 61.329 49.746 111.045 111.11 111.045h.001c61.365 0 111.112-49.716 111.112-111.045 0-61.328-49.747-111.044-111.112-111.044" fill="#ed1c24"/><path d="M111.11 666.276h.001c61.365 0 111.112-49.716 111.112-111.045 0-61.328-49.747-111.044-111.112-111.044v222.089" fill="#451b52"/><path d="M444.441 555.227v111.05H333.337v-111.05h111.104" fill="#ed1c24"/><path d="M555.559 555.227v111.05H444.455v-111.05h111.104" fill="#fef0d4"/><path d="M555.559 444.187v111.05H444.455v-111.05h111.104M666.667 444.187v111.05H555.563v-111.05h111.104" fill="#fef0d4"/><path d="M666.667 666.276H555.556V555.231h111.11v111.045" fill="#ed1c24"/><path d="M666.667 444.187c-122.73 0-222.223 99.432-222.223 222.089h222.223v-222.09" fill="#451b52"/><path d="M666.663 444.19L444.44 666.278c0-122.656 99.491-222.086 222.222-222.086M888.89 333.141L555.555 666.276h333.333z" fill="#f7942d"/><path d="M888.89 444.187H777.778V333.14h111.11v111.046" fill="#ed1c24"/><path d="M1000 444.187H888.89V333.14H1000v111.046" fill="#fef0d4"/><path d="M888.89 555.23H777.778V444.188h111.11V555.23" fill="#f7942d"/><path d="M1000 555.23H888.89V444.188H1000V555.23" fill="#451b52"/><path d="M1000 666.276H888.89V555.231H1000v111.045" fill="#fef0d4"/><path d="M1000 666.276H888.89c0-61.328 49.715-111.045 111.043-111.045h.067v111.045" fill="#ed1c24"/><path d="M1000 666.276h-62.89c0-34.713 28.14-62.852 62.853-62.852h.037v62.852" fill="#451b52"/><path d="M666.667 222.097l-222.223 222.09V333.14h222.223V222.097" fill="#f7942d"/><path d="M777.779 444.187H666.667V333.14h111.112v111.046" fill="#fef0d4"/><path d="M666.663 444.19l111.114-111.049v111.046z" fill="#451b52"/><path d="M777.779 333.141l111.114-111.049v111.045z" fill="#fef0d4"/><path d="M222.221 222.101l111.114-111.048v111.044z" fill="#451b52"/><path d="M444.444 222.097V111.052l-111.11 111.045zM222.221 0L0 222.101v-111.05L111.117 0H222.22" fill="#f7942d"/><path d="M555.71 166.548l55.58 55.55v-.003c0-30.679-24.885-55.548-55.58-55.547" fill="#ed1c24"/><path d="M611.29 222.097l-55.58-55.549v.003c0 30.678 24.885 55.548 55.58 55.546" fill="#ed1c24"/><path d="M666.667 166.548l-55.582 55.55v-.003c0-30.679 24.886-55.548 55.582-55.547" fill="#f7942d"/><path d="M611.085 222.097l55.582-55.549v.003c0 30.678-24.884 55.548-55.582 55.546" fill="#f7942d"/><path d="M555.71 111.052l55.58 55.548v-.003c0-30.678-24.885-55.548-55.58-55.545M611.29 166.6l-55.58-55.548v.003c0 30.677 24.885 55.546 55.58 55.545" fill="#ed1c24"/><path d="M666.667 111.052L611.085 166.6v-.003c0-30.678 24.886-55.548 55.582-55.545" fill="#f7942d"/><path d="M611.085 166.6l55.582-55.548v.003c0 30.677-24.884 55.546-55.582 55.545" fill="#f7942d"/><path d="M.002 222.097l111.111 55.526v-55.526z" fill="#ed1c24"/><path d="M222.223 222.097h-111.11v55.526z" fill="#451b52"/><path d="M222.221 444.187L111.11 388.66v55.527zM0 444.187h111.11V388.66z" fill="#f7942d"/><path d="M777.779 555.23H666.667V444.188h111.112V555.23" fill="#ed1c24"/><path d="M666.667 555.23l111.112-111.043V555.23zM722.272 222.08h-.067c-30.654 0-55.506-24.85-55.506-55.507 0-30.654 24.852-55.506 55.506-55.506h.067c30.655 0 55.507 24.852 55.507 55.506 0 30.656-24.852 55.507-55.507 55.507" fill="#fef0d4"/><path d="M722.25 186.099h-.023c-10.783 0-19.524-8.743-19.524-19.526 0-10.781 8.741-19.524 19.524-19.524h.022c10.783 0 19.526 8.743 19.526 19.524 0 10.783-8.743 19.526-19.526 19.526M611.1.007c-30.732 30.71-30.733 80.504-.003 111.216l.003.002c30.73-30.71 30.732-80.504.003-111.216L611.1.007" fill="#451b52"/><path d="M622.487 55.163c0 6.341-5.144 11.482-11.49 11.482-6.345 0-11.489-5.141-11.489-11.482 0-6.342 5.144-11.483 11.49-11.483 6.345 0 11.489 5.141 11.489 11.483" fill="#f7942d"/><path d="M726.321 580.439c0 6.342-5.145 11.483-11.489 11.483-6.345 0-11.49-5.14-11.49-11.483h22.98M851.345 580.439c0 6.342-5.142 11.483-11.488 11.483-6.346 0-11.489-5.14-11.489-11.483h22.977" fill="#fef0d4"/><path d="M790.15 580.439c0 6.342-5.143 11.483-11.489 11.483-6.345 0-11.489-5.14-11.489-11.483h22.979" fill="#451b52"/><path d="M777.779 555.23h111.11V444.188L777.78 555.23" fill="#ed1c24"/><path d="M999.973 555.23H888.861V444.188h.002l111.11 111.044" fill="#ed1c24"/><path d="M833.227 371.09h.001c20.97 0 37.97-16.99 37.97-37.949h-75.942c0 20.959 17 37.948 37.97 37.948M945.592 371.09c20.97 0 37.97-16.99 37.97-37.949h-75.94c0 20.959 17 37.948 37.97 37.948" fill="#451b52"/><path d="M888.893 333.137l-38.192 111.05h75.942z" fill="#f7942d"/><path d="M888.673 482.135c20.97 0 37.97-16.99 37.97-37.948H850.7c0 20.958 17 37.948 37.972 37.948" fill="#fef0d4"/><path d="M666.667 666.276h32.29v-55.521h-32.29v55.521" fill="#ed1c24"/><path d="M729.977 666.276h32.291v-55.521h-32.29v55.521" fill="#451b52"/><path d="M793.287 666.276h32.292v-55.521h-32.292v55.521" fill="#ed1c24"/><path d="M856.597 610.755v55.521h32.292v-55.521h-32.292" fill="#451b52"/><path d="M444.415 666.252H222.22V444.191z" fill="#f7942d"/><path d="M222.223 444.187h111.11c0 61.328-49.716 111.044-111.045 111.044h-.065V444.187" fill="#fef0d4"/><path d="M222.223 444.187h57.434c0 31.701-25.698 57.401-57.4 57.401h-.034v-57.401" fill="#f7942d"/><path d="M111.117 388.664c0-30.665-24.875-55.525-55.558-55.525H0v55.525h111.117" fill="#451b52"/><path d="M111.105 388.664c0-30.665 24.875-55.525 55.559-55.525h55.559v55.525H111.105" fill="#451b52"/><path d="M111.105 277.616c0 30.665 24.875 55.525 55.559 55.525h55.559v-55.525H111.105" fill="#f7942d"/><path d="M111.117 277.616c0 30.665-24.875 55.525-55.558 55.525H0v-55.525h111.117" fill="#f7942d"/><path d="M333.333 444.187v.002c0 30.678 24.886 55.547 55.582 55.544v-.002c0-30.678-24.886-55.546-55.582-55.544" fill="#451b52"/><path d="M444.29 444.187c-30.697-.002-55.58 24.866-55.58 55.544v.002c30.695.003 55.58-24.866 55.58-55.544v-.002" fill="#f7942d"/><path d="M388.71 499.733v.004c0 30.678 24.883 55.546 55.58 55.544v-.002c0-30.678-24.885-55.547-55.58-55.546" fill="#451b52"/><path d="M333.333 555.281l55.582-55.548v.003c0 30.679-24.886 55.547-55.582 55.545" fill="#f7942d"/><path d="M388.915 499.733l-55.582 55.548v-.002c0-30.678 24.886-55.547 55.582-55.546" fill="#f7942d"/><path d="M317.712 55.53l-39.935-39.911-39.934 39.91 39.934 39.911 39.935-39.91" fill="#fef0d4"/><path d="M432.732 55.53l-39.935-39.911-39.934 39.91 39.934 39.911 39.935-39.91" fill="#ed1c24"/><path d="M666.667 333.141L555.556 444.187h111.107z" fill="#451b52"/><path d="M111.11 514.115c-22.72 0-41.14 18.409-41.14 41.116 0 22.708 18.42 41.116 41.14 41.116 22.722 0 41.142-18.408 41.142-41.116 0-22.707-18.42-41.116-41.141-41.116" fill="#fef0d4"/><path d="M111.11 536.221c-10.504 0-19.02 8.51-19.02 19.01 0 10.498 8.516 19.01 19.02 19.01 10.506 0 19.022-8.512 19.022-19.01 0-10.5-8.516-19.01-19.021-19.01" fill="#451b52"/><path d="M111.11 626.27c-39.257 0-71.081-31.805-71.081-71.04 0-39.234 31.824-71.04 71.082-71.04v-13.107c-46.502 0-84.198 37.674-84.198 84.148s37.696 84.15 84.198 84.15v-13.11" fill="#f7942d"/><path d="M111.111 471.083v13.108c39.258 0 71.082 31.805 71.082 71.04 0 39.234-31.824 71.04-71.082 71.04v13.11c46.502 0 84.2-37.676 84.2-84.15 0-46.474-37.698-84.148-84.2-84.148" fill="#ed1c24"/><path d="M666.667 271.099c34.285 0 62.078 27.777 62.078 62.042h-62.078V271.1M666.667 271.099c-34.286 0-62.08 27.777-62.08 62.042h62.08V271.1M51.58 118.588a5.335 5.335 0 0 1 0 7.548 5.345 5.345 0 0 1-7.551 0 5.336 5.336 0 0 1 0-7.548 5.342 5.342 0 0 1 7.551 0M77.004 93.181a5.335 5.335 0 0 1 0 7.547 5.342 5.342 0 0 1-7.552 0 5.334 5.334 0 0 1 0-7.547 5.342 5.342 0 0 1 7.552 0M102.426 67.772a5.334 5.334 0 0 1 0 7.547 5.34 5.34 0 0 1-7.551 0 5.334 5.334 0 0 1 0-7.547 5.342 5.342 0 0 1 7.551 0M127.849 42.365a5.334 5.334 0 0 1 0 7.547 5.342 5.342 0 0 1-7.551 0 5.334 5.334 0 0 1 0-7.547 5.342 5.342 0 0 1 7.55 0M936.49 532.421a5.338 5.338 0 0 1 5.34-5.337c2.949 0 5.34 2.39 5.34 5.337a5.338 5.338 0 0 1-5.34 5.336c-2.95 0-5.34-2.389-5.34-5.336M900.536 532.421a5.338 5.338 0 0 1 5.339-5.337c2.949 0 5.34 2.39 5.34 5.337a5.338 5.338 0 0 1-5.34 5.336 5.338 5.338 0 0 1-5.339-5.336M864.581 532.421a5.338 5.338 0 0 1 5.34-5.337c2.95 0 5.34 2.39 5.34 5.337a5.338 5.338 0 0 1-5.34 5.336c-2.949 0-5.34-2.389-5.34-5.336M828.628 532.421a5.338 5.338 0 0 1 5.34-5.337c2.95 0 5.34 2.39 5.34 5.337a5.338 5.338 0 0 1-5.34 5.336c-2.95 0-5.34-2.389-5.34-5.336" fill="#451b52"/><path d="M691.95 251.496a5.338 5.338 0 0 1-5.34 5.336c-2.949 0-5.34-2.39-5.34-5.336a5.338 5.338 0 0 1 5.34-5.337c2.95 0 5.34 2.389 5.34 5.337M727.903 251.496a5.338 5.338 0 0 1-5.34 5.336 5.338 5.338 0 1 1 0-10.673c2.949 0 5.34 2.389 5.34 5.337M763.856 251.496a5.338 5.338 0 0 1-5.34 5.336c-2.95 0-5.34-2.39-5.34-5.336a5.338 5.338 0 0 1 5.34-5.337c2.95 0 5.34 2.389 5.34 5.337M468.104 251.496a5.338 5.338 0 0 1-5.34 5.336c-2.95 0-5.34-2.39-5.34-5.336a5.338 5.338 0 0 1 5.34-5.337c2.95 0 5.34 2.389 5.34 5.337M504.057 251.496a5.338 5.338 0 0 1-5.34 5.336c-2.949 0-5.34-2.39-5.34-5.336a5.338 5.338 0 0 1 5.34-5.337c2.95 0 5.34 2.389 5.34 5.337M540.01 251.496a5.338 5.338 0 0 1-5.34 5.336 5.338 5.338 0 1 1 5.34-5.336" fill="#fef0d4"/><path d="M333.333 254.892c-43.242 0-78.297 35.033-78.297 78.25 0 43.215 35.055 78.249 78.297 78.249 43.243 0 78.296-35.034 78.296-78.25s-35.053-78.249-78.296-78.249" fill="#f7942d"/><path d="M333.333 288.633c-24.596 0-44.533 19.927-44.533 44.508h89.068c0-24.581-19.94-44.508-44.535-44.508" fill="#ed1c24"/><path d="M222.223 444.187V333.14h111.11z" fill="#fef0d4"/><path d="M333.333 377.65c24.595 0 44.535-19.929 44.535-44.509H288.8c0 24.58 19.937 44.508 44.533 44.508" fill="#451b52"/><path d="M555.559 555.227L444.46 666.259H555.56z" fill="#fef0d4"/><path d="M555.479 444.19l-55.586 55.566-55.598-55.565z" fill="#ed1c24"/><path d="M444.295 444.187l55.585-55.566 55.599 55.566z" fill="#451b52"/><path d="M1000 222.097c-122.73 0-222.221-99.433-222.221-222.09H1000v222.09" fill="#fef0d4"/><path d="M824.715.007h-27.622c0 111.996 90.846 202.785 202.907 202.785v-27.605c-96.808 0-175.285-78.431-175.285-175.18" fill="#451b52"/><path d="M1000 152.685c-84.373 0-152.77-68.356-152.77-152.678H1000v152.678" fill="#f7942d"/><path d="M1000 114.959c-63.524 0-115.02-51.466-115.02-114.952H1000v114.952" fill="#ed1c24"/><path d="M1000 72.515c-40.068 0-72.55-32.463-72.55-72.508H1000v72.508" fill="#451b52"/><path d="M333.333 666.276h-111.11V555.231h111.11v111.045" fill="#ed1c24"/><path d="M333.333 555.281l-111.085 111.02h111.085z" fill="#451b52"/><path d="M277.79 631.233h-.025c-11.31 0-20.48-9.169-20.48-20.478v-.002c0-11.31 9.17-20.48 20.48-20.48h.024c11.311 0 20.48 9.17 20.48 20.48v.002c0 11.309-9.169 20.478-20.48 20.478" fill="#fef0d4"/><path d="M333.383 666.252h110.973v-.059l-55.457-55.425-55.516 55.484" fill="#ed1c24"/><path d="M444.441 610.767v55.431l-.08.054H333.377l55.519-55.485h55.545M888.893 222.092l-111.11-111.044v111.05z" fill="#451b52"/></svg>