<svg xmlns="http://www.w3.org/2000/svg" width="1002.653" height="564.133"><defs><clipPath clipPathUnits="userSpaceOnUse" id="a"><path d="M7500 4230.98V0H0v4230.98z"/></clipPath></defs><path d="M1002.652.003v562.65h-1000V.003h1000" fill="#f9f4ed"/><g clip-path="url(#a)" transform="matrix(.13333 0 0 -.13333 0 564.133)"><path d="M7519.89-67.52v-316.5H19.887v5000H753.69c70.7-26.5 139.7-57.7 206.297-93.2 439.302-234.2 772.802-655.1 910.902-1133.4 120.4-417 96.6-859.9 139.1-1291.9 42.5-431.9 172.2-888.8 512.6-1158 274.6-217.101 644-276.101 993.9-263.5 349.8 12.7 694.5 89 1043.9 109.899 539.4 32.402 1086.3-69.797 1577.5-294.797 403.9-185 778.19-453.902 1214.7-536.602 55.4-10.5 111.3-17.8 167.3-22M7519.89 4615.98V960.379c-9 2.601-17.9 5.402-26.7 8.402-241.6 80.999-444.3 272.499-536.31 510.099-112.19 289.6-63.49 627.4-201.19 905.8-144.7 292.8-467.9 457.3-787.5 525.2-319.5 67.9-650.6 59.2-972.9 112-549.3 89.9-1067 363.6-1450.5 767-177.1 186.2-328.8 405.1-389.9 654.7-13.8 56.2-22.3 114.2-25.4 172.4h4390.4" fill="#fff"/><path d="M1486.12 1458.46c-339.61 191.95-770.472 111.64-1093.089-72.3-373.183-212.78-528.16-652.359-593.695-1055.121-36.731-225.848-41.965-469.48 45.625-684.719 37.109-91.191 100.223-178.41 183.547-232.39 87.879-56.91 194.793-73.879 297.582-76.129 249.144-5.481 503.465 84.789 725.06 191.418 227.84 109.64 421.69 266.832 563.92 477.601 152.55 226.032 221.65 494.871 210.82 766.078-10.73 268.822-93.46 546.332-339.77 685.562" fill="#42405f"/><path d="M1427.14 958.582c-6.72-8.473 2.44-35.391 11.58-23.871 6.71 8.469-2.44 35.398-11.58 23.871M1440.19 1029.91c-4.3-5.4-3.71-14.18-.84-20.06 2.27-4.67 8.14-9.18 12.41-3.82 4.29 5.42 3.7 14.2.84 20.06-2.27 4.67-8.15 9.2-12.41 3.82M1358.31 1043.72c-6.84-9.6-4.9-25.96 7.01-30.39 8.62-3.2 9.45 8.33 7.92 16.78-.12 3.48-.94 6.99-2.29 9.75-2.18 4.46-8.51 9.66-12.64 3.86M1269.79 1106.07c-.33.2-.68.28-1.03.44a8.4 8.4 0 0 1-2.67.33c-.63 0-1.23.02-1.86-.21-1.38-.43-2.72-1.19-3.88-2.62-4.7-5.78-4.65-14.84-2.72-21.63 1.12-3.92 3.12-8 6.42-10.53 1.58-1.23 7.13-3.57 8.83-.9 3.58 5.66 5.96 7.01 6.31 13.91 0 .11-.03.25-.03.39.1 1.19.08 2.64-.15 4.59-.05.39-.18.74-.25 1.13-.17 1.05-.43 2.04-.7 3.09-.34 1.29-.74 2.5-1.23 3.72-.19.43-.24.9-.44 1.3-.3.59-.8 1.13-1.19 1.72-.38.61-.56 1.3-.97 1.84-1.24 1.6-2.8 2.67-4.44 3.43M1333.59 1123.26c-4.74-5.98 1.72-25.02 8.19-16.89 4.73 6-1.74 25.02-8.19 16.89M1391.45 1116.47c-5.68-7.17 2.05-29.89 9.78-20.17 5.66 7.16-2.07 29.9-9.78 20.17M1343.04 949.352c-6.96-8.774 2.52-36.614 11.96-24.704 6.97 8.762-2.51 36.59-11.96 24.704M1280.63 996.871c-7.75-.902-7.5-13.332-6.04-18.551 1.5-5.25 7.83-13.531 13.23-6.91a12.79 12.79 0 0 1 2.43 5.34c-.93-3.012-.79-3.379.38-1.078 1.16 2.539 1.27 5.957.36 8.598-1.12 3.261-3.63 13.359-10.36 12.601M1232.04 924.75c-.04.039-.05.07-.07.102-10.58 1.648-10.3-15.204-7.01-21.313 1.25-2.32 2.48-4.437 4.81-5.809 4-2.308 7.5-1.109 9.47 3.192 2.13 4.738 1.75 10.168-.17 14.898-.03.27-.05.532-.1.801-.22.371-.52.899-.84 1.5.37-.57.64-1.043.84-1.332-.7 4.199-2.7 8.332-6.93 7.961" fill="#fffbe1"/><path d="M1238.97 916.789v-.168c.43-.672.57-.793 0 .168M1308.67 847.59c-9-11.34-7.75-29.738-1.75-42.09 4.76-9.781 17.09-19.289 26.06-7.988 9 11.34 7.73 29.769 1.73 42.09-4.73 9.808-17.06 19.296-26.04 7.988M1415.63 774.789c-1.41-6.16-.63-13.07 2.14-18.738 1.54-3.16 6.12-9.66 10.68-8.09.49.168.97.328 1.47.5 10.55 3.629 9.5 18.098 5.83 26.488-.3.711-.6 1.371-.9 2.071-4.98 11.429-16.61 9.3-19.22-2.231M1474.69 748.391c-.08.609-.15 1.199-.21 1.769-.8-4.16.31-15.601 7.03-14.699 1.63.219 3.21.5 4.61 1.437 6.77 4.481 5.23 16.774.96 22.321-7.67 10-12.72-4.321-12.39-10.828M1487.56 867.738c-7.22-.816-6.32-13.437-3.92-17.777 2.14-3.801 4.13-6.422 8.56-7.25 5.8-1.082 5.92 8.641 3.94 11.918-.24.473-.4.672-.59.973-.23 5.546-2.11 12.808-7.99 12.136M1336.29 718.102c-2.61-11.481.69-26.192 11.79-31.891.86-.441 1.72-.859 2.59-1.313 7.07-3.617 12.35 6.582 13.5 11.614 1.82 8.027.73 19.527-5.03 25.949-.79.867-1.55 1.719-2.33 2.57-8.4 9.348-17.9 4.528-20.52-6.929M1410.41 656.051c-1.5-.403-3.02-.781-4.32-1.629-5.45-3.57-6.33-11.543-5.65-17.402.57-4.93 4.69-17.989 12.25-15.961 4.3 1.171 6.27 3.3 8.07 7.363 2.25 5.137 2.21 11.199.7 16.508-1.14 3.992-5.34 12.691-11.05 11.121M1544.66 648.262c-.53 0-1.09 0-1.62-.02-2.35-.031-4.55-2.652-5.28-4.613-1.23-3.34-1.5-6.578-3.78-8.699-2.38-2.2-1.07-8.27 1.83-9.442 4.22-1.699 5.62-4.226 10.35-4.269 3.56 0 5.56 4.742 6.21 7.5l.54 2.293c1.31 5.609-.54 17.34-8.25 17.25M1598.21 808.41c-6.4-6.558-6.08-20.531-.85-27.668 1.5-2.051 4.18-2.722 5.92-.582 2.43 2.961 4.89 5.621 6.63 9.09 3.33 6.672-2.23 28.859-11.7 19.16M1570.48 1022.46c-3.8 2.93-7.06-1-7.88-4.6-1.01-4.43-.05-10.61 3.77-13.56 1.4-1.08 3.21-1.44 4.78-.5.29.18.42.27.64.4.08 0 .11-.04.26-.02 4.57.32 3.6 8.31 2.4 10.88-.03.05-.03.03-.05.07-.11.47-.25.9-.45 1.6-.6 2.13-1.66 4.33-3.47 5.73M1543.62 939.48c-2.09.84-3.93 1.122-6.08.391-4.61-1.562-7.38-4.859-8.58-9.492-4.48-7-.86-18.508 4.29-23.688-.82.899-1.62 1.797-2.42 2.719 1.68-3.488 6.3-9.91 11.2-8.488 5.36 1.547 7.14 3.797 9.96 8.519 5.17 8.629 1.4 26.09-8.37 30.039M1646.83 897.762c-2.09-9.133-.13-32.301 12.67-34.293 2.41-.367 4.81-1.008 7.24-.438 12.17 2.93 11.48 19.5 9.38 28.899-1.49 6.75-4.56 13-10.57 16.711-9.45 5.851-16.57-1.379-18.72-10.879M1536.21 1138.32c-.38.25-.79.4-1.21.51-13.24 3.91-11.67-19.79-8.59-26.12 6.27-12.9 17.68-5.74 18.05 6.17.03.69.03 1.41-.04 2.11-.2 6.66-1.53 14.21-8.21 17.33M1625.9 1086.11c-.4.13-.8.23-1.19.39-7.57 2.44-5.67-12.01-3.4-15.12.36-.48.71-1 .99-1.53 3.07-6.1 9.27-5.5 10.81 1.23 1.09 4.87-.44 15.18-7.21 15.03M-1.352 178.398l-.168-.226c-11.027-17.192-10.46-46.942 6.95-60.41 6.98-5.422 15.62-4.442 21.191 2.429 8.715 10.688 8.961 28.028 5.102 40.61-.032.14-.082.281-.117.41-2.231 7.32-5.723 14.801-11.95 19.629-6.32 4.902-16.27 4.961-21.008-2.442M-13.219 256.199c.051-.418.11-.82.168-1.23.875-6.918 7.098-23.367 17.149-17.278 10.379 6.27 7.68 25.5 1.425 33.52l-.625.828c-10.914 14.012-19.394-5.758-18.117-15.84M65.063 315.281c-1.833-1.41-4.149-2.941-5.606-4.722-1.805-2.219-2.36-6.5-4.691-8.219-3.325-2.442-2.848-10.531 1.382-11.969 1.801-.609 2.957-2.16 4.418-3.371 2.633-2.219 5.04-3.051 8.223-4.219 4.188-1.543 7.774 1.969 9.336 5.469 3.762 8.422 2.234 16.32-2.738 23.82-1.961 2.969-6.95 5.801-10.324 3.211M188.563 169.48c-2.102-4.628-2.504-10.031-1.782-15.101.117-1.129.403-2.57.871-4.168.028-.102.047-.231.063-.332.019-.047.058-.129.078-.199.035-.141.074-.231.117-.352.18-.59.43-1.25.738-1.996 1.625-4.211 4.219-8.473 7.5-10.152h.059c.668-.328 1.32-.61 2.039-.7.836-.128 1.688-.101 2.574.2l2.192.761c8.726 2.969 10.09 14.868 7.375 22.688-.344.973-.668 1.93-1.008 2.902-3.227 9.301-14.496 20.367-20.816 6.449M227.48 54.512c-4.648-5.852-3.988-15.364-.91-21.703 2.457-5.059 8.817-9.957 13.442-4.13 4.64 5.833 3.996 15.333.906 21.7-2.457 5.05-8.813 9.96-13.438 4.133M143.461 47.77c-7.863 1.832-9.578-9.11-8.965-14.52.449-3.98 5.531-17.422 12.012-12.121 1.89 1.55 4.707.781 6.566 2.953 1.832 2.156 2.438 4.617 2.137 7.469-.773 6.75-4.563 14.52-11.75 16.219M77.523 97.23c-4.73-5.968-4.074-15.628-.921-22.128 2.5-5.16 8.984-10.141 13.695-4.204 4.734 5.973 4.082 15.653.93 22.133-2.5 5.168-8.985 10.149-13.704 4.2M101.191 226.621c-13.441-16.922 4.879-70.781 23.161-47.73 13.437 16.918-4.883 70.757-23.161 47.73M487.008 1140.33c-.067.08-.149.14-.227.23-.551.6-1.121 1.12-1.793 1.49-.32.2-.711.23-1.062.36-.504.14-.965.37-1.524.37-.984.01-2.058-.2-3.242-.78a93.02 93.02 0 0 0-2.265-1.11c-4.067-1.98-3.786-9.22-2.75-12.69.382-1.33.765-2.66 1.148-3.98 2.727-9.25 12.984-13.25 15.641-1.57.214.96.273 2.26.273 3.67.059-.08.125-.16.184-.24-.036 1.51-.282 3.62-.778 5.84-.633 3.22-1.824 6.32-3.605 8.41M565.02 1063.95c-8.247 3.73-7.282-13.5-5.555-16.9 1.355-2.7 1.469-5.96 2.199-8.86.918-3.64 3.75-9.43 7.941-10.34.516-.09 1.032-.22 1.54-.33 11.882-2.57 9.812 16.6 7.453 22.67-2.313 5.93-7.754 11.13-13.578 13.76M490.508 985c-10.559 4.199-9.156-16.66-6.969-21.16 1.719-3.531 5.734-7.809 10-5.231 2.441 1.481 3.602 4.071 4.152 6.852 2.997 3.43 2.789 9.609-.035 13.078-1.926 2.34-3.676 5.082-7.148 6.461M581.07 879.629c.098.359.215.703.321 1.051-3.664-6.918-1.215-19.489 6.347-22.821a2.866 2.866 0 0 1 1.524-.418c10.582-1.402 11.324 13.301 9.285 20.45-2.965 10.398-14.547 14.789-17.477 1.738M704.57 438.34c-.359.031-.707.07-1.058.101-2.742-.429-4.965-1.769-6.664-3.961-1.25-1.941-2.539-3.839-3.543-5.878-4.082-8.391-2.934-19.793 1.043-27.93 2.617-5.383 9.925-13.621 16.675-8.711 6.887 4.98 8.59 11.848 9.442 20.039 1.101 10.66-4.063 25.09-15.895 26.34M764.898 513.488c-3.351-1.859-2.179-4.699-3.195-7.5-.887-2.457-.308-10.929 4.235-8.769.121-.11.246-.219.351-.328 2.149-.45 3.899.738 4.695 2.75.086.218.188.449.278.691 1.375 3.457.254 16.746-6.364 13.156M829.605 454.18c-.8-1.078-1.601-2.16-2.382-3.25-3.012-1.918-2.184-8.828 1.152-10.039.082-.02.145-.051.234-.09.934-4.93 3.508-12.492 9.661-11.961.265.019.535.039.796.07 8.516.731 8.168 14.781 6.602 20.309-2.332 8.133-10.828 14.781-16.063 4.961M763.238 414.832c-2.562-5.652-1.656-13.551 2.114-18.48 1.402-1.821 3.535-3.473 5.988-3.161.496.051.762.09 1.027.118a37.15 37.15 0 0 1 1.617-.067c6.512-.262 5.047 12.379 3.434 15.52a1.23 1.23 0 0 0-.133.289c-.469 2.5-1.344 4.929-2.972 7.07-3.45 4.469-8.743 3.848-11.075-1.289M948.609 1321.02c-10.765-13.57 3.93-56.74 18.579-38.27 10.781 13.56-3.918 56.74-18.579 38.27M977.035 1236.04c-7.113-4.31-8.597-15.57-7.465-22.95.016-.17.035-.33.071-.5 1.195-7.88 8.093-27.03 19.789-19.94 10.433 6.31 9.218 25.18 4.336 34.35-.082.13-.168.28-.235.41-3.035 5.69-9.316 12.98-16.496 8.63M916.316 1236.55c-11.117 6.91-14.23-8.93-13.859-16.69.027-.76.063-1.52.109-2.27.286-6.05 3.918-15.15 10.332-17.13 5.969-1.83 8 .39 12.782 3.36 7.851 4.89 4.715 19.6-2.164 23.96-2.036 3.27-3.786 6.64-7.2 8.77M795.145 1352.79c-3.133-3.94 1.132-16.48 5.402-11.11 3.113 3.93-1.133 16.47-5.402 11.11M22.488 753.672c-7.156 3.156-12.117-6.133-13.34-11.473-1.84-8.097-.628-19.129 4.977-25.66 3.477-4.039 6.512-7.168 12.207-6.699 5.656.43 8.672 7 9.734 11.699 2.004 8.801.024 17.93-4.918 25.359-2.261 3.403-5 5.161-8.66 6.774M58.535 885.129c-4.8-6.027-3.945-15.027-1.094-21.488 5.121-.641 10.254-1.27 15.387-1.911a20.21 20.21 0 0 1 1.625 7.239c.2 4.082-.555 8.332-2.347 12.011-2.477 5.102-8.899 10.051-13.57 4.149M182.234 756.359v.02c-.218 1-.308 1.453 0-.02" fill="#fffbe1"/><path d="M188.598 768.488a2.651 2.651 0 0 0-1.45-.097c-4.605.05-5.222-6.129-4.937-10.539-.039-.493.023-.993.023-1.473.11-.52.25-1.18.383-1.84.012-.019.012-.039.016-.039-.172.832-.309 1.422-.399 1.859-.015-1.199-.101-2.359.051-3.66.485-4.32 2.539-10.398 7.188-11.918 4.328-1.41 7.601 3.301 8.16 7.02.062.469.133.91.199 1.371.684 4.637-.426 21.598-9.234 19.316M87.844 751.789c-.223-.219-.418-.43-.617-.617-6.012-5.961-3.028-25.07 7.046-24.942h.79c14.132.2 5.191 37.872-7.22 25.559M72.54 655.191c-.313.079-.63.129-.954.188-3.066.609-5.426-.188-7.57-2.027-8.883-8.262-9.653-33.391 4.586-37.321 4.613-1.281 7.761.258 10.851 3.801 6.762 7.777 5.805 32.887-6.914 35.359M62.523 652.289c.465.551.996.66 1.493 1.063.09.097.148.238.257.339-.593-.472-1.18-.929-1.75-1.402M1288.16 182.898c-1.72 1.161-4.61 2.321-6.49.672-3.45-3.031-5.87-5.898-5.01-10.898 1.1-6.453 2.36-11 7.25-15.531 4.95-4.559 9.76 1.8 10.78 6.269 1.3 5.692.23 14.961-5.15 18.57-.47.329-.93.622-1.38.918M1489.4 131.551c-.33.129-.68.301-1.03.441-3.56 1.488-7.53-1.844-8.59-5.043.16.129.34.231.53.371-4.35-6.351-4.68-23.261 5.01-25.718 1.35-.364 2.7-.473 4.08-.383 5.4.402 7.67 8.07 7.67 12.441v1.762c-.01 5.93-1.5 13.566-7.67 16.129M1514.17 237.16c-10.3 5.5-9.5-19.269-5.34-23.762 1.47-1.597 2.84-3.039 4.72-4.168 5.41-3.269 9.41.731 10.64 6.2 1.51 6.59-.31 13.558-5.07 18.32-1.52 1.531-3.06 2.41-4.95 3.41M1448.58 179.98c-8.73-11 3.17-45.992 15.03-31.019 8.73 11-3.17 46-15.03 31.019M1440.5 57.969c-.33.031-.67.07-1 .101-4.73.532-7.28-1.27-9.45-5.539-.41-.8-.83-1.59-1.23-2.43-3.03-5.902-2.07-14.261.74-20.03 1.81-3.731 7.21-9.91 11.96-6.262 5.63 4.332 7 8.78 7.69 15.761.52 5-1.94 17.61-8.71 18.399M1560.42 101.859c-.25-3.699 1.24-11.379 5.83-12.34.83-.16 1.66-.328 2.47-.488 9.46-1.941 10.76 12.801 8.57 18.86-.76 2.039-1.34 3.918-2.67 5.668-5.28 6.863-13.35 1.421-14.2-11.7M1603.13 228.262c.4 1.758.25 1.597-.49-.571-2.48-6.211-2.21-13.5.74-19.543 2.18-4.5 9.66-10.949 13.78-4.218 5.64 9.218 6.51 23.332-2.75 30.879-5.53 4.48-9.93-1.68-11.28-6.547M1654.98 344.18c-5.4-4.282-7.08-9.45-6.31-16.379.51-4.711 7.35-18.391 13.2-9.992 1.24 1.793 2.16 3.711 3.13 5.66 2.45 4.89-1.04 27.82-10.02 20.711M1398.3 108.629c-5.34-6.719 1.93-28.078 9.2-18.938 5.31 6.7-1.96 28.071-9.2 18.938M1363.59 201.141c-4.98-6.289 1.82-26.25 8.6-17.7 4.98 6.258-1.82 26.219-8.6 17.7M372.793 650.309l-1.074-1.348c-5.332-6.723-4.59-17.602-1.031-24.91 2.812-5.781 10.097-11.422 15.41-4.723l1.074 1.371c5.328 6.699 4.586 17.59 1.035 24.891-2.816 5.781-10.105 11.402-15.414 4.719M443.629 645.289c-5.973 1.672-8.59-5.269-9.024-10.078-1.367-5.051.192-18.422 6.989-16.68 1.426-.699 2.957-1.101 4.683-.672 7.922 2 7.625 14.59 4.477 20.301-1.746 3.141-3.43 6.129-7.125 7.129M1011.16 875.602c-4.73-5.973-4.07-15.641-.92-22.133 2.5-5.149 8.98-10.129 13.72-4.199 4.71 5.968 4.06 15.652.91 22.128-2.51 5.172-8.98 10.153-13.71 4.204M924.98 910.289c-.285-6.32.883-17.109 8.665-18.629 2.98-.578 4.699 1.172 5.632 3.57 5.664 5.032 2.934 18.258-.718 22.989-6.512 8.492-13.246-.578-13.579-7.93M961.57 816.332l-.449-1.852c-1.25-5.199.688-22 9.617-20.101.399.09.801.172 1.2.269 9.531 2.032 8.332 16.993 5.179 23.461-4.363 8.961-13.265 7.75-15.547-1.777M1104.74 547.109c-.24-.558-.49-1.129-.74-1.699-2.93-6.699-2.4-17.109 2.64-22.828.09-.102.16-.191.26-.293 2.59-2.937 5.12-4.32 8.88-2.738 2.4.969 3.5 3.48 4.09 5.871.43.078.88.18 1.31.289 3.7 6.57 1.77 17.23-2.64 22.969-4.24 5.539-10.95 4.922-13.8-1.571M1164.17 511.52c-4.63-5.848 1.68-24.43 7.98-16.461 4.65 5.832-1.66 24.402-7.98 16.461M1111.04 472c-4.64-5.828 1.67-24.398 7.97-16.461 4.65 5.832-1.68 24.402-7.97 16.461M1149.02 384.75c-1.59-1.078-2.79-2.32-4-3.828-3.69-4.652-3.16-12.223-.69-17.293 1.94-4.02 6.99-7.918 10.69-3.277 1.3 1.66 2.4 3.308 3.27 5.257 2.15 4.7-.23 25.133-9.27 19.141M1001.18 161.391c-4.403-5.551 1.6-23.172 7.58-15.641 4.4 5.559-1.6 23.191-7.58 15.641M649.027 1411.71c-11.976-.75-1.543-27.58 5.149-18.96.199-.06.222-.07.496-.16 6.808-2.73 5.496 11.48 3.219 14.25-2.657 3.21-4.598 5.13-8.864 4.87M140.02 1104.41c-1.18-4.06-.981-7.9-.801-12.07.445-9.7 9.605-21.5 17.304-15.82-.121-.16-.25-.31-.378-.47.261.19.511.4.765.57.082.06.129.14.203.23.059.03.11.1.176.15 8.41 6.74 7.699 20.94 3.41 29.77-6.027 12.39-17.121 9.81-20.679-2.36M219.922 1105.55c-6.949-8.74 2.519-36.6 11.976-24.69 6.954 8.75-2.519 36.6-11.976 24.69M231.363 1135.48c-2.773-3.49 1.008-14.64 4.797-9.87 2.778 3.49-1.015 14.65-4.797 9.87" fill="#fffbe1"/><path d="M4427.37 4533.22c-97.32-159.41-153.93-329.33-71.14-508.41 307.22-660.67 1201.76-783.08 1562.97-105.47 91.68 171.95 116.07 368.53 12.61 539.18-103.28 170.14-277.13 328.65-434.84 447.62-156.61 118.24-337.78 171.23-528.58 111.99-232.46-72.26-418.82-284.61-541.02-484.91" fill="#f46f73"/><path d="M5797.23 4212.62l1.11-1.44c6.38-8.35 24.05-6.1 31.55-1.17 9.45 6.21 4.75 16.19-4.82 18.74l-2.36.59c-9.58 2.55-36.98-1.79-25.48-16.72M5599.08 4167.02c3.44-9.67 28.35-3 20.31 6.05-1.13 1.28-2.52 2.17-3.78 3.33-3.44 3.13-11.17 3.08-14.26-.6-2.48-2.95-3.61-5.03-2.27-8.78M5727.57 4158.52c5.87-5.4 16.08-5.47 23.12-2.67 5.58 2.22 11.32 8.63 5.49 14.04-5.92 5.41-16.09 5.47-23.14 2.68-5.6-2.22-11.34-8.64-5.47-14.05M5844.62 4040c-.39 1.26-.41.94-.06-.85 1.3-11.06 18.2-10.22 25.6-7.7 3.28 1.14 6.4 2.41 9.22 4.47 4.64 3.44 8.72 10.52 2.62 15.17l-1.31.96c-8.68 6.61-20.36 6.26-29.67 1.11-.52-.29-1.07-.57-1.59-.9-4.92-2.72-6.25-7.24-4.81-12.26M5888.61 4151.35c2.84-1.41 5.74-2.49 8.63-3.66 6.86-2.71 16.14-1.72 22.81.91 3.96 1.56 12.2 6.52 10.72 12.19-.25.88-.47 1.76-.56 2.71-.52 3.8-2.52 6.33-5.11 8.29-5.83 6.46-17.06 8.2-24.91 6.04-6.65-1.81-11.27-3.9-16.11-8.75-6.03-6.03-2.12-14.43 4.53-17.73M5298.07 3890.3c7.19-6.66 19.74-6.75 28.39-3.3 6.88 2.73 13.94 10.6 6.73 17.26-7.21 6.66-19.76 6.74-28.41 3.3-6.89-2.73-13.92-10.6-6.71-17.26M5189.58 3924.95c8.99-4.92 22.92-3.81 29.79 4.24 3.42 3.29 4.79 7.88.7 11.72-5.44 5.17-13.7 5.13-20.59 4.15-2.38-.35-4.65-1.06-6.77-2.17-7.84-3.96-13.33-12.36-3.13-17.94M5220 3836.57c6.87-6.34 30.65-.15 21.32 8.47-6.87 6.31-30.66.16-21.32-8.47M5264.49 3975.52c8-7.41 21.92-7.48 31.52-3.66 7.63 3 15.47 11.75 7.47 19.12-8.02 7.42-21.94 7.49-31.54 3.67-7.61-3.01-15.46-11.75-7.45-19.13M5187.51 4029.53c5.63-3.06 19.38-3.89 24.64 2.15.96.66 1.76 1.46 1.95 2.5.17.73.32 1.41.48 2.09 1.81 8.25-8.12 10.45-14.39 10.46-3.58-.05-6.73-.94-10.06-2.12-7.42-2.6-10.43-10.79-2.62-15.08M5408.87 3981.43c1.16-2.3 2.62-4.21 4.37-6.15 6.62-7.18 20.71-6.61 28.9-3.33 6.4 2.52 14.82 11.26 6.85 17.53-2.37 1.87-4.75 3.53-7.43 4.88-7.73 4-40.83 3.21-32.69-12.93M5330.3 3828.36c9.7-8.94 43.38-.22 30.15 11.98-9.72 8.94-43.38.22-30.15-11.98M5141.31 3822.4c0-.37.09-.79.26-1.12-2.13-9.36 12.6-9.79 18.25-7.57 9.88 3.97 4.66 11.94-3.47 13.27-.62.18-1.25.39-1.9.56-3.4 1.04-13.71.67-13.14-5.14M5104.88 3643.7c-.54-.49-1.33-.8-1.77-1.3-2.28-2.51-2.82-4.89-2.39-7.01.04.04.04.08.05.12.01-.08-.03-.12-.02-.2.03-.17.1-.34.17-.5.21-1.13 1.04-2.25 1.94-3.38 3.17-3.44 8.83-5.81 12.99-6.34 6.56-.8 13.91.25 19.5 3.9 2.68 1.8 8.6 8.36 4.71 11.98-.54.49-1.14.79-1.68 1.24-.09.21-.06.37-.16.58-1.47 2.9-4.51 4.03-7.33 5.07-3.33 1.29-7.48 1.53-11.66 1.17-.43-.01-.88-.01-1.34-.06-2.35-.31-4.59-.91-6.76-1.72-.33-.09-.64-.11-.97-.25-.09-.04-.15-.07-.24-.11-1.23-.55-2.22-1.25-3.28-1.94-.62-.41-1.18-.77-1.76-1.25" fill="#fffbe1"/><path d="M5100.75 3635.31c-.02.05-.04.05-.03.08-.51-1.1.15-2.71 2.86-5.21-.42.41-.37.85-.72 1.25-.94 1.05-1.59 2.16-1.94 3.38-.03.16-.14.33-.17.5M5197.72 3646.17c-2.41-.5-4.07-1.89-4.46-4.23-.02-.04-.04-.03-.07-.08-.56-1.5-1.11-3.05-1.71-4.6-2.22-6 9.2-5.22 11.93-3.59 1.88 1.12 3.77 2.23 5.65 3.35.2.11.19.23.36.34.65.48 1.18.93 1.45 1.48 1.83 2.43-.15 4.71-3.63 6.17-2.82 1.58-6.49 2.23-9.52 1.16M5170.04 3545.64c8.76-9.51 37.87 1.2 26.52 10.52-.06.04-.06 0-.11.05 3.37 9.5-22.47 11.04-28.03 4.44-4.81-5.67-2.98-10.02 1.62-15.01M4474.14 4089.96c6.83-2.75 25.01-3.81 24.48 7.68-.02.45-.39.68-.49 1.06-.4 1.14-1.03 2.86-1.09 2.95-2.74 8.06-17.72 7.07-23.56 4.75-10.35-4.09-8.51-12.74.66-16.44M4742.31 4014.79c6.54-6.03 17.84-6.1 25.67-2.99 6.2 2.45 12.56 9.56 6.04 15.55-6.52 6.03-17.82 6.1-25.64 2.99-6.21-2.45-12.57-9.55-6.07-15.55M4775.73 4053.01c7.93-7.28 35.37-.16 24.6 9.76-7.91 7.33-35.37.21-24.6-9.76" fill="#fffbe1"/><path d="M5181.49 3662.53c-8.85-112.35-100.99-223.31-234.72-282.74-144.75-64.28-297.53-51.55-408.66 34.12-83.83 64.57-129.09 164.23-121.04 266.64 6.34 80.69 45.24 153.89 109.53 205.98 141.15 114.32 362.76 123.24 515.48 20.78 124.54-83.59 144.56-179.26 139.41-244.78" fill="#fab8bf"/><path d="M4374.39 3683.85c-9.18-116.81 42.25-230.43 137.56-303.89 123.82-95.39 292.85-110.07 452.2-39.28 147.91 65.71 249.98 190.7 260.02 318.5 4.95 62.96-9.03 183.54-158.24 283.66-167.68 112.52-411.11 102.64-566.27-23.05-73.51-59.59-117.99-143.36-125.27-235.94zm85.36-6.71c5.14 65.52 35.95 129.24 93.81 176.13 127.48 103.26 329.27 109.32 464.67 18.45 92.26-61.87 126.15-135.09 120.59-205.83-15.96-203.16-357.32-385.5-574.59-218.09-75.27 57.97-111.1 145.1-104.48 229.34" fill="#fff"/><path d="M4606.36 3592.61c12.71-11.74 34.79-11.86 50.06-5.79 12.06 4.81 24.47 18.66 11.8 30.33-12.72 11.74-34.76 11.9-50.03 5.84-12.1-4.81-24.5-18.65-11.83-30.38M4587.54 3690.14c9.29-8.56 25.41-8.65 36.51-4.21 8.84 3.5 17.9 13.57 8.65 22.13-9.28 8.55-25.41 8.65-36.51 4.26-8.81-3.55-17.87-13.63-8.65-22.18M4657.08 3731.92c.4-1.37.78-2.81 1.12-4.23 3.94-14.67 24.36-15.61 36.27-10.85 15.25 6.08 13.01 19.28-.96 24.63-2.02.77-4.03 1.54-6.03 2.32-6.39 2.4-33.76.86-30.4-11.87M4702.32 3663.78c-.2-.48-.41-.92-.6-1.35-1.01-2.15.14-3.86 1.41-5.47.72-.9 1.43-1.74 2.11-2.63 7.1-8.89 32.08.89 19.32 9.89-3.55 2.51-6.45 3.64-10.82 3.98-3.89.31-9.47-.32-11.42-4.42M4926.56 3664.17c11.29-10.39 30.93-10.54 44.44-5.12 10.76 4.25 21.79 16.58 10.5 26.97s-30.89 10.53-44.43 5.17c-10.74-4.3-21.77-16.57-10.51-27.02" fill="#fffbe1"/><path d="M3226.03 297.672c-161.05 270.109-447.25 398.578-692.87 412.918-284.09 16.558-490.88-208.82-633.19-447.559C1820.2 129.16 1755.36-29.762 1754.98-209c-.15-75.961 16.74-160.238 54.52-231.07 39.83-74.668 101.51-130.942 164.38-175.77 152.38-108.64 332.15-156.129 495.87-179.019 168.33-23.52 327.72-1.282 468.79 78.148 151.28 85.223 261.9 233.859 323.8 417.801 61.36 182.301 80.47 400.699-36.31 596.582" fill="#faba62"/><path d="M3089.31 33.629c-4.03-1.75-5.87-7.828-5.58-12.918.22-4.063 2.69-9.512 6.68-7.762 4.02 1.77 5.87 7.832 5.59 12.922-.22 4.05-2.69 9.508-6.69 7.758M3042.29 77.262c-6.66-3.461-9.61-15.082-3.39-23.051 4.52-5.73 7.96 1.531 9.15 7.75.78 2.379 1.2 5.039 1.03 7.43-.19 3.859-2.78 9.96-6.79 7.87M3003.42 155.801c-.16.281-.37.488-.53.738-.49.539-.99.981-1.56 1.332-.39.27-.77.539-1.2.66-.97.301-1.99.348-3.07-.101-4.37-1.84-6.63-7.86-7.13-13.16-.32-3.071-.13-6.59 1.28-9.68.67-1.481 3.5-5.352 5.23-4.309 3.64 2.231 5.44 2.129 7.41 6.539.03.071.05.168.08.258.37.754.71 1.731 1.07 3.113.05.278.08.547.13.848.17.762.26 1.551.34 2.352.13.961.19 1.949.19 2.968-.02.379.08.7.06 1.039-.03.524-.21 1.102-.3 1.653-.07.539-.01 1.097-.14 1.621-.34 1.578-1.05 2.937-1.86 4.129M3047.13 140.289c-4.43-1.961-5.26-17.277.78-14.617 4.44 1.969 5.26 17.269-.78 14.617M3081.12 111.41c-5.31-2.34-6.3-20.64.94-17.45 5.3 2.33 6.28 20.642-.94 17.45M3009 21.29c-6.51-2.868-7.72-25.278 1.12-21.38 6.54 2.871 7.7 25.262-1.12 21.38M2982.5 79.02c-5.05 2.68-8.01-5.649-8.43-9.711-.4-4.118 1.42-12.258 6.43-10.16 1.14.542 2.1 1.39 2.85 2.5-1.34-1.598-1.35-1.887-.04-.868 1.35 1.2 2.28 3.418 2.39 5.528.13 2.652 1.14 10.37-3.2 12.71M2934.27 51.809c-.01.03-.01.07-.02.101-6.12 5.55-10.2-5.719-9.72-11.14.19-2.07.41-3.989 1.51-5.872 1.88-3.218 4.34-3.898 6.65-1.886 2.5 2.25 3.63 6 3.66 9.918.04.21.1.379.13.59-.05.332-.09.8-.12 1.332.09-.543.13-.954.17-1.223.62 3.062.45 6.652-2.26 8.18" fill="#fffbe1"/><path d="M2936.53 43.629c-.02-.047-.03-.078-.05-.11.11-.648.17-.757.05.11M3175.96 64.852c-.15.32-.36.59-.6.84-7.17 8.16-12.19-8.172-11.91-13.653.62-11.168 9.48-11.258 12.71-3.527.2.437.39.918.52 1.41 1.56 4.476 2.65 10.027-.72 14.93M1984.38 78.102l-.16-.09c-11.15-6.73-18.33-26.64-11-42.89 2.95-6.52 8.52-9.5 13.69-7.313 8.1 3.382 12.62 14.742 13.42 24.71.01.102.03.22.05.313.46 5.777.19 12.188-2.43 18.008-2.65 5.91-8.77 10.16-13.57 7.262M1996.72 134.52c-.07-.27-.14-.559-.19-.872-1.23-4.949-1.53-18.437 6.18-18.636 8.01-.242 11.21 13.617 9.38 21.558l-.18.828c-3.18 13.832-13.43 4.352-15.19-2.878M1954.63 158.832c-.15.078-.31.148-.48.227a2.386 2.386 0 0 1-2.8-.508c-2.84-3.16-3.43-7.321-1.94-12.281 2.66-9.02 10.78 2.089 7.11 8.191-.01.008-.01.008-.04.051.03 1.797-.39 3.609-1.85 4.32M2059.98 140.609c-1.48-.16-3.32-.187-4.66-.738-1.68-.723-3.1-3.312-4.96-3.473-2.69-.207-4.45-5.75-2.19-8.5.97-1.148 1.28-2.66 1.88-4.089 1.07-2.59 2.34-4.149 4.01-6.25 2.18-2.789 5.3-1.989 7.15-.329 4.45 3.989 5.5 9.86 4.32 16.918-.44 2.782-2.82 6.75-5.55 6.461M2059.86 66.762c-12.58-5.531-14.89-48.871 2.22-41.332 12.58 5.52 14.86 48.86-2.22 41.332M1917.64 72.79c-1.08 4.66-3.96 9.23-8.31 7.32 2.56-4.348 4.58-7.41 6.01-9.27-.84-5.559-1.66-11.14-2.5-16.711 1.43 1.34 2.58 2.992 3.41 4.953 1.42 3.149 2.14 6.95 1.91 10.809 0 .058-.02.129-.03.191-.02.59-.1 1.297-.29 2.27-.03.18-.15.296-.2.437M2528.99 508.41c-.02.07-.04.149-.07.25-.2.61-.41 1.211-.72 1.731-.15.269-.4.461-.57.679-.28.309-.5.641-.87.899-.58.422-1.32.742-2.18.851-.58.059-1.12.141-1.67.211-3.03.399-4.69-4.492-4.93-7.23-.08-1.039-.19-2.09-.27-3.102-.67-7.277 4.63-14.238 9.24-7.64.38.531.74 1.382 1.08 2.312.05-.082.05-.172.07-.242.36 1.019.73 2.512 1 4.203.42 2.379.47 4.93-.11 7.078M2557.83 425c-4.15 5.961-7.9-5.852-7.7-8.82.15-2.36-.61-4.571-.9-6.789-.34-2.789-.06-7.821 2.31-10.2.27-.25.57-.57.85-.851 6.69-6.711 10.25 6.84 10.34 11.84.06 4.91-1.96 10.621-4.9 14.82M2491.88 404.211c-5.45 7.211-9.87-7.16-9.64-11.063.15-3.058 1.55-7.597 4.83-7.679 1.89-.047 3.25 1.172 4.31 2.793 2.72 1 4.14 5.168 3.28 8.648-.6 2.379-.99 4.918-2.78 7.301M2521.13 296.34c.15.199.3.39.46.558-4.01-3.027-5.68-12.367-1.85-17.769.21-.379.48-.68.84-.93 6.16-5.347 10.33 4.031 10.88 9.653.81 8.117-5.23 15.878-10.33 8.488M2859.56 433.34c-10.07-4.449-11.91-39.192 1.78-33.141 10.1 4.41 11.94 39.172-1.78 33.141M2855.61 365.16c-5.49.16-9.24-6.672-10.41-12.031a1.459 1.459 0 0 1-.08-.348c-1.25-5.73-1.83-21.301 7.17-21.543 8.04-.226 12.05 12.774 11.36 20.883-.03.129-.04.27-.04.359-.43 5.051-2.47 12.532-8 12.68M2818.29 391.082c-5.15 9.27-11.06.098-12.79-5.203-.18-.5-.36-1.02-.51-1.551-1.35-4.109-1.4-11.668 2.02-15.668 3.24-3.73 5.05-3.109 8.77-3.172 6.05-.058 7.85 10.973 4.72 16.762-.43 3.02-.68 6-2.21 8.832M2772.88 519.031c-2.92-1.301-3.47-11.371.54-9.621 2.88 1.301 3.46 11.36-.54 9.621M2144.55 448.48c-3.6 5.102-9.02 1.059-11.12-1.96-3.19-4.59-5.23-12.391-3.42-19.079 1.12-4.14 2.19-7.472 5.82-9.562 3.61-2.09 7.13.973 8.97 3.633 3.48 4.968 4.56 11.847 3.38 18.84-.54 3.218-1.76 5.519-3.63 8.128M2200.05 520.219c-4.49-1.949-6.25-8.27-6.12-13.739 3.01-2.589 6.02-5.171 9.01-7.75 1.18 1.122 2.13 2.461 2.85 4.09 1.14 2.61 1.75 5.762 1.58 8.95-.25 4.41-2.95 10.39-7.32 8.449M2243.81 382.93l.01.011c.11.75.18 1.098-.01-.011" fill="#fffbe1"/><path d="M2250.82 388.27c-.34.082-.64.269-.93.562-2.82 1.957-4.77-1.871-5.71-4.902-.14-.309-.23-.668-.36-.989-.06-.39-.15-.882-.24-1.359.02-.023.01-.043.01-.031.1.609.17 1.058.22 1.379-.31-.789-.65-1.532-.9-2.442-.79-3.058-1.04-7.949 1.44-10.918 2.31-2.75 5.53-1.019 6.8 1.2.18.281.32.562.49.832 1.57 2.789 5.19 14.468-.82 16.668M2184.4 419.699a2.688 2.688 0 0 0-.52-.168c-5.23-1.402-8.22-15.301-1.97-19.461.17-.101.34-.199.5-.332 8.76-5.808 12.78 22.864 1.99 19.961M2150.54 362.262c-.17.168-.36.347-.54.539-1.75 1.691-3.38 2.14-5.2 1.84-7.54-1.731-14.37-18.032-6.59-26.621 2.52-2.79 4.85-3.079 7.65-2.059 6.14 2.309 11.92 19.301 4.68 26.301M2143.62 364.559c.44.16.8.011 1.18.082.09.031.17.089.25.097-.47-.039-.94-.117-1.43-.179M2334.59 232.469l-.99-.438c-4.99-2.191-7.29-9.699-6.93-16.043.25-4.988 3.33-11.797 8.31-9.597l1.01.449c4.98 2.18 7.27 9.691 6.93 16.019-.28 4.993-3.35 11.801-8.33 9.61M2377.03 199.309c-3.25 3.621-6.61.132-8.1-2.86-2.12-2.777-4.54-12.258.09-13.988.71-1.063 1.54-1.981 2.73-2.422 5.4-2.019 8.39 6.441 7.88 11.551-.27 2.808-.55 5.488-2.6 7.719M2785.53 112.398c-4.44-1.937-6.47-8.617-6.17-14.238.24-4.469 2.98-10.488 7.4-8.582 4.41 1.992 6.48 8.653 6.16 14.274-.24 4.468-2.96 10.488-7.39 8.546M2741.12 171.66c-1.78-4.051-3.78-11.691.63-15.961 1.68-1.64 3.19-1.207 4.37-.008 4.78.918 6.44 10.829 5.38 15.5-1.88 8.36-8.33 5.2-10.38.469M2739.93 94.102l-.75-1.02c-2.07-2.934-5.12-14.84.85-17.34.28-.113.54-.23.82-.344 6.39-2.68 9.44 7.73 9.13 13.34-.43 7.774-6.22 10.711-10.05 5.364M2697.61 619.57c-7.57 4.551-7.93-17.558-1.61-14.699.09-.109.1-.141.25-.32 3.53-4.672 6.3 5.289 5.59 8.078-.82 3.242-1.53 5.332-4.23 6.941M2305.77 630.891c-1.76-2.172-2.61-4.809-3.55-7.621-2.17-6.61.5-18.29 6.68-17.77-.12-.039-.21-.109-.35-.16.22.019.41.07.63.058.05.012.11.051.18.071.05-.02.09.031.14.019 6.9.922 10.05 10.614 9.63 18.25-.57 10.742-8.08 13.703-13.36 7.153M2355.38 597.98c-6.51-2.859-7.71-25.261 1.15-21.378 6.51 2.847 7.7 25.277-1.15 21.378M2370.01 612.941c-2.6-1.14-3.09-10.089.46-8.55 2.6 1.148 3.08 10.121-.46 8.55" fill="#fffbe1"/><path d="M3399.35 544.762c1.76-84.203-58.54-173.551-153.61-227.641-102.88-58.519-217.43-60.383-306.41-4.941-67.14 41.832-108.17 112.601-109.77 189.332-1.27 60.508 22.24 117.797 66.2 161.32 96.49 95.469 260.62 118.527 381.79 53.617 98.8-52.898 120.77-122.558 121.8-171.679v-.008" fill="#f46f73"/><path d="M2797.57 500.828c1.83-87.558 48.5-168.226 124.82-215.789 99.14-61.758 225.94-60.148 339.19 4.289 105.12 59.801 171.75 160.344 169.75 256.094-.98 47.199-20.31 135.84-138.68 199.226-133.03 71.262-313.34 45.872-419.39-59.07-50.26-49.769-77.14-115.379-75.69-184.75zm63.97 1.344c-1.02 49.066 17.17 98.75 56.72 137.918 87.16 86.242 236.76 105.691 344.19 48.16 73.2-39.199 103.8-91.16 104.91-144.148 3.19-152.262-237.14-313.141-411.12-204.762-60.27 37.551-93.38 99.699-94.7 162.832" fill="#fff"/><path d="M2976.83 450.16c10.33-7.781 26.76-6.23 37.66-.609 8.62 4.48 16.82 15.711 6.53 23.449-10.33 7.781-26.73 6.25-37.64.629-8.63-4.481-16.83-15.707-6.55-23.469M2955.62 521.289c7.53-5.668 19.53-4.57 27.47-.437 6.3 3.25 12.3 11.437 4.78 17.117-7.53 5.679-19.53 4.551-27.46.441-6.29-3.269-12.28-11.461-4.79-17.121M3004.23 557.52c.4-1.008.79-2.032 1.15-3.059 4.01-10.621 19.27-9.813 27.78-5.371 10.88 5.621 8.24 15.289-2.55 18.23-1.55.43-3.1.852-4.65 1.262-4.92 1.34-25.17-1.844-21.73-11.062M3042.93 510.211a49.43 49.43 0 0 0-.35-1.063c-.59-1.679.39-2.859 1.45-3.957.6-.621 1.19-1.203 1.77-1.8 5.94-6.082 23.79 3.039 13.63 8.781-2.82 1.609-5.07 2.238-8.34 2.168-2.91-.07-7.02-.949-8.16-4.129M3209.65 527.102c9.17-6.883 23.78-5.532 33.43-.5 7.69 3.949 14.98 13.929 5.81 20.828-9.16 6.89-23.76 5.539-33.43.55-7.66-3.992-14.95-13.96-5.81-20.878" fill="#fffbe1"/><path d="M3640.38-23.71c165.92-51.509 450.46-98.13 469.28-130.142 18.77-32.019-97.16-139.039-147.81-183.378-70.63-61.801-142.55-105.54-209.55-171.188-7.68-7.492-17.02-23.07-6.91-29.652 1.47-3.489 4.25-5.469 9.1-6.41 112.46-22.008 448.46-44.461 475.24 12.628 73.07 155.813 172.13 409.622 177.07 475.891 3.53 47.5-287.91 122.75-417.88 141.352-41.4 5.93 213.59 306.82 252.27 395.5 8.26 19.007-16.74 19.14-26.27 12.179-182.36-133.289-403.78-351-563.15-481.011-9.45-7.727-28.76-30.387-11.39-35.77" fill="#77d0b4"/><path d="M3919.45.922c.1.168.18.316.26.508 2.43 5.05.28 13.75-4.39 16.93-5.43 3.73-8.79-3.81-8.48-8.25l.06-.68c.41-5.989 7.49-19.13 12.55-8.508M3719.66 10.148c.53.172.96.454 1.29.954 7.08 6.91-1.69 27.109-8.32 18.449.05.07.08.12.12.18-6.88-4.372-2.12-23.461 6.91-19.583M3786.14 36.82c5.64 2.48 2.62 8.418-.95 11.34-3.37 2.77-4.7-6.422-1.38-8.469a.228.228 0 0 1 .09-.05c-.09-1.36.7-3.5 2.24-2.82M3801.1-7.559c1.32-1.28 3.05-2.421 4.86-1.18 2.65 1.798 2.97 5.098 2.88 8.028-.08 4.531-1.82 9.352-6.2 11.262-1.35.59-3.45-.02-3.66 0-5.05.59-4.65-7.762-2.75-10.551-.01 1.8.23 1.32.67-1.41a61.844 61.844 0 0 1 1.66-3.52c.55-1.11 6.46-6.441 2.54-2.629M4079.38 328.781c3.35-.871 4.86 1.66 5.37 4.77.28.629.44 1.57.41 3.051.01.519-.13 1.23-.32 2-.12 1.199-.31 2.308-.56 3.007-.68 1.93-1.96 4.102-3.8 5.25-1.69 1.422-3.61 1.629-5.51-1.089-3.14-4.489-1.79-15.379 4.41-16.989M4046.96 280.789c.17.492.35.992.52 1.5 1.7 4.832-1.34 23.91-10.09 17.949-.32-.226-.64-.449-.95-.66-5.5-3.726-3.91-13.578-1.21-18.379 2.83-5 9.38-7.109 11.73-.41M4067.83 282.039c1.17 2.57-1.44 13.922-5.65 10.102-3.44-3.153-6.4-7.59-4.21-12.5.67-1.469 1.24-2.032 2.39-3.032 4.15-3.679 6.52 3.289 7.47 5.43M4022.26 221.449c1.1 2.762 2.1 5.281 2.06 8.34-.04.512-.08.781-.09 1.16.28 1.981.76 3.891 1.25 5.852.59 2.398-1.1 7.66-4.34 6.23-2.39-1.039-4.25-.14-6.6.789-9.42 3.692-8.6-14.648-7.16-18.73 2.42-6.891 11-13.238 14.88-3.641M3974.39 251.672c.81-.043 1.59-.102 2.39-.16 5.08-.422 4.74 7.648 2.77 10.527-.59.859-1.17 1.711-1.75 2.59-7.95 12.062-12.9-12.508-3.41-12.957M3952.75 214.191c4.2 5.047 4.12 13.668-1.9 17.348-4.15 2.512-5.03-3.168-4.39-6.961-.11-.258-.22-.457-.35-.887-1.5-3.511 2.16-14.851 6.64-9.5" fill="#fffbe1"/><path d="M5355.29 2324.89c80.26-90.89 196.32-116.32 286.24-99.04 228.5 44.01 276.08 383.77 14.15 519.98-116.66 60.64-261.63 51.81-333.7-55.81-66.44-99.21-62.83-256.22 33.31-365.13" fill="#42405f"/><path d="M5575.19 2699.17c-1.58-.84-3.13-1.71-4.57-2.82-3.61-2.66-9.47-23.26 0-23.48 1.58-.02 3.09.13 4.6.4 4.99.92 7.52 9.76 7.5 15.52 0 4.44-2.79 12.95-7.53 10.38M5615.24 2692.47c-3.3-.04-4.4-2.29-6.28-5.2-1.11-1.69-2.2-4.99-.58-7.43.7-1.09 1.52-3.15 2.59-4.61 5.61-7.38 9.03 7.95 7.79 12.68l-.39 1.43c-.39 1.51-1.91 3.13-3.13 3.13M5634.04 2606.91c-.27.45-.54.94-.82 1.43-.74 1.03-1.62 1.62-2.65 1.76-.77 0-1.52.01-2.26-.02-2.39.01-3.45-2.81-3.97-5.28-.84-4.03-1.34-6.91-.46-11.28 2.71-13.79 16.93 1.79 10.16 13.39M5595.81 2653.97c-.75 4.84-3.24 9.05-7.39 5.76-3.88-3.08-7.59-14.82-1.53-19.91 2.65-2.23 5.59-.2 7.54 1.21 2.12 1.54 5.13 10.12 1.38 12.94M5419.68 2438.07c-.42.01-.85.01-1.27-.01-6.99-.12-10.68-9.72-10.7-17.74.04-8.11 4.84-14.65 10.7-10.55.42.31.85.58 1.27.89 4.28 3.03 10.85 27.61 0 27.41M5448.63 2367.11c-.84.25-1.67.42-2.8.53-1.78.15-2.84-2.32-3.09-4.17-.03-.05-.78-11.24-.38-6.73-.96-10.84 6.61-17.2 11.24-7.52 1.34 2.79 1.82 5.55 2.02 9.01.33 5.33-3.22 10.31-6.99 8.88M5487.04 2433.61c-6.05-2.17-8.23-23.33.01-20.38 6.08 2.17 8.26 23.34-.01 20.38M5443.76 2483.07c-.41-.07-.83-.22-1.19-.39-2.57-1.12-6.91-10.72-3.06-14.18 1.94-3.74 4.87-3.51 6.76-.84 2.16 3.1 3.3 5.98 2.4 10.57-.63 3.15-2.33 5.53-4.91 4.84M5663.51 2357.03c-.95-.41-1.87-.82-2.78-1.23-4.1-1.82-6.36-7.46-6.35-13.07.01-4.55 2.18-9.94 6.36-8.8.94.26 1.87.52 2.8.77 7.41 2.07 8.22 25.96-.03 22.33M5745.46 2426.92c-10.02-3.59-13.89-22.53-4.6-31.73 3.81-3.79 7.04 3.15 8.2 8.12-.37-2.69-.74-5.37-1.13-8.07 1.76 1.46 3.16 3.34 4.27 5.62 1.79 3.66 2.88 8.1 2.88 12.81-.01 6.44-3.37 15.49-9.62 13.25M5671.02 2443.38c-1.7 1.78-1.64 4.48-4.14 5.58-5.1 2.23-8.51-4.34-9.12-9.58-.03-.09-.03-.21-.05-.3-.32-2.89.03-8.66 2.92-10.46-.04-.05-.1-.11-.11-.19.22-.08.38-.02.59-.07.33-.12.52-.44.88-.47.15-.03.31-.04.47-.06.26-.03.43.23.68.24.09.03.11.08.19.07 1.6.26 2.82 1.24 3.77 2.8.4.3.78.63 1.29.86 2.46.91 5.82 8.25 2.63 11.58M5698.8 2358.01c.62-1.03 1.13-1.83 1.91-2.65 3.68-3.98 6.94 3.11 6.66 6.9-.15 2.06-.36 3.96-.74 6.02-1.98 10.56-13.19-1.39-7.83-10.27M5514.88 2565.69c-6.92-2.49-9.38-26.7.05-23.32 6.93 2.48 9.41 26.7-.05 23.32M5342.45 2583.14c-6.51-3.43-10.13-14.15-3.95-22.9 3.78-5.36 6.93.99 8.09 6.4 1.22 2.24 1.95 5.01 1.95 8.11-.01 3.61-2.25 10.43-6.09 8.39M5374.07 2672.78c-6.52 4.93-12.5-14.69-5.66-18.68 1.79-1.05 3.26-1.94 5.14-2.05 5.34-.29 8.67 10.64 4.98 16.39-1.31 2.01-2.75 3.06-4.46 4.34" fill="#fffbe1"/><path d="M5777.93 2958.84c49.11-55.61 120.17-71.2 175.21-60.64 139.9 26.97 169.04 234.95 8.68 318.35-71.43 37.14-160.17 31.72-204.3-34.17-40.67-60.71-38.47-156.85 20.41-223.54" fill="#77d0b4"/><path d="M5912.53 3187.98c-.96-.5-1.92-1.04-2.8-1.71-2.2-1.65-5.79-14.25 0-14.37.97-.05 1.9.05 2.83.23 3.06.54 4.61 5.97 4.59 9.49.01 2.72-1.7 7.92-4.62 6.36M5937.05 3183.89c-2.01-.02-2.69-1.41-3.85-3.19-.67-1.02-1.32-3.07-.34-4.56.43-.67.92-1.91 1.57-2.82 3.44-4.5 5.55 4.86 4.79 7.77l-.25.89c-.24.89-1.17 1.9-1.92 1.91M5948.57 3131.49c-.18.29-.35.59-.51.88-.46.62-.98.99-1.62 1.07-.48.03-.93.02-1.38.02-1.47-.02-2.11-1.74-2.42-3.27-.53-2.42-.83-4.22-.29-6.89 1.65-8.44 10.35 1.11 6.22 8.19M5925.16 3160.3c-.46 2.98-1.99 5.53-4.53 3.53-2.37-1.88-4.64-9.06-.93-12.2 1.62-1.34 3.42-.11 4.62.75 1.3.94 3.14 6.19.84 7.92M5817.34 3028.14c-.26.02-.53 0-.78-.01-4.27-.07-6.55-5.95-6.56-10.87.03-4.94 2.97-8.95 6.55-6.45.26.17.53.35.78.56 2.63 1.84 6.63 16.9.01 16.77M5835.06 2984.69c-.53.16-1.02.26-1.72.32-1.1.12-1.74-1.41-1.88-2.52-.03-.05-.48-6.89-.23-4.17-.6-6.61 4.03-10.49 6.87-4.57.82 1.71 1.12 3.39 1.25 5.52.18 3.24-2 6.31-4.29 5.42M5858.56 3025.43c-3.7-1.33-5.04-14.3.02-12.49 3.71 1.33 5.05 14.3-.02 12.49M5832.08 3055.68c-.25-.05-.5-.13-.74-.22-1.56-.68-4.23-6.58-1.87-8.68 1.17-2.29 2.98-2.16 4.14-.52 1.33 1.89 2.02 3.67 1.48 6.46-.4 1.93-1.43 3.37-3.01 2.96M5966.6 2978.5c-.57-.24-1.14-.48-1.7-.72-2.51-1.1-3.89-4.58-3.87-8.03 0-2.75 1.31-6.05 3.87-5.37.58.17 1.14.34 1.72.46 4.54 1.27 5.03 15.9-.02 13.66M6016.78 3021.33c-6.15-2.2-8.51-13.81-2.82-19.43 2.33-2.34 4.32 1.9 5.01 4.94-.22-1.61-.45-3.26-.69-4.92 1.08.9 1.94 2.03 2.62 3.45 1.1 2.24 1.76 4.95 1.78 7.82-.03 3.96-2.07 9.51-5.9 8.14M5971.18 3031.4c-1.01 1.08-.97 2.74-2.52 3.41-3.11 1.36-5.21-2.65-5.56-5.88-.02-.04-.02-.12-.04-.17-.2-1.76.03-5.33 1.77-6.39-.02-.05-.04-.1-.06-.14.14-.03.23 0 .37-.03.2-.08.31-.28.53-.32.08.03.21-.01.29-.02.16-.02.26.14.42.16.05.01.07.02.11.04.99.16 1.71.77 2.33 1.69.24.21.47.4.76.56 1.51.54 3.57 5.04 1.6 7.09M5988.21 2979.13c.39-.64.69-1.13 1.17-1.62 2.26-2.45 4.23 1.91 4.08 4.21a32.45 32.45 0 0 1-.46 3.68c-1.2 6.49-8.07-.84-4.79-6.27M5875.63 3106.27c-4.25-1.52-5.76-16.35.02-14.28 4.25 1.51 5.75 16.35-.02 14.28M5770.05 3116.97c-4-2.1-6.2-8.67-2.41-14.03 2.31-3.29 4.24.62 4.96 3.9.75 1.37 1.2 3.06 1.18 4.98 0 2.2-1.38 6.38-3.73 5.15M5789.4 3171.81c-3.99 3.05-7.63-8.98-3.46-11.42 1.08-.63 2.02-1.2 3.16-1.26 3.26-.17 5.29 6.53 3.04 10.04-.82 1.24-1.67 1.88-2.74 2.64" fill="#fffbe1"/><path d="M6086.01 3417.26c28.29-32.05 69.24-41.02 100.95-34.93 80.59 15.51 97.36 135.33 4.97 183.38-41.1 21.36-92.25 18.28-117.67-19.71-23.44-34.98-22.14-90.37 11.75-128.74" fill="#77d0b4"/><path d="M6163.55 3549.23c-.53-.27-1.08-.59-1.61-.98-1.25-.95-3.34-8.22 0-8.28.56-.04 1.09.03 1.63.15 1.76.32 2.63 3.46 2.63 5.46.02 1.58-.97 4.56-2.65 3.65M6177.7 3546.87c-1.18-.03-1.59-.8-2.24-1.82-.37-.61-.74-1.76-.2-2.62.26-.39.55-1.11.89-1.61 1.99-2.62 3.23 2.77 2.79 4.45l-.15.5c-.15.54-.66 1.1-1.09 1.1M6184.31 3516.72c-.1.16-.2.32-.3.49-.25.38-.55.58-.91.61-.29.01-.52 0-.81.02-.82-.02-1.22-1.02-1.38-1.87-.32-1.41-.5-2.45-.19-3.99.95-4.84 5.97.61 3.59 4.74M6170.83 3533.3c-.26 1.71-1.14 3.2-2.62 2.04-1.33-1.1-2.66-5.23-.52-7.02.91-.77 1.96-.05 2.64.44.75.54 1.83 3.56.5 4.54M6108.73 3457.17c-.18-.02-.32-.03-.45 0-2.46-.06-3.76-3.43-3.79-6.27.04-2.85 1.73-5.15 3.79-3.71.16.1.28.18.43.31 1.51 1.06 3.83 9.74.02 9.67M6118.91 3432.15c-.27.1-.57.15-.96.16-.64.05-1.04-.8-1.11-1.45 0 0-.28-3.95-.14-2.37-.31-3.84 2.33-6.07 3.99-2.65.49.96.63 1.98.71 3.19.1 1.85-1.14 3.61-2.49 3.12M6132.49 3455.59c-2.15-.77-2.94-8.24 0-7.19 2.14.77 2.89 8.22 0 7.19M6117.2 3473.05c-.14-.05-.28-.1-.41-.15-.89-.4-2.44-3.78-1.06-5.01.66-1.3 1.7-1.24 2.37-.29.78 1.1 1.17 2.1.86 3.72-.25 1.13-.83 1.98-1.76 1.73M6194.69 3428.58c-.31-.12-.65-.28-.95-.42-1.46-.64-2.27-2.62-2.25-4.65.02-1.57.78-3.46 2.24-3.05.32.08.66.16.98.27 2.61.7 2.91 9.16-.02 7.85M6223.62 3453.23c-3.53-1.27-4.9-7.92-1.65-11.19 1.34-1.33 2.5 1.09 2.89 2.84-.09-.93-.24-1.85-.41-2.82.65.51 1.17 1.17 1.57 1.98.59 1.27.97 2.86 1 4.52-.03 2.27-1.21 5.46-3.4 4.67M6197.35 3459.03c-.58.65-.57 1.6-1.44 1.95-1.79.82-3.02-1.51-3.22-3.35-.02-.05-.01-.08-.03-.13-.12-.98.02-3.02 1.02-3.64-.02-.04-.02-.04-.04-.09.08-.01.15.01.2-.01.12-.03.22-.19.34-.19.05-.02.13-.03.17-.02.07-.01.13.05.24.09 0 0 .03.01.07.02.57.09.97.43 1.32.98.14.13.26.25.44.32.87.31 2.06 2.9.93 4.07M6207.16 3428.91c.2-.35.38-.64.67-.89 1.29-1.42 2.42 1.07 2.34 2.41-.03.74-.1 1.37-.26 2.15-.69 3.67-4.64-.49-2.75-3.67M6142.3 3502.19c-2.45-.88-3.33-9.44-.01-8.25 2.46.87 3.33 9.44.01 8.25M6081.49 3508.33c-2.29-1.22-3.58-4.97-1.4-8.08 1.34-1.87 2.46.36 2.85 2.23.44.79.71 1.79.67 2.88.01 1.3-.77 3.69-2.12 2.97M6092.62 3539.93c-2.29 1.73-4.4-5.16-1.98-6.6.64-.36 1.16-.69 1.82-.69 1.87-.12 3.04 3.76 1.77 5.77-.49.69-.98 1.06-1.61 1.52" fill="#fffbe1"/><path d="M7657.53 4434.96c-19.01 148.39-47.37 295.62-74.48 442.69-20.46 110.46-48.45 226.45-134.07 305.24-148.9 137.01-419.89-2.26-564.88-71.53-239.03-114.24-456.78-265.32-688.36-392.49-4.63-2.54-6.88-5.66-7.7-8.63-65.14-38.24-122.21-85.31-148.46-146.35-51.79-120.68 223.64-213.26 293.38-241.64 189.53-77.17 373.48-152.08 558.66-240.77 114.54-54.87 230.95-104.83 348.34-153.1 82.95-34.26 177.07-73.22 268.65-64.16 268.11 26.57 170.4 402.83 148.92 570.74" fill="#fab8bf"/><path d="M7385.45 4150.82c-10.08-8.86-3.16-19.17 6.59-26.68 9.68-11.26 45.64-31.61 47.96-6.96 2.21 22.81-34.28 51.43-54.55 33.64M7281.66 4117.16c0 .23-.05.5-.05.74-.35-.63-.35-1.23-.45-1.84-.09-.25-.25-.38-.3-.58.57 2.5-1.2-3.07-1.22-3.21-.3-2.22 1.16-4.16 2.91-5.68.53-1.23 1.19-2.35 1.77-3.49 3.24-6.26 29.62-20.12 29.15-5.28-.37 12.05-9.08 21.35-21.18 23.36-4.4.65-8.74-.15-10.63-4.02M7330.14 4246.44c-7.84-10.24 6.61-23.37 14.75-27.39 7.44-3.65 18.79-8.07 26.49-2.29 1.26.94 2.46 1.9 3.6 3.12 12.14 11.59-10.02 28.19-20.97 29.1-1.94.16-3.87.47-5.89.77-6.61 2.18-13.57 2.54-17.98-3.31M7194.85 4216.19c-12.94-9.35 7.97-25.94 16.23-28.61 9.01-2.85 18.03-4.49 27.12-1.22 14.29 5.12-1.3 17.26-11.37 21.34-8.19 8.32-22.14 15.57-31.98 8.49" fill="#fffbe1"/><path d="M7419.98 3691c-140.64 63.25-285.19 117.68-428.99 173.13-108.04 41.54-225.01 79.47-340.38 46.72-200.57-56.94-224.23-370.04-241.57-534.73-28.42-271.51-13.05-544.21-26.15-816.1-.24-5.44 1.22-9.1 3.46-11.45-1.56-77.81 9.05-153.28 48.5-209.22 78.09-110.52 307.86 81.53 370.38 127.47 169.9 124.92 334.77 246.07 512.52 360.99 109.89 70.99 216.48 146.34 322.12 223.48 74.8 54.39 159.71 116.04 201.15 201.37 121.09 249.76-262.04 366.7-421.04 438.34" fill="#faba62"/><path d="M6624.05 2510.96c19.19-5.55 58.98 29.22 32.73 36.74-19.28 5.57-58.99-29.21-32.73-36.74M6524.02 2482.48c.53-.71 1.05-1.45 1.59-2.14 8.51-12.4 27.08-3.65 36.33 2.77 7.13 5 12.33 11.41 11.55 20.45-.38 3.53-2.8 4.8-5.67 5.33-4.03 2.69-9.7 3.54-14.39 2.39-1.44-.4-2.97-.7-4.44-1.1-8.45-2.05-33.89-14.69-24.97-27.7M6511.88 2600.3c.06-.8.21-1.64.31-2.39 1.07-9.26 11.52-11.67 19.38-9.99.38-.37.77-.79 1.26-1.19 5.3-5.31 21.2 3.54 19.65 10.92-.05.29-.17.56-.19.83 3.02 2.86 5.87 5.87 7.6 9.98 14.63 32.9-51.63 20.51-48.01-8.16M6591.43 2715.87c-.07-1.39.63-2.71 1.78-3.95.65-.87 1.74-1.51 2.74-2.27-.09-.06-.07-.13-.18-.22 2.44-6.25 13.19-4.65 17.78-2.88 9.58 3.77 19.48 9.21 24.78 18.41 5.91 10.18.53 19.91-11.23 20.38-14.32.49-38.88-16.35-35.67-29.47M6642.76 2610.57c1.96-4.97 8.18-4.43 13.78-2.62.91-.04 1.67-.09 2.65-.11 8.44.46 34.27 13.07 21.53 24.18-13.35 11.75-45.56-2.49-37.96-21.45M6866.09 2646.11c13.54-3.95 29.64 4.06 38.55 13.96 6.99 7.91 10.98 22.57-2.48 26.39-13.56 3.93-29.63-4.04-38.52-14.01-7.04-7.91-11.04-22.52 2.45-26.34M6951.21 2845.36c.24-.38.26-.77 1.33-1.89 1.85-2.29 2.96-4.95 5.07-7.23 2.82-2.89 9.42.12 11.72 2.08 8.64 7.47 16.23 16.14 22.62 25.59 7.04 10.27-.09 20.69-11.68 21.02-14.82.37-27.24-7.08-35.1-19.4-5.1-8.15-2.65-16.59 6.04-20.17M6578.86 3662.36c10.15 1.72 44.91 23.17 26.26 35.75-1.13 1.02-1.23.38-.4-1.86-3.22 17.9-29.25 1.82-34.58-5.89 1.44 2.39 1.41 2.84-.13 1.46-15.82-11.39-13.56-33.26 8.85-29.46M6633.68 3812.1c13.85-14.62 51.37 13.94 35.59 25.61-12.57 9.25-48.6-12-35.59-25.61M6825.32 3737.89l2.83 1.27c7.75 3.46 24.39 13.48 18.18 24.67-5.75 10.57-24.1 3.27-30.5-2.38-.79-.66-1.66-1.31-2.4-2-13.71-11.87-6.93-30.07 11.89-21.56M6683.75 3480.91c-.05-.48-.26-1-.28-1.37-.03-.71-.44-1.37-.44-2.15-.1-7.68 5.52-10.39 12.75-10.23.46-.06.73-.32 1.18-.3.64-.02 1.23.23 1.88.23.06 0 .06 0 .11.04 12.19.3 26.1 7.8 31.93 18.53 5.81 10.72 2.42 20.58-1.06 31.38-3.41 10.56-23.37-.12-27.09-4.71-7.14-9.05-17.08-19.49-18.98-31.42M6674.1 3664.15c14.65-4.16 32 4.39 41.68 15.19 7.57 8.57 11.89 24.36-2.71 28.55-14.59 4.22-32.03-4.43-41.65-15.17-7.57-8.54-11.88-24.34 2.68-28.57M6795.23 3607.09c12.07-3.45 26.44 3.66 34.28 12.54 6.33 7.06 9.89 20.08-2.15 23.5-12.11 3.51-26.42-3.55-34.3-12.5-6.31-6.95-9.84-20.08 2.17-23.54M6813.51 3538.26c.78.32 1.55.79 2.39 1.16 8.9 4.38 26.14 21.97 13.24 31.48-14.1 10.4-36.71-3.97-44.4-16.14-.35-.54-.76-1.09-1.13-1.74-13.66-21.75 18.52-20.34 29.9-14.76M6590.5 3550.57c17.39-5.05 53.4 26.49 29.63 33.26-17.44 5.06-53.37-26.44-29.63-33.26M7496.54 3189.61c-.18.1-.45.21-.66.35.39-.65.93-.95 1.35-1.41.18-.16.2-.4.37-.58-1.87 1.89 2.06-2.72 2.15-2.77 1.76-1.46 4.29-1.25 6.58-.5 1.38-.21 2.68-.23 4.03-.33 7.23-.5 33.62 15.14 20.31 22.76-10.76 6.15-23.63 3.55-31.87-6.03-2.99-3.49-4.6-7.75-2.26-11.49M7311.56 3244.99c2.7.3 5.35.26 8-.14 9.04-.47 41.24 18.01 25.1 28.15-1.65.96-3.31 2.01-4.87 3.25-10.99 12.86-32.08 3.14-41.44-7.27-12.04-13.58-3.4-25.79 13.21-23.99M7391.5 3404.03c9.59-8.6 35.64 8.27 39.63 15.72 2.11 3.99 4.18 7.85 3.47 12.46-1.9 11.62-16.8 11.94-25.53 8.07-9.44-4.13-15.89-9.2-23.27-16.17-8.97-8.41-4.26-18.95 5.7-20.08M7409.12 3301.83c4.8-12.37 24.07-6.73 31.97-1.78 7.26 4.56 17.28 12.2 16.31 22.01-.1 1.64-.28 3.22-.8 4.89-3.62 16.85-30.17 6.34-36.83-2.79-1.17-1.58-2.52-3.1-3.85-4.73-5.52-4.64-9.56-10.57-6.8-17.6M7362.79 3166.73c1.3-16.4 27.04-6.99 33.9-1.19 7.36 6.36 13.64 13.45 15.67 23.19 3.2 15.29-15.85 8.18-24.92 1.49-11.67-2.72-25.56-11.06-24.65-23.49M7219.66 3312.96c8.17-7.53 19.28-6 29.32-5.4 5.26.28 24.07 7.95 17.67 16.41-4.77 6.31-2.03 12.32-5.88 18.55-8.15 13.19-30.12 1.39-37.41-6.56-.62-.73-1.22-1.33-1.84-2-5.47-6.1-8.61-14.69-1.86-21M7500.38 3488.94c-4.49-16.26 15.87-16.24 25.86-13.13 12.99 4.1 25.22 13.17 28.47 26.93 4.33 18.3-17.53 14.82-30.9 7.78-10.29-3.37-20.78-11.84-23.43-21.58M7070.07 3520.98c.25-.52.45-.97.66-1.44 4.1-9.16 18.04-5.43 26.56-.8 12.53 3.98 33.08 17.02 19.82 27.5-13.22 10.4-32.73 4.55-42.56-8.24-3.83-5.04-7.32-10.59-4.48-17.02M6943.18 3270.11c16.4-4.68 50.08 24.82 27.85 31.19-16.41 4.65-50.1-24.82-27.85-31.19M7077.07 3227.05c2.6.35 5.24.66 7.85 1.01 5.56.74 22.99 10.55 16.75 18.6-1.09 1.4-2.08 2.8-3.2 4.2-17.59 22.75-55.05-28.23-21.4-23.81M6803.95 3204.47c13.98-3.99 30.48 4.11 39.61 14.43 7.28 8.14 11.37 23.15-2.51 27.17-13.96 4.03-30.48-4.23-39.64-14.43-7.23-8.16-11.35-23.16 2.54-27.17" fill="#fffbe1"/><path d="M2443.6 4502.98c-.09.2-.18.41-.27.61-128.4 283.16-437.11 432.26-727.87 334.44-4.75-1.6-9.54-3.17-14.22-4.89-95.56-34.87-185.62-108.49-191.23-216.23-7.4-142.38 159.13-262.77 264.57-325.36 195.68-116.14 853.24-197.44 669.02 211.43" fill="#f46f73"/><path d="M1257.68 4016.58c-64.44-64.67-112.45-149.78-148.35-231.56-80.97-184.38-173.631-460.64 18.27-607.7 100.39-76.94 280.3-58.64 397.02-34.42 155.57 32.3 301.29 60.77 439.64 142.92 137.16 81.44 217.97 250.29 236.58 402.33 13.86 113.16-46.66 224.72-118.73 310.23-99.95 118.56-256.4 156.27-405.77 150.93-82.95-2.96-169.87-13.33-250.45-33.24-65.86-16.28-121.37-52.48-168.21-99.49" fill="#77d0b4"/><path d="M208.281 3419.67c18.883.58 36.172 14.11 53.34 21.12a516.406 516.406 0 0 1 30.074 13.37c4.457 2.17 9.004 4.23 13.344 6.63-.605-.33 16.059 7.7 7.859 6.79 35.122 3.91 28.618 54.98-6.507 48.07-9.411-1.85-14.903-6.98-22.45-12.33-10.078-7.12-21.207-13.34-32.089-19.16-10.344-5.52-21.637-9.86-31.524-16.15-7.269-4.62-13.238-11.56-20.976-15.36-15.907-7.8-8.079-33.51 8.929-32.98M-100.922 3517.45c17.387-3.93 38.27 8.9 53.852 15.71 11.133 4.86 21.64 11.03 32.465 16.53 7.449 3.77 16.503 10.88 22.144 13.81 19.61 10.14 11.555 46.45-11.8 43.58-12.618-1.55-16.403-6.63-24.985-14.6-6.832-6.34-16.973-11.91-24.586-17.52-16.496-12.12-32.453-27.01-49.66-37.87-7.43-4.7-6.821-17.52 2.57-19.64M151.863 3584.85l.813-1.77c2.469-5.34 10.152-9.77 16.008-9.18 15.101 1.51 28.703 10.33 42.484 16.5 13.117 5.88 25.664 13.96 39.086 19.06 28.332 10.77 17.684 51.93-12.613 45.75-19.629-4-38.727-21.66-56.082-31.3-13.02-7.24-38.356-20.3-29.696-39.06M476.031 3475.32c18.403-7.76 41.922 7.88 58.793 14.88 17.965 7.45 35.989 11.92 50.664 25.43 19.641 18.08-11.207 48.93-29.261 29.26-10.051-10.94-25.157-14.79-38-21.48-15.012-7.8-30.942-16.39-45.164-25.38-9.825-6.22-6.633-18.67 2.968-22.71M559.547 3313.28c28.281 11.98 50.773 34.6 76.976 49.86 9.7 5.64 10.52 20.39 4.528 28.8-6.996 9.84-19.235 10.1-28.805 4.53-12.898-7.51-23.539-19-35.238-28.2-11.797-9.26-27.047-17.25-36.18-29.28-9.574-12.62 3-32.36 18.719-25.71M462.23 3062.16c25.286 27.53 52.282 53.56 77.043 81.29 24.348 27.27-20.394 61.58-39.546 30.51-5.325-8.64-11.723-15.8-16.457-24.91-5.5-10.61-12.176-20.29-19.133-29.97-10.582-14.73-26.895-31.96-23.301-51.27 1.754-9.42 15.211-12.39 21.394-5.65M195.348 3014.13c15.914 3.45 31.371 18.72 41.543 31.01 10.976 13.26 24.765 24.26 32.308 40.06 12.989 27.22-32.574 46.35-43.168 18.06-10.254-27.37-48.136-45.01-46.851-76.78.3-7.35 9.074-13.89 16.168-12.35M-32.738 2860.53c-.203-3.39 6.093 6.5 7.664 8.81 4.937 7.27 9.265 14.93 13.55 22.6 9.141 16.36 20.61 30.87 30.333 46.75 14.359 23.45-25.047 45.47-36.313 21.22-10.285-22.13-20.297-43.3-29.023-66.25-5.141-13.51-14.782-27.26-4.227-40.6 6.156-7.77 17.531-.7 18.016 7.47M-6.742 3068.13c2.64 2.25 8.64 3.69 12.273 5.47 10.098 4.95 19.196 11.63 28.164 18.35 15.664 11.73 33.2 24.04 45.774 39.12 16.215 19.44-8.223 43.84-27.692 27.69-8.976-7.44-16.332-16.89-24.449-25.27-9.031-9.32-18.933-17.71-28.016-26.95-9.187-9.33-26.68-22.12-19.074-36.73 2.637-5.07 9.18-4.95 13.02-1.68M468.938 3664.02c19.238-1.35 38.324-2.94 57.914-3.48 22.679-.63 45.558-8.34 63.793 7.9 6.265 5.58 6.265 17.33 0 22.9-19.106 16.98-48.536 9.62-72.344 6.69-17.074-2.1-40.668-.22-56.074-9.25-11.918-6.98-6.012-23.87 6.711-24.76M767.066 3612.23c-4.55-14.43 15.676-20.59 25.993-22.48 26.105-4.78 51.785-9 77.461-16.45 27.062-7.85 37.742 37.37 11.312 41.06-23.148 3.22-46.871 4.05-70.227 2.94-10.414-.5-28.792-5.32-38.519-1.64-2.539.95-5.281-1.09-6.02-3.43M804.648 3455.73c19.524-7.8 37.61-14.07 58.399-18.46 15.625-3.29 35.176-8.83 51.058-7.52 17.969 1.49 29.032 22.66 15.176 36.64-15.093 15.23-37.636 9.38-57.086 10.45-20.433 1.12-48.234 6.88-67.547-.78-9.976-3.95-9.941-16.35 0-20.33M896.293 3297.35c37.531-15.45 80.762-5.25 119.537-14.89 41.84-10.4 42.09 60.57 0 50.11-38.783-9.64-81.998.56-119.537-14.89-9.938-4.09-9.953-16.23 0-20.33M333.258 2963.97c-7.938-.37-11.465-3.62-17.344-8.62-9.09-7.74-18.512-15-27.305-23.08-14.5-13.31-25.011-27.59-36.714-43.01-13.454-17.72 11.937-38.39 28.847-28.85 8.403 4.74 10.156 10.05 14.082 18.08 4.563 9.34 11.266 17.74 17.731 25.81 10.812 13.49 27.097 28.98 30.699 46.55 1.277 6.26-2.867 13.46-9.996 13.12M140.094 2849.78c-11.426-8.82-15.098-22.08-19.27-35.34-6.465-20.57-8.336-40.4-9.594-61.83-1.777-30.23 49.196-29.89 46.692 0-1.723 20.52-3.465 39.87-1.871 60.46.828 10.74 3.082 27.71-6.371 35.47-2.446 2.01-6.684 3.48-9.586 1.24M243.199 3230.25c19.922 5.34 40.418 16.22 56.742 28.61 14.254 10.81 34.383 21.69 44.5 36.75 14.868 22.13-21.199 43.21-35.753 20.91-2.024-3.11-9.325-6.32-12.461-8.73-9.446-7.24-18.399-15.1-27.829-22.35-13.785-10.6-33.718-17.11-42.21-33.06-6.106-11.47 3.984-25.62 17.011-22.13M-13.898 3273.13c3.515 5.86 10.382 9.26 15.32 13.95 5.605 5.33 9.816 11.69 14.715 17.63 10.636 12.91 24.976 22.12 35.597 34.79 17.223 20.56-8.699 46.3-29.289 29.29-15.843-13.09-28.972-32.6-38.89-50.44-7.242-13.03-21.899-30.24-14.36-45.22 3.395-6.74 13.32-5.99 16.907 0M680.609 3246.42c12.637-2.36 24.485-.66 36.879 2.23 12.821 2.98 26.047 2.81 39.039 5.08 24.922 4.34 13.895 46.61-10.519 38.17-10.32-3.57-21.195-4.89-31.391-8.7-9.937-3.72-20.086-11.02-30.695-12.31-12.574-1.54-18.453-21.64-3.313-24.47M1092.46 3439.41c2.8-22.47 27.16-31.26 45.36-40.29 6.54-3.24 13.3-6.19 19.72-9.67-1.14.62 7.91-4.8 5.65-3.13-4.37 3.24 8.56-8.17 10.09-8.99 14.72-7.84 33.62-1.15 38.21 15.55l.42 1.52c2.41 8.76.24 20.42-7.02 26.54-12.17 10.24-25.17 12.55-40.36 15.04-18.83 3.09-36.85 9.74-54.49 16.82-7.77 3.13-18.64-4.98-17.58-13.39M3757.21 4346.64c-.5.36-.99.73-1.49 1.1-4.51 3.33-12.96 3.5-17.58.33-11.91-8.19-19.23-21.79-27.91-33.26-8.26-10.92-15.02-23.42-23.89-33.83-18.72-21.99 9.04-51.48 31.5-32.42 14.56 12.34 22.41 35.83 32.48 51.85 7.56 12.01 22.73 34.53 6.89 46.23M3436.3 4289.47c-18.92-1.96-31.39-25.81-42.27-39.38-11.58-14.46-24.58-26.45-30.64-44.47-8.11-24.1 31.79-35.72 37.85-11.02 3.37 13.75 14.22 23.9 21.89 35.36 8.95 13.4 18.32 27.87 26.06 41.9 5.36 9.7-3.02 18.63-12.89 17.61M3528.75 4135.16c-16.68-7.7-33.35-15.12-49.96-23.65-19.23-9.88-41.87-13.93-49.64-35.85-2.68-7.53 2.71-17.34 10.49-19.12 23.75-5.42 44.94 14.21 63.48 27.57 13.29 9.59 33.86 18.84 42.58 33.44 6.75 11.3-5.92 22.69-16.95 17.61M3256.06 4041.7c-2.82 14.14-22.53 10.01-32.01 6.86-24-7.97-47.37-16.23-72.22-21.78-26.2-5.85-14.38-48.51 9.37-39.47 20.81 7.92 41 18.11 59.99 29.74 8.47 5.2 21.61 17.65 31.41 19.04 2.56.36 3.92 3.32 3.46 5.61M3152.92 4155.16c-19.87-2.44-37.85-5.5-57.22-11.37-14.56-4.41-33.43-8.74-46.09-17.13-14.32-9.48-13.84-32.23 4.13-37.55 19.59-5.8 35.73 9.42 52.46 17.45 17.57 8.44 43.43 16.37 56.05 31.62 6.51 7.87.8 18.21-9.33 16.98M3003.78 4245.39c-38.41-4.31-69.84-32.65-106.64-42.37-39.7-10.51-7.37-69.88 22.98-41.84 27.96 25.82 68.72 37.12 92.99 67.23 6.42 7.97.86 18.12-9.33 16.98M2905.12 4036.82c-12.65 17.48-37.02 13.66-56.35 12.85-6.95-.29-13.95-.93-20.9-.97 1.23.01-8.81.39-6.16.02 5.14-.7-10.89 2.91-12.54 2.89-15.89-.21-28.6-14.46-24.78-30.51.11-.48.23-.97.35-1.45 2-8.43 9.15-17.17 18.02-18.95 14.87-2.98 26.78 1.07 40.6 5.94 17.14 6.06 35.24 8.77 53.22 10.94 7.92.96 13.27 12.7 8.54 19.24" fill="#42405f"/><path d="M6821.25 1190.15c-1.95-5.48-2.98-11.67-2.88-18.65.51-35.94 19.23-65.3 58.13-63.42 25.08 1.21 49.98 6.35 62.12 30.64 9.79 19.59 9.99 57.53-1.33 78.8-11.47 21.54-27.37 17.85-49.49 13.83-28.05-5.1-57.41-15.48-66.55-41.2M7063.13 1224.89c-5.72-33.57 27.79-64.21 61.01-57.24 25.37 5.31 36.15 9.24 35.97 38.6-.13 19.73-2.73 43.05-18.43 54.47-20.85 15.15-64.02-1.25-74.5-23.23-2.01-4.21-3.33-8.42-4.05-12.6M6922.9 970.98c-9.98-27.148 21.94-28.308 38.32-23.468 22.57 6.668 41.34 16.109 35.34 44.41-11.72 55.238-52.95 5.258-73.66-20.942M7273.46 1273.39c2.87-25.09 2.82-33.77 28.45-38.39 21.62-3.88 31.72 10.07 37.87 31.01 13.07 44.55-47.46 39.95-66.32 7.38M7045.64 1406.03c-4.92-20.05-1.74-42.25 21.35-41.47 11.2.39 22.99 5.06 27.52 16.23 7.65 18.85-32.35 41.61-43.33 28.53" fill="#f9acb7"/><path d="M-94.957 4380.14a58.159 58.159 0 0 1-1.383-9.91c-.668-13.62 3.746-27.24 8.531-40.42 39.5-108.91 93.957-253.73 162.395-350.62 51.227-72.51 122.738-118.83 211.227-139.49 135.085-31.55 177.316 38.5 276.675 108.34 116.942 82.19 221.133 83.61 362.828 106.24 131.624 21.01 228.464 103.26 265.914 223.58 44.18 141.98 16.49 350.89-41.97 488.05-59.06 138.57-133.33 283.29-282.092 359.16-233.328 119.01-470.527-202.08-582.91-327.65-53.004-59.22-87.094-134.69-145.133-190.47-36.777-35.36-83.125-60.03-120.828-95.16-34.153-31.83-102.48-83.89-113.254-131.65z" fill="none" stroke="#faba62" stroke-width="40" stroke-miterlimit="10"/><path d="M98.73 4344.65c.055-9.41 3.403-18.83 7.145-27.87 31.613-76.51 72.672-173.51 121.969-237.17 36.976-47.63 87.328-76.28 149.191-88.47 92.938-18.3 123.785 30.19 194.11 78.66 90.929 62.67 173.656 66.99 277.793 88.75 97.031 20.42 167.102 84.54 193.182 182.24 28.98 108.51 6.84 258.44-39.34 357.35-46.928 100.2-106.979 200.75-217.26 250.92-104.043 47.82-209.465-15.87-295.516-96.68-53.805-50.71-100.672-108.64-134.711-146.95-38.914-43.7-65.238-98.53-107.203-140.01-26.86-26.62-60.129-45.82-86.961-72.06-26.535-25.95-74.461-64.65-82.399-97.83-3.406-15.44 7.73-40.58 20-50.88z" fill="none" stroke="#faba62" stroke-width="33.333" stroke-miterlimit="10"/><path d="M293.801 4319.07c.773-5.2 3.09-10.42 5.754-15.33 23.961-44.16 51.32-93.35 81.543-123.71 22.675-22.79 51.808-33.79 87.164-37.44 50.633-5.22 70.375 21.7 111.539 48.96 65.004 43.07 126.176 50.38 192.758 71.27 62.441 19.82 106.086 65.63 120.464 140.91 14.297 74.83-2.835 166-36.73 226.64-34.789 61.83-80.742 117.86-152.426 142.68-66.531 23.04-134.281-13.89-190.551-65.69-32.804-30.2-63.058-66.63-86.984-93.91-24.84-28.19-43.387-62.39-69.277-89.55-16.942-17.9-37.02-31.75-53.102-48.97-18.851-20.17-46.43-45.43-51.535-64.01-6.063-27.57 16.684-74.53 41.383-91.85z" fill="none" stroke="#faba62" stroke-width="26.667" stroke-miterlimit="10"/><path d="M260.434 2367.33c-.938-.72-1.973-1.52-3.036-2.33 1.063.69 2.114 1.44 3.036 2.33M-230.09 1899.59l-1.16 2.82c8.785 6.56 4.539-.83 12.266 5.81.718 5.72 13.773 9.68 15.269 13.57.141-.31 4.199 2.56 4.715 1.32-.117 2.7 3.781 3.46 5.953 5.78.547 1.21-1.062.06-2.144.09l5.281 4.95c2.687 1.06 4.027.43 1.722-1.61 15.516 10.53 89.067 62.52 104.594 75.46-3.105-.18-7.422-4.84-10.93-4.09 3.395 4.37 6.63 4.26 7.567 6.93 4.039-1.95 9.988 6.24 15.672 5.41l-.13 2.73 2.962.49c17.414 15.87 3.625 4.11 20.547 16.13 9.375 7.48 12.047 13.4 18.07 16.51-.805-.58-3.75-1.07-1.621 1.27 1.621-1.27 5.77 6.09 8.18 5.4 2.285 2.04 10.312 7.77 6.011 7.91 2.16-.06 9.524 4.77 6.04.69 2.433 1.73 4.96 3.14 6.312 4.88l-3.508-1.69c7.777 6.36 13.402 7.96 17.152 13.83l-3.609-1.34c4.688 3.74 8.57 6.9 12.067 6.18l-4.43-4.38c7.906 6.05 12.598 9.79 18.36 15.91l-2.411-1.73c6.824 8.49 49.633 43.45 55.399 52l-4.82-1.04 5.64 6.44c-.805-.57.816-7.85-.258-7.79 13.977 11.42 88.227 67.26 102.504 75.63 6.07 2.96 2.922-1.98 3.047-2.3 6.097 5.38 1.539 3.82 7.222 7.71 1.739.8.645-1.56-.043-2.42 2.297 1.99 4.989 3.02 4.598 3.94-3.496-1.58-3.711 1.44-5.996 1.87l7.32 5 .633-1.55c1.637 1.13 1.453 6.56 9.031 10.93 12.309 8.02 24.903 17.83 37.098 26.17.371-.95-1.801-3.22-3.984-5.52 1.629 1.12 3.925 3.1 5.812 3.59-3.887-.69 4.356 4.55 1.68 3.51 6.469 9.61 19.918 14.81 26.098 22.61-1.426 3.42-18.594 62.63-20.997 66.17 2.477 1.66 4.938 3.36 5.883 3.59-1.207.38-6.238-2.67-8.457-4.97l.863-2.19c-5.375-4.89-2.14.12-7.746-4.11-1.367 1.32 3.637 5.43 8.164 8.91-4.285-2.81-9.199-4.68-9.734-7.59-4.359-2.18-.863 2.19-6.039-.58-3.031-2.84-6.387-7.53-10.867-9.39l-.133.31c-10.484-5.18-12.695-12.65-22.344-17.28l.563 1.17c-3.653-1.29-8.77-6.78-14.899-9.78 1.782.84 3.91.7.762-1.86-6.941-3.57-10.535-7.59-15.977-9.72l-3.335-4.66c-21.954-15.56-107.063-79.55-127.84-96.43l.675.87c-32.238-25.37-99.585-75.84-131.94-103.3-6.33-2.5-13.302-8.28-19.067-11.99 3.496 1.7 3.222-.12.804-1.85-16.777-12.27-.371-1.83-16.761-15.01-18.395-15.75-93.782-69.42-111.914-80.97-7.665-9.01-20.403-16-28.485-24.08l.547 1.19c-4.598-3.98-20.934-15.91-37.676-27.55-16.918-11.28-34.047-22.73-39.539-27.09l1.781.74c-9.101-8.31-9.398-4.97-17.839-9.72 2.757-1.73-4.875-9.09-8.039-11.56l-.243.64c-4.672-3.86-14.41-13.78-22.375-19.79l-.605 1.55c-5.84-6.18-19.082-14.49-23.883-18.03-11.605-7.25-30.469-16.88-44.269-29.11l-12.239-2.81-1.168-1.38s14.989-57.97 41.598-54.04l.578-1.61 3.867 2.97c5.203 2.61 6.371 5.71 6.942 4.13l-6.641-4.37c5.051 2.93 2.188-.08.863-2.12 2.086 1.24 4.145 2.44 6.012 3.13.586 1.15-1.078.06-2.016-.15 2.262 2.28 5.004 6.05 8.575 7.6 4.984 3.27 1.765-1.98 7.593 1.84 30.914 19.93 61.293 38.71 91.645 60.25 1.094-.09.25-.63-.457-1.5 8.797 6.96 17.137 12.45 25.105 18.87 2.75 1 3.969.63 5.047.57-1.078.06 10.281 8.4 22.028 16.77 5.953 4.11 11.691 8.5 16.121 11.76 4.441 3.28 7.504 5.49 7.73 5.55M369.363 2308.12c-.902-.75-1.922-1.58-2.957-2.44 1.051.74 2.086 1.55 2.957 2.44M-117.875 1824.21l-1.281 2.74c8.718 6.84 4.66-.64 12.281 6.24.562 5.69 13.676 10.12 15.098 14.03.144-.31 4.172 2.68 4.73 1.47-.183 2.7 3.742 3.56 5.887 5.98.5 1.18-1.086 0-2.188 0l5.22 5.09c2.687 1.18 4.05.58 1.78-1.52 15.446 11.01 88.442 65.25 103.829 78.68-3.106-.27-7.36-5.03-10.883-4.41 3.332 4.52 6.57 4.5 7.488 7.2 4.074-1.87 9.922 6.55 15.602 5.83l-.141 2.76 2.95.55c17.292 16.45 3.487 4.32 20.597 16.68 9.523 7.68 12.23 13.69 18.351 16.91-.82-.6-3.808-1.15-1.64 1.24 1.64-1.24 5.84 6.24 8.285 5.57 2.328 2.07 10.465 7.97 6.125 8.06 2.172-.03 9.648 4.94 6.113.77 2.453 1.79 5.027 3.22 6.395 5.04l-3.547-1.76c7.887 6.5 13.597 8.19 17.394 14.18l-3.652-1.44c4.758 3.85 8.695 7.1 12.238 6.41l-4.488-4.45c8.008 6.21 12.77 10.04 18.609 16.28l-2.433-1.76c6.914 8.65 50.344 44.49 56.191 53.14l-4.902-1.09 5.722 6.55c-.82-.59.836-7.87-.242-7.84 14.551 10.9 88.715 70.71 102.879 80.09 6.094 3.28 3.004-1.84 3.153-2.16 6.078 5.72 1.46 3.94 7.14 8.14 1.758.89.695-1.52.031-2.42 2.286 2.1 4.989 3.28 4.575 4.2-3.512-1.78-3.813 1.27-6.145 1.58l7.309 5.41.691-1.52c1.621 1.2 1.293 6.67 8.871 11.47 12.305 8.68 24.844 19.21 37.008 28.21.422-.92-1.723-3.31-3.883-5.72 1.641 1.21 3.91 3.31 5.824 3.91-3.953-.89 4.297 4.8 1.598 3.63 6.258 9.91 19.828 15.89 25.856 24.03-1.524 3.37-22.032 61.03-24.715 64.33 2.425 1.79 4.84 3.57 5.789 3.86-1.25.31-6.227-2.96-8.356-5.35l1.008-2.13c-5.215-5.06-2.183.03-7.676-4.46-1.468 1.24 3.422 5.56 7.836 9.24-4.215-3.03-9.117-5.12-9.508-8-4.308-2.38-.992 2.1-6.105-.86-2.938-2.99-6.102-7.79-10.574-9.86l-.125.31c-10.383-5.64-12.266-13.17-21.828-18.2l.504 1.18c-3.625-1.44-8.559-7.14-14.61-10.41 1.754.92 3.91.86.844-1.81-6.867-3.86-10.336-8.06-15.727-10.41l-3.179-4.81c-21.696-16.33-104.219-84.54-126.2-101.11l.661.89c-32.614-25.97-100.813-77.7-133.567-105.8-6.398-2.59-13.457-8.51-19.297-12.3 3.54 1.72 3.266-.09.805-1.85-16.906-12.85-.375-1.87-16.863-15.69-18.492-16.58-94.34-73.34-112.633-85.65-7.66-9.34-20.531-16.85-28.598-25.27l.531 1.2c-4.472-4.39-21.382-16.25-37.601-29.65-16.305-13.23-32.828-26.63-38.07-31.66l1.738.95c-8.613-9.41-9.16-6.04-17.356-11.76 2.903-1.47-4.3-9.73-7.304-12.57l-.305.61c-4.441-4.41-13.559-15.45-21.148-22.38l-.75 1.53c-5.418-6.88-18.215-16.68-22.817-20.77-11.215-8.57-29.707-20.41-42.695-34.16l-12.395-4.35-1.062-1.49s22.445-54.52 49.187-47.65l.778-1.49 3.586 3.27c4.972 3.16 5.781 6.3 6.554 4.83l-6.226-4.97c4.789 3.39 2.23.11 1.136-2.02 1.973 1.47 3.911 2.85 5.723 3.71.473 1.21-1.094-.03-2.012-.34 2.012 2.44 4.356 6.41 7.778 8.31 4.687 3.74 2.027-1.73 7.488 2.62 29.008 22.74 57.492 44.25 85.699 68.47 1.078.02.289-.6-.332-1.52 8.125 7.76 15.891 13.97 23.239 21.1 2.632 1.24 3.851.98 4.929.98-2.129-.06 42.02 37.56 43.426 37.38M430.043 2162.46c-.977-.69-2.07-1.49-3.188-2.3 1.118.69 2.227 1.44 3.188 2.3" fill="#f46f73"/><path d="M-84.672 1689.97l-1.152 2.83c9.078 6.7 4.644-.78 12.625 5.97.836 5.78 14.219 9.92 15.816 13.87.133-.32 4.332 2.61 4.828 1.35-.066 2.76 3.926 3.56 6.188 5.93.578 1.2-1.094.02-2.203.07l5.492 5.01c2.75 1.13 4.113.49 1.73-1.58 16.016 10.78 91.95 63.96 108.043 77.19-3.164-.24-7.652-4.95-11.203-4.23 3.535 4.45 6.828 4.37 7.84 7.07 4.066-1.95 10.29 6.39 16.043 5.61l-.074 2.73 3.039.52c18.07 16.19 3.75 4.26 21.351 16.39 9.789 7.56 12.68 13.55 18.938 16.65-.852-.57-3.867-1.06-1.629 1.26 1.629-1.26 6.055 6.19 8.504 5.47 2.394 2.04 10.766 7.83 6.379 8 2.203-.09 9.863 4.8 6.183.66 2.52 1.75 5.145 3.16 6.586 4.95l-3.625-1.7c8.125 6.38 13.918 8 17.918 13.94l-3.726-1.37c4.89 3.77 8.961 6.95 12.496 6.21l-4.645-4.41c8.239 6.11 13.129 9.87 19.2 16.06l-2.504-1.76c7.218 8.56 51.964 43.83 58.121 52.45l-4.949-1.03 5.953 6.5c-.852-.58.578-7.94-.52-7.91 7.535 5.32 30.07 23.17 53.481 39.2 23.25 16.27 46.484 32.29 53.89 36.51 6.313 2.94 2.903-2.01 3.031-2.32 6.446 5.38 1.715 3.86 7.665 7.73 1.812.78.593-1.58-.129-2.44 2.418 1.98 5.203 3.02 4.847 3.94-3.64-1.59-3.738 1.49-6.054 1.92l7.66 5.01.593-1.58c1.711 1.12 1.743 6.61 9.633 10.98 12.883 8 26.125 17.78 38.895 26.09.355-.95-1.957-3.25-4.285-5.53 1.715 1.12 4.14 3.08 6.082 3.58-3.996-.67 4.629 4.57 1.855 3.53 6.973 9.63 20.895 14.78 27.52 22.63-1.325 3.43-16.606 63.38-18.907 66.98 2.59 1.66 5.165 3.36 6.125 3.59-1.207.37-6.468-2.64-8.812-4.97l.789-2.22c-5.68-4.86-2.184.15-8.066-4.08-1.352 1.35 3.925 5.46 8.671 8.94-4.488-2.82-9.582-4.65-10.222-7.59-4.531-2.19-.809 2.21-6.199-.52-3.207-2.87-6.817-7.56-11.473-9.43l-.106.35c-10.91-5.15-13.457-12.69-23.496-17.29l.621 1.21c-3.777-1.3-9.218-6.79-15.585-9.78 1.839.84 4.023.66.703-1.87-7.246-3.53-11.071-7.62-16.707-9.72l-3.578-4.69c-22.954-15.61-112.571-79.2-134.215-96.53l.707.89c-33.766-25.66-104.235-76.7-138.168-104.48-6.555-2.5-13.86-8.34-19.867-12.1 3.62 1.72 3.289-.12.761-1.85-17.418-12.57-.422-1.86-17.457-15.35-19.14-16.16-97.336-71.29-116.113-83.2-8.04-9.23-21.207-16.42-29.621-24.67l.578 1.18c-9.375-8.54-68.457-47.63-79.746-56.8l1.808.83c-9.359-8.71-9.644-5.35-18.296-10.41 2.8-1.64-5.067-9.34-8.297-11.93l-.266.63c-4.785-4.03-14.809-14.35-22.973-20.68l-.621 1.55c-5.996-6.4-19.597-15.2-24.531-18.94-11.902-7.66-31.289-17.98-45.449-30.74l-12.598-3.26-1.191-1.43s15.89-57.67 43.164-52.92l.605-1.58 3.926 3.07c5.317 2.8 6.484 5.96 7.07 4.38l-6.757-4.57c5.152 3.1 2.23-.06.894-2.13 2.129 1.33 4.231 2.56 6.121 3.31.61 1.2-1.086.05-2.051-.21 2.301 2.36 5.09 6.21 8.711 7.88 5.075 3.45 1.829-1.92 7.766 2.08 31.488 20.9 62.406 40.63 93.305 63.12 1.09-.06.23-.63-.489-1.52 8.969 7.24 17.442 12.99 25.551 19.66 2.805 1.1 4.039.76 5.133.7-1.105.06 10.469 8.74 22.434 17.48a8085.49 8085.49 0 0 1 16.707 12.02c4.57 3.33 7.734 5.61 7.98 5.66M429.297 2027.3c-.863-.71-1.863-1.53-2.875-2.36 1.019.73 2.031 1.5 2.875 2.36M-56.29 1566.23l-1.12 2.82c8.84 6.27 4.516-.95 12.293 5.44.805 5.66 13.879 9.25 15.43 13.05.128-.32 4.214 2.41 4.718 1.17-.074 2.71 3.82 3.34 6.024 5.62.547 1.14-1.067.05-2.145.14l5.332 4.74c2.692 1.01 4.016.32 1.7-1.64 15.617 10.04 89.64 59.62 105.308 72.04-3.078-.09-7.445-4.57-10.926-3.74 3.45 4.26 6.672 4.06 7.649 6.67 3.972-2.07 10.035 5.93 15.644 4.92l-.07 2.74 2.945.37c17.613 15.36 3.711 3.94 20.793 15.53 9.492 7.27 12.266 13.17 18.336 16.13-.82-.58-3.758-.98-1.582 1.3 1.582-1.3 5.848 6 8.234 5.26 2.301 1.98 10.415 7.53 6.145 7.8 2.141-.12 9.562 4.57 6.02.54 2.449 1.66 5.003 3.02 6.375 4.78l-3.512-1.64c7.851 6.18 13.504 7.67 17.328 13.48l-3.621-1.3c4.738 3.66 8.664 6.73 12.133 5.93l-4.473-4.26c7.98 5.87 12.711 9.53 18.562 15.53l-2.429-1.7c6.945 8.37 50.199 42.4 56.051 50.79l-4.844-.94 5.691 6.3c-.804-.55.762-7.8-.316-7.74 7.058 5.49 29.59 21.48 51.191 38.64 21.664 17.06 43.321 33.86 50.293 38.37 5.981 3.17 2.961-1.9 3.106-2.21 5.953 5.57 1.425 3.9 6.992 7.96 1.723.86.687-1.52.027-2.42 2.242 2.07 4.918 3.2 4.496 4.12-3.461-1.72-3.761 1.32-6.05 1.66l7.16 5.24.679-1.53c1.59 1.19 1.25 6.62 8.668 11.25 12.078 8.42 24.356 18.64 36.293 27.38.43-.92-1.672-3.25-3.785-5.61 1.598 1.17 3.844 3.22 5.723 3.76-3.895-.8 4.199 4.72 1.539 3.58 6.086 9.74 19.441 15.47 25.308 23.43-1.539 3.33-22.488 60.53-25.207 63.81 2.375 1.73 4.719 3.46 5.653 3.71-1.239.32-6.086-2.82-8.153-5.14l1.024-2.1c-5.078-4.92-2.16.06-7.508-4.26-1.469 1.21 3.293 5.41 7.59 8.94-4.113-2.9-8.918-4.89-9.242-7.73-4.231-2.27-1.024 2.1-6.012-.75-2.863-2.87-5.926-7.56-10.285-9.54l-.141.31c-10.137-5.38-11.902-12.79-21.269-17.6l.492 1.17c-3.555-1.37-8.324-6.89-14.246-10.03 1.707.86 3.836.78.844-1.81-6.715-3.68-10.063-7.77-15.34-10.01l-3.078-4.69c-21.18-15.66-101.387-81.98-123.516-96.99l.676.83c-32.254-24.47-99.645-73.08-132.067-99.68-6.3-2.32-13.257-7.91-19.054-11.44 3.507 1.58 3.21-.23.761-1.84-16.996-11.74-.414-1.85-17.027-14.49-18.66-15.22-94.926-66.66-113.246-77.71-7.82-8.77-20.672-15.39-28.871-23.23l.562 1.17c-9.304-7.64-66.402-45.41-77.285-54.37l1.75.8c-8.996-8.49-9.328-5.15-17.715-10.01 2.762-1.69-4.801-9.17-7.922-11.67l-.257.6c-4.618-3.91-14.235-13.98-22.118-20.1l-.629 1.55c-5.738-6.24-18.882-14.75-23.64-18.35-11.516-7.38-30.324-17.36-43.93-29.74l-12.332-3.06-1.137-1.39s17.641-56.45 44.243-52.14l.648-1.55 3.75 2.93c5.106 2.67 6.141 5.73 6.773 4.21l-6.468-4.41c4.945 2.96 2.195-.06.961-2.1 2.043 1.26 4.043 2.47 5.882 3.17.547 1.18-1.078.06-2-.18 2.157 2.28 4.747 6.02 8.254 7.57 4.86 3.3 1.844-1.9 7.524 1.92 30.09 19.96 59.629 38.74 89.074 60.22 1.066-.06.246-.6-.434-1.47 8.532 6.97 16.622 12.43 24.332 18.84 2.692 1.01 3.879.64 4.946.58-1.067.06 9.953 8.4 21.367 16.74 5.723 4.11 11.52 8.31 15.934 11.47 4.457 3.14 7.547 5.24 7.777 5.29M588.832 1963.46c-.996-.75-2.129-1.58-3.281-2.44 1.152.74 2.285 1.52 3.281 2.44M57.305 1471.04l-1.22 2.79c9.27 7.1 4.77-.6 12.923 6.53.808 5.83 14.535 10.52 16.148 14.53.13-.3 4.414 2.81 4.946 1.58-.086 2.75 4.015 3.7 6.308 6.18.578 1.23-1.117 0-2.254 0l5.594 5.26c2.816 1.23 4.211.6 1.781-1.55 16.379 11.48 93.938 67.83 110.36 81.78-3.219-.31-7.809-5.26-11.43-4.65 3.621 4.65 6.973 4.65 8.019 7.44 4.125-1.86 10.528 6.82 16.364 6.18l-.055 2.8 3.078.6c18.535 16.99 3.735 4.54 21.981 17.2 10.179 7.82 13.261 13.94 19.73 17.23-.879-.61-3.996-1.16-1.64 1.25 1.64-1.25 6.324 6.36 8.832 5.7 2.472 2.1 11.168 8.11 6.671 8.2 2.258-.03 10.207 5.06 6.368.8 2.617 1.82 5.351 3.31 6.847 5.15l-3.758-1.81c8.457 6.64 14.426 8.4 18.641 14.46l-3.859-1.43c5.093 3.91 9.324 7.22 12.945 6.52l-4.848-4.54c8.571 6.33 13.661 10.24 20.004 16.62l-2.605-1.81c7.566 8.82 54.109 45.41 60.594 54.26l-5.11-1.15 6.227 6.71c-.871-.6.449-8.03-.657-8 15.11 11.82 95.938 70.66 111.36 79.6 6.527 3.2 2.949-1.95 3.082-2.26 6.683 5.63 1.812 3.96 7.965 8.07 1.883.86.605-1.58-.16-2.47 2.515 2.07 5.394 3.2 5.046 4.14-3.769-1.73-3.835 1.38-6.21 1.78l7.925 5.29.586-1.58c1.774 1.18 1.856 6.73 10.024 11.42 13.343 8.48 27.058 18.81 40.273 27.63.359-.94-2.043-3.33-4.441-5.75 1.765 1.21 4.285 3.25 6.281 3.83-4.125-.81 4.805 4.78 1.93 3.65 7.246 9.95 21.652 15.62 28.527 23.72-1.34 3.46-17.125 63.33-19.527 66.84 2.66 1.78 5.304 3.53 6.312 3.83-1.25.34-6.676-2.88-9.086-5.27l.832-2.21c-5.84-5.09-2.258.08-8.308-4.38-1.399 1.33 4.039 5.62 8.91 9.27-4.613-2.97-9.848-4.98-10.508-7.97-4.656-2.3-.832 2.22-6.371-.69-3.305-2.99-7.016-7.83-11.801-9.84l-.117.33c-11.219-5.5-13.832-13.18-24.172-18.1l.645 1.21c-3.879-1.38-9.473-7.1-16.032-10.26 1.903.86 4.129.77.719-1.91-7.445-3.76-11.387-7.99-17.168-10.26l-3.695-4.84c-23.696-16.35-115.59-83.31-138.465-101.11l.746.9c-35.144-26.66-108.449-79.78-143.789-108.59-6.773-2.68-14.395-8.74-20.637-12.65 3.754 1.78 3.379-.06.762-1.88-18.027-13.34-.488-1.89-18.07-16.25-19.754-17.13-100.352-76.14-119.73-89-8.286-9.63-21.872-17.45-30.544-26.2l.606 1.27c-4.805-4.51-22.703-16.99-40.036-30.71-17.41-13.61-35.039-27.38-40.664-32.55l1.829 1c-9.29-9.66-9.704-6.24-18.403-12.14 2.934-1.46-4.86-9.95-8.097-12.85l-.274.6c-4.773-4.48-14.664-15.84-22.816-22.95l-.692 1.53c-5.91-7.02-19.531-17.15-24.461-21.34-11.933-8.8-31.519-20.99-45.539-35.11l-12.922-4.49-1.168-1.55c0 .02 20.176-55.93 48.028-48.78l.73-1.52 3.84 3.4c5.309 3.24 6.301 6.49 7.016 5l-6.668-5.18c5.101 3.54 2.301.18 1.062-2.04 2.102 1.52 4.172 2.93 6.102 3.85.547 1.24-1.141-.06-2.117-.37 2.215 2.53 4.843 6.61 8.468 8.57 5.02 3.88 2-1.76 7.852 2.73 31.059 23.52 61.543 45.78 91.879 70.84 1.125.02.273-.64-.414-1.59 8.77 8.02 17.11 14.44 25.047 21.8 2.773 1.32 4.039 1.04 5.148 1.07-2.219-.06 45.293 38.76 46.645 38.64" fill="#f46f73"/><path d="M1004.86 2800.15c-3.68 0-7.579-.1-11.907-.29-7.473-.36-15.039-1.51-22.34-2.62-2.961-.43-5.925-.88-8.875-1.28-9.07-1.23-18.023-2.82-24.812-4.06-2.778-.51-5.547-.95-8.336-1.39-5.707-.89-11.598-1.82-17.262-3.35-3.594-1-7.328-2.18-11.113-3.55-3.899-1.4-8.164-3.26-13.051-5.67-3.508-1.74-8.004-5.59-10.418-7.66l-1.019-.9-1.036-.87c-3.035-2.62-6.277-6.49-9.902-11.86-1.371-2.01-2.609-4.25-3.812-6.86l-2.497-2.24c-5.898-5.88-8.89-13.08-9.679-23.33-1.274-16.78-2.821-38.95-3.582-61.52-.199-6.69-.051-13.53.109-20.14.059-2.55.117-5.1.16-7.62.172-10.88.289-21.76.407-32.62.16-14.12-.043-28.48-.235-42.35-.324-24.05-.656-48.92.82-73.34.7-11.34 2.157-23.07 4.465-35.85 1.684-9.24 5.246-18.7 10.047-26.63 7.707-12.76 21.059-23.64 37.602-30.62 7.07-2.99 14.797-6.03 23.304-8.06 6.649-1.6 13.379-2.63 19.688-3.55 9.387-1.34 18.879-2.32 27.043-3.15 8.426-.84 17.23-1.49 26.914-2 8.807-.46 16.587-.69 23.787-.69 12.54 0 23.73.69 34.21 2.07l4.49.57c5.6.7 11.38 1.43 16.97 2.72 4.87 1.14 9.7 2.51 14.77 4.19 10.01 3.36 20.44 7.8 31.03 13.22 3.68 1.9 7.2 4.23 10.6 6.5l.48.31c5.2 3.46 11.19 7.69 16.25 12.68 8.17 8.02 14.86 17.17 19.87 27.19 6.28 12.47 10.89 25.89 13.72 39.89 2.63 13 4.11 26.04 5.2 37.06 1.69 16.97 2.02 34.39 2.34 51.26l.1 5.37c.43 20.77.63 40.03.63 58.9 0 21.49-2.24 42.59-6.63 62.71-2.4 10.89-6.22 21.79-11.38 32.34-4.16 8.55-10.28 16.48-17.21 22.32-7.19 6.03-13.66 10.38-19.75 13.28-10.32 4.87-20.86 8.46-31.64 12.01l-4.73 1.58c-6.16 2.06-12.53 4.17-18.88 5.94-22.15 6.18-41.66 9.89-59.64 11.36-4.89.39-10.03.6-15.27.6" fill="#faba62"/><path d="M6645.12 1543.77l-1.36-.18zm-9.33-1.31l-1.43-.2zm-48.82 67.71c3.29 1.98 6.69 3.78 10.15 5.42 5.67 2.7 13.93 6.92 20.54 8.12 5.24 1.02 10.51 1.88 15.87 2.47 8.76.91 17.66.49 26.29-1.38 10.94-2.37 21.92-6.32 31.89-11.37 10.96-5.52 21.31-12.13 31.24-19.31 12.68-9.15 25.41-18.25 36.09-29.75 8.24-8.83 13.48-19.04 13.61-31.38.09-11.4-4.34-22.64-12.21-30.9-17.09-17.85-44.3-17.23-62.29-1.35-10.52 9.27-20.3 19.14-31.26 27.89-6.96 4.77-14.04 9.2-21.62 12.93l-4.82 1.24-.5-.02-2.22-.63c-4.19-2.05-8.19-4.31-12.01-7.12l-3.22-2.4c-3.67-3.26-7.03-6.68-10.18-10.42-2.56-3.9-4.93-7.87-6.97-12.09-1.71-5.42-3.01-10.86-3.99-16.45-.35-7.42-.16-14.68.52-22.06 4.15-21.95 11.34-43.09 18.33-64.3 7.06-21.36-7.92-44.98-28.74-50.72-10.31-2.88-21.5-1.56-30.86 3.57-10.05 5.57-16.33 14.43-19.86 25.16-4.4 13.34-9.01 26.65-12.71 40.19-4.04 14.66-6.76 29.03-8.66 44.17-4.31 34.08 4.3 69.79 23.45 98.2 11.31 16.81 26.58 31.79 44.14 42.29M7079.99 1767.94l-.8.32zm-1.94-.7l-1.58 1.19-.03-.01zm-4.76 2.56l-1.71.21zm-45.84 64.65l3.05 1.72c9.89 5.13 20.04 9.83 30.92 12.38 12.68 2.92 26.13 2.62 38.64-.8 18.05-4.91 32.05-17.67 43.61-31.74 7.8-9.51 15.67-19.13 20.74-30.45 3.61-6.08 5.46-12.69 5.54-19.74-.39-3.32-.78-6.64-1.18-9.99-1.71-6.66-4.92-12.53-9.68-17.53-7.27-7.57-17.5-12-27.99-12.1-6.85-.02-13.26 1.58-19.29 4.85-6.55 4.42-12.86 8.62-17.87 14.75-2.22 2.74-4.42 5.46-6.64 8.21-3.91 4.85-7.89 9.57-12.18 14l-2.09-.63c-3.5-1.85-6.89-3.82-10.21-6.04-5.17-4.61-10-9.49-14.47-14.84l-2.58-4.53-.24-1.05.26-7.83c4.46-23.6 12.71-46.44 20.15-69.19 6.72-20.61-7.62-43.38-27.8-48.98-9.91-2.72-20.72-1.47-29.76 3.51-9.7 5.32-15.8 13.92-19.18 24.24-6.41 19.62-13.78 39.38-17.92 59.65-3.78 18.32-7.2 36.95-3.08 55.56 4.37 19.85 15.76 35.77 28.81 50.83 3.05 3.49 6.39 6.69 9.83 9.71 6.42 5.6 13.17 11.58 20.61 16.03M6668.45 1927.17c-6.2-4.5-12.5-9.23-18.21-14.3-7.4-6.56-13-14.26-18.6-22.5-3.87-5.66-6-13.14-8.26-19.43-1.15-3.19-1.95-6.45-2.75-9.74-3.17-13.45-1.75-27.53.62-40.93 4.57-25.76 16.88-49.36 28.81-72.38 10.68-20.65 39.42-26.08 58.45-14.71 9.66 5.77 16.71 15.27 19.46 26.18 2.88 11.43.57 21.99-4.76 32.26-3.99 7.73-7.89 15.44-11.66 23.28-2.95 7.66-5.45 15.38-7.18 23.45l-.24 4.82 1.05 3.88.99 1.87c4.15 4.65 8.69 8.91 13.42 13.01 2.88 1.89 5.76 3.69 8.78 5.37l2.22.58c3.4.27 6.75.36 10.19.24 8.1-1.37 15.99-3.19 23.87-5.66 4.73-2.09 9.31-4.37 13.77-7.03 6.81-4.09 13.46-8.45 20.43-12.32 14.12-7.73 32.19-4.99 43.35 6.68 6.42 6.72 10.05 15.87 9.96 25.17-.12 10.39-4.56 18.07-11.11 25.63-7.94 9.25-18.71 16.46-29.1 22.68-10.55 6.29-21.86 11.43-33.55 15.2-12.61 4.1-25.1 6.82-38.3 8.28-22.15 2.41-44.64-2.9-63.66-14.27-2.74-1.64-5.4-3.4-7.99-5.31M7029.39 2179.25c-12.38-13.74-21.27-29.48-27.6-46.8-4.51-12.29-7.09-24.97-9.63-37.82-2.06-10.46-1.18-20.53 4.39-29.87a39.553 39.553 0 0 1 24.25-18.04c20.06-5.06 43.76 7.54 47.94 28.65 2.17 11.11 4.41 22.13 7.94 32.88a110.4 110.4 0 0 0 7.23 13.19c3.65 4.43 7.42 8.66 11.62 12.56 2.48 1.74 5.05 3.36 7.69 4.83l8.64 2.27c3.97.28 7.9.35 11.86.15 7.35-1.26 14.53-2.98 21.61-5.33 3.52-1.54 6.99-3.14 10.35-5.02 4.16-2.32 8.11-4.96 12-7.69 6.28-4.91 12.23-10.13 18.2-15.47 16.15-14.41 40.86-14.8 56.22 1.26 14.77 15.42 14.71 41.58-1.25 56.22-14.68 13.51-30.44 26.48-47.95 36.18-9.25 5.11-19.61 8.7-29.56 12.2-8.27 2.89-17.24 4.17-25.92 5.26-9.37 1.12-17.91 1.84-27.26 1.11-10.41-.85-21.01-2.6-30.9-6.14-6.83-2.45-13.31-5.59-19.48-9.27-11.32-6.76-21.49-15.43-30.39-25.31M6272.5 1700.17c-5.98-5.96-11.04-13.39-15.61-20.39-2.47-3.8-4.24-7.97-5.95-12.13-3.36-8.48-6.46-16.77-8.89-25.52-4.45-16.21-6.76-33.02-4.8-49.71.1-6.55 1.8-12.65 5.14-18.31 4.92-8.24 13.04-14.24 22.35-16.57 9.29-2.38 19.28-.9 27.51 4.04 7.57 4.51 15.23 13.27 16.6 22.32 2.85 18.52 5.41 36.86 11.13 54.65 1.4 2.79 2.89 5.43 4.54 8.06 2.24 2.53 4.49 4.95 6.9 7.26l5.2 3.13 7.35 1.96c11.72.9 23.28.15 34.98-.89 7.45-1.12 14.92-2.27 22.37-3.56 9.79-1.71 18.81-1.2 27.57 4.05 8.26 4.94 14.29 13.04 16.63 22.37 2.36 9.32.89 19.33-4.07 27.6-4.6 7.74-13.22 15.04-22.37 16.63-17.15 2.97-34.27 5.19-51.59 6.85-14.77 1.42-29.23-.03-43.81-2.42-7.78-1.29-16.46-4.92-23.3-8.47l-5.09-2.82c-8.38-5.02-15.83-11.22-22.79-18.13M6369.32 1924.07l-.17-1.85.22 1.96zm1.32 2.29l.18-.94-.15.98zm-23.38 78.55c18.87 11.29 41.11 17.69 63.18 15.53 8.88-.82 17.88-1.82 26.5-4.25 8.76-2.4 17.08-5.55 25.46-9.11 7.98-3.37 14.13-12.67 16.34-20.68 2.36-8.51 1.27-17.73-2.96-25.43-7.26-13.23-23.33-20.47-38.04-16.55-8.93 2.4-17.67 4.99-26.7 6.6-3.64.17-7.26.16-10.88-.1l-5.18-1.48a94.412 94.412 0 0 1-9.08-5.49c-4.43-3.98-8.45-8.29-12.26-12.91l-1.94-3.02c4.49-9 9.85-17.51 15.14-26.07 11.16-18.07 4.58-42.64-13.42-53.4-18.41-11-42.23-4.6-53.41 13.46-3.8 6.18-7.72 12.38-11.25 18.75-5.91 10.63-11.7 21.95-14.23 33.91-2.23 10.44-1.78 19.19.08 29.69 1.66 4.38 3.41 8.74 5.19 13.07 1.47 2.75 3.16 5.39 5.11 7.85 9.56 13.37 20.48 24.55 33.95 34.14 2.69 1.92 5.51 3.77 8.4 5.49M6666.64 2207.28c-6.01-5.28-11.47-10.9-16.46-17.17-9.55-11.98-15.83-25.09-19.8-39.9-2.5-9.39-2.56-19.63-2.85-29.31-.24-9.12.41-18.32.97-27.42.71-12.37 1.53-24.79 2.29-37.2.59-9.38 3.68-17.82 10.6-24.45 6.4-6.13 15.17-9.59 24.06-9.5 17.9.17 35.13 15.97 33.94 34.63-.89 14.09-1.81 28.19-2.62 42.29-.6 10.3-.95 20.77-.26 31.09.62 3.13 1.38 6.13 2.28 9.14 1.31 2.6 2.67 5.1 4.19 7.59 4.18 5.02 8.68 9.6 13.54 13.96 2.67 1.78 5.42 3.34 8.28 4.83l6.01 1.7 8.63.25c2.65-.62 5.22-1.31 7.79-2.13 5.44-2.61 10.62-5.53 15.64-8.89 6.88-5.31 14.12-10.92 21.97-14.18 5.41-2.94 11.2-4.39 17.32-4.35 9.43.07 18.59 4.03 25.13 10.89 12.69 13.24 13.49 37.28-1.12 49.74-8.78 7.5-19.1 13.56-28.75 19.87-8.89 5.82-19.47 10.17-29.58 13.13-10.97 3.23-22.5 4.83-33.92 4.41-6.2-.2-12.35-1.55-18.47-2.46-9.63-1.53-18.98-6.28-27.58-10.82l-2.93-1.63c-6.58-3.95-12.56-9.03-18.3-14.11" fill="#42405f"/><path d="M1536.9 2510.35c-2.3-.42-4.55-.95-6.8-1.67l-2.24-1.25-.7-.73-.3-.52-.16-.51c.77-12.72 1.45-25.43 1.84-38.16.8-26.89 1.42-53.78 1.98-80.68.51-25.62.49-51.26 3.45-76.74.91-5.89 2.12-11.63 4.03-17.28l.39-.7 2-1.16c4.69-1.6 9.5-2.71 14.4-3.54 12.24-1.45 24.48-2.33 36.79-3.07 12.57-.77 25.17-1.3 37.72-.33 4.37.76 8.61 1.79 12.79 3.26 1.07.57 2.11 1.16 3.12 1.81 1.31 1.24 2.51 2.54 3.67 3.91 1.52 2.28 2.85 4.61 4.06 7.05.96 2.81 1.74 5.63 2.32 8.58 2.67 24.71 2.46 49.78 2.46 74.61 0 26.24.35 52.54-2.36 78.67-1.39 9.15-3.16 18.25-6.31 26.93l-.94 1.67-1.61 1.66c-3.11 2.06-6.37 3.78-9.8 5.37-2.35.97-4.74 1.89-7.17 2.59-3.79 1.09-7.58 2.04-11.4 3-7.22 1.82-14.45 3.2-21.79 4.3-9.66 1.18-19.32 2.14-29.04 2.74-5.66.36-11.31.66-16.99.85-4.46.15-8.96-.23-13.41-.66zm35.69 37.55c5.91 0 11.81-.1 17.7-.35 14.38-.64 28.5-2.55 42.58-5.55 6-1.28 11.67-2.95 17.39-5.18 7.44-2.9 14.86-5.94 21.29-10.76 5.44-4.07 10.58-8.8 14.01-14.79.9-1.57 1.64-3.16 2.38-4.81 1.99-4.32 3.66-8.73 5.09-13.24 1.85-5.88 3.02-11.97 4.08-18.02 4.86-27.93 4.18-56.45 3.64-84.68-.26-13.35-.62-26.71-1.2-40.06-.64-14.8-1.32-29.72-3.63-44.39-.83-5.31-1.56-10.59-3.62-15.63-1.72-4.21-3.32-8.52-5.55-12.49-2.21-3.92-4.76-7.39-7.57-10.91-2.52-3.17-5.12-6.08-8.31-8.63-3.09-2.46-6.09-4.68-9.52-6.56-2.48-1.35-5.32-2.42-7.87-3.49-2.97-1.24-5.95-2.27-9.04-3.2-2.99-.89-6.18-1.48-9.29-1.93-4.62-.65-9.25-1.43-13.91-1.74-13.41-.91-26.85-1.1-40.28-.69-6.99.23-13.95.53-20.94.92-3.27.17-6.54.56-9.8.88-4.6.41-9.3 1.03-13.84 1.93-3.88.78-7.88 1.61-11.54 3.14-5.05 2.1-9.86 4.02-14.31 7.19-5.13 3.65-8.48 7.07-12.1 12.24-3.22 4.62-5.17 9.9-7.27 15.09-3.01 7.44-3.7 15.9-4.62 23.76-1.43 12.29-1.83 24.86-1.61 37.22.49 27.55 1.07 55.09 1.47 82.64.19 13.18.32 26.36.32 39.54 0 1.88-.01 3.75-.03 5.64-.45 5.46-.87 10.93-.69 16.42.04 1.2.09 2.41.15 3.61-.21 5.04-.48 10.08-.77 15.12-.36 5.9 2.39 11.3 6.64 15.09.82 1.68 1.77 3.29 2.89 4.77 4.03 5.37 8.72 10.09 14.88 13.03 3.72 1.76 7.51 3.44 11.47 4.6 2.87.84 5.79 1.36 8.74 1.87 7.58 1.27 15.42 1.98 23.11 2.15 6.47.13 12.98.25 19.48.25" fill="#faba62"/><path d="M1793.25 1824.2c-5.05-.77-10.11-1.5-15.17-2.2 1.11.15 2.23.3 3.34.46-5.92-1.04-11.71-2.45-17.51-4.04-4-1.09-7.98-2.14-11.88-3.49-1.24-.62-2.45-1.26-3.63-1.98l-1.02-1.1c-1.2-1.73-2.33-3.51-3.34-5.37-.55-1.8-.97-3.61-1.33-5.45-.85-8.47-.84-17-.89-25.5-.05-7.12.07-14.24-.23-21.32l.06-6.19c.58-54.66 1.73-109.33 2.91-163.98.6-28.24 1.16-56.47 1.84-84.71.6-24.58 1.27-49.12 4.18-73.56.8-5.53 1.69-11.07 3.4-16.37l.54-.93 2.55-2.46c3.64-2.42 7.43-4.52 11.39-6.45 10.26-3.98 20.83-7.21 31.51-9.98 6-1.53 12.03-2.98 18.14-4.11 7.04-1.3 14.06-2.37 21.14-3.38 26.54-3.31 53.26-3.62 79.97-3.92 12.94-.17 25.83.01 38.77.52 11.85.47 23.68 1.54 35.47 2.85 11.59 1.96 23.01 5.51 34.25 8.93 7.39 2.26 14.62 4.94 21.79 7.83 1.07.57 2.18 1.08 3.34 1.49 5.08 2.37 10.02 4.99 14.67 8.14a65.35 65.35 0 0 1 3.85 3.78c1.13 1.7 2.17 3.45 3.13 5.27 1.5 4.4 2.5 8.92 3.27 13.54 1.41 12.41 1.81 25 1.95 37.45.18 14.64.2 29.26.12 43.9-.07 13.68-.65 27.3-1.37 40.95-1.36 25.03-2.59 50.1-5.65 74.99-2.46 17.33-5.19 34.63-7.54 51.98-2.56 18.63-5.62 37.14-9.54 55.56-2 9.47-4.06 18.96-6.34 28.37-1.95 8-3.84 16.05-6.63 23.82-.92 1.84-1.92 3.64-3.02 5.38a60.671 60.671 0 0 1-4.46 4.47 50.806 50.806 0 0 1-4.91 2.83c-12.09 4.58-24.66 7.99-37.2 11.17-6.78 1.72-13.56 3.52-20.29 5.39-5.55 1.56-11.06 2.69-16.71 3.57-5.17.58-10.36 1.03-15.56 1.38-5.76.39-11.54.43-17.29.8-6.17.4-12.32 1.06-18.5 1.46-13.66.93-27.34 1.65-41.02 2.25-13.15.6-26.28 1.34-39.44.82-10.43-.43-20.77-1.53-31.11-2.86zm74.26 46.81c12.92 0 25.87-.25 38.78-.97 6.47-.35 12.94-.87 19.42-.91 6.01-.03 12.03-.04 18.03-.29 14.33-.58 28.55-1.89 42.53-5.14 12.4-2.87 24.91-5.24 37.3-8.2 15.15-3.62 31.43-7.08 44.06-16.7 4.41-3.35 8.57-6.51 12.2-10.64 3.74-4.29 7.34-8.91 9.8-14.06 3.46-7.24 6.52-14.75 8.68-22.49 3.36-12.1 6.38-24.29 9.51-36.48 6.45-25.04 10.53-50.52 14.61-76.03 2.08-13.12 4.25-26.23 6.1-39.39 2.2-15.77 3.53-31.53 4.42-47.43 1.48-26.16 2.7-52.38 1.82-78.59-.49-14.61-1.04-29.2-1.86-43.8-.88-15.51-2.64-30.91-5.09-46.25-1.43-8.92-4.18-17.33-7.86-25.56-2.85-6.37-6.85-11.8-11.27-17.18-4.96-6.03-11.36-11.18-18.01-15.24-5.88-3.6-12-6.45-18.27-9.15l-.7-.32c-1.1-.46-2.19-.93-3.29-1.39l-1.37-.58-.03-.01c-6.14-2.57-12.33-5.07-18.64-7.21-6.19-2.1-12.46-4-18.76-5.78-3.93-1.12-7.86-2.27-11.82-3.31-8.17-2.14-16.38-3.35-24.76-4.35-6.28-.77-12.62-1.39-18.92-1.93-27.58-2.35-55.23-1.86-82.87-1.39-28.85.49-57.65 3.34-86.04 8.44-12.77 2.29-25.4 5.58-37.78 9.45-8.04 2.49-15.8 5.37-23.53 8.71-5.78 2.51-11.33 5.48-16.33 9.32-6.35 4.9-12.15 9.77-16.24 16.91-2.81 4.89-5.17 10.45-6.29 16.03-1.6 8.03-2.54 16.29-3.06 24.49-.82 12.69-1.08 25.38-.65 38.08 1.85 55.24 2.75 110.48 3.88 165.73.69 34.19 1.39 68.37 1.67 102.57-.9 1-1.72 2.09-2.41 3.28-1.75 3.01-2.62 6.26-2.64 9.75-.8 12.94-.71 25.86-.06 38.82.74 14.84 1.85 30.62 9.05 43.95 4.71 8.71 11 16.94 19.77 21.8 6.21 3.45 13.05 5.9 19.87 7.89 5.96 1.74 11.84 3.77 17.9 5.13 5.82 1.32 11.77 2.66 17.68 3.54 5.9.86 11.78 1.96 17.68 2.91 7.68 1.23 15.42 2.04 23.17 2.73 13.52 1.22 27.06 1.24 40.62 1.24" fill="#77d0b4"/><path d="M1932.67 2391.73c-1.95-.3-3.88-.63-5.79-1.04-4.47-.98-8.75-2.35-13-3.95-6.56-3-13.04-6.33-18.99-10.35l-1.97-1.34c-1.39-1.3-2.7-2.64-3.95-4.07-1.81-2.65-3.43-5.4-4.87-8.27-2.83-8.32-4.48-17.07-6.04-25.69-3-24.23-4.87-48.59-7.83-72.81-1.65-13.52-2.8-27.03-3.54-40.62-.57-10.59-1.02-21.14-.15-31.7.61-2.95 1.37-5.81 2.31-8.66.99-1.92 2.05-3.78 3.22-5.59l1.43-1.44c2.84-1.83 5.79-3.44 8.86-4.93 7.99-3.07 16.06-5.63 24.46-7.59 8.92-2.08 18.09-3.31 27.14-4.7 11.03-1.37 22.07-2.53 33.08-3.95 13.65-1.75 27.28-2.83 41.02-3.59 27.14-1.5 54.38-1.78 81.55-2.19 24.67-.37 49.56.61 74.11 3.51 4.61.75 9.09 1.75 13.52 3.22 1.42.75 2.79 1.56 4.13 2.42l1.98 2.01c2.8 4.19 5.04 8.6 7.12 13.15 4.15 12.23 6.67 25.01 8.78 37.75.96 8.18 1.66 16.37 2.28 24.6.69 8.98 1.8 17.9 2.51 26.89.72 9.33.75 18.59.62 27.94-.12 9.1-.41 18.14-1.44 27.16-1.23 8.75-2.58 17.57-4.81 26.11-2.27 8.68-4.43 17.57-7.58 26-1.09 2.35-2.3 4.62-3.69 6.8l-.91.89a92.19 92.19 0 0 1-8.59 4.89c-6.02 2.19-12.07 3.87-18.37 4.99-9.69.9-19.43 1.06-29.13 1.81-11.2.88-22.43 1.31-33.65 2.15-13.09.97-26.16 2.06-39.27 2.61-12.59.52-25.14 1.2-37.71 1.99-2.09-.07-4.18-.13-6.26-.2-26.88-.83-53.85-1.33-80.58-4.21zm36.28 54.62c3.23 0 6.47-.05 9.68-.1 13.38-.17 26.73-.83 40.08-1.67 13.58-.89 27.15-1.66 40.75-2.3 12.89-.6 25.71-2.09 38.59-2.87 13.24-.82 26.45-2.11 39.68-3.07 14.51-1.07 29.33-2.12 43.2-6.77 7.33-2.45 14.56-5.67 21.34-9.39 7.59-4.15 15.25-9.25 20.68-16.08 4.69-5.9 8.98-11.95 12-18.9 3.18-7.33 5.91-14.66 8.39-22.24 3.94-12.04 6.82-24.56 8.69-37.08 2.25-15.16 3.17-30.25 3.53-45.56.3-12.54-1.05-25.03-2.29-37.49-1.48-14.96-2.58-30.01-5.31-44.82-2.41-12.99-5.4-26.07-10.15-38.43-2.77-7.19-6.21-14.41-10.33-20.94-1.84-2.89-4.03-5.57-6.13-8.25-1.38-1.76-2.73-3.58-4.37-5.12-4.2-3.97-8.88-7.46-13.86-10.37-14.17-8.24-30.57-10.33-46.56-12.06-13.3-1.45-26.59-2.59-39.95-3.35-13.34-.78-26.69-.85-40.04-.93-13.22-.08-26.43-.25-39.64-.18-14.1.11-28.18.32-42.27.76-12.74.38-25.41 1.85-38.12 2.76-13.28.93-26.5 2.14-39.7 3.75-9.11 1.12-18.26 2.2-27.26 4-6.68 1.33-13.26 3.07-19.78 5.03-16.83 5.07-33.87 12.04-45.44 25.84-3.27 3.86-6.76 8.32-9.38 12.77-2.75 4.66-4.97 9.7-6.85 14.74-3.24 8.55-4.33 17.04-5.5 26.13-1.59 12.4-.54 25.27.35 37.69 1 14.07 2.85 28 4.75 41.96 1.25 9.67 2.53 19.34 3.83 29 1.98 16.12 3.79 32.25 6.4 48.27 1.05 6.42 2.83 12.7 4.66 18.94 1.75 5.98 3.99 11.67 6.52 17.4 2.61 5.89 6.49 10.85 10.46 15.9 5.08 6.45 10.9 11.81 17.61 16.57l2.4 1.62 1.87 1.17c5.56 3.35 11.45 5.93 17.49 8.44 14.89 6.21 30.67 10.48 46.94 10.07h.48c2.93 1.61 6.09 2.42 9.45 2.42.97.12 1.94.24 2.91.34 6.75.92 13.49 1.73 20.3 2.15 3.29.19 6.59.25 9.9.25M1493.76 2026.81c-.22 1.46-.47 2.93-.78 4.38-.74 3.38-1.77 6.63-2.99 9.84-2.27 4.97-4.79 9.87-7.84 14.37l-1.02 1.5c-.97 1.05-2 2.04-3.06 2.99-2.02 1.37-4.1 2.59-6.27 3.69-6.3 2.14-12.93 3.39-19.47 4.57-18.33 2.26-36.78 3.69-55.12 5.93-10.24 1.25-20.46 2.11-30.75 2.68-8.03.43-16.02.76-23.99.11-2.24-.46-4.41-1.04-6.58-1.75-1.45-.74-2.85-1.55-4.22-2.43l-1.09-1.09c-1.39-2.14-2.61-4.39-3.73-6.7-2.33-6.06-4.27-12.17-5.76-18.53-1.57-6.75-2.5-13.68-3.55-20.54-1.04-8.35-1.92-16.71-2.99-25.06-1.33-10.33-2.15-20.65-2.72-31.05-1.13-20.55-1.36-41.17-1.67-61.75-.27-18.68.47-37.53 2.67-56.1.57-3.5 1.32-6.9 2.43-10.25.58-1.07 1.18-2.1 1.83-3.12l1.53-1.5c3.18-2.11 6.51-3.81 9.96-5.4 9.26-3.14 18.93-5.04 28.58-6.64 6.19-.72 12.4-1.26 18.63-1.72 6.8-.52 13.55-1.37 20.35-1.9 7.07-.56 14.08-.57 21.16-.49 6.9.1 13.73.32 20.58 1.11 6.62.92 13.3 1.95 19.76 3.64 6.57 1.72 13.3 3.35 19.68 5.73 1.77.84 3.49 1.74 5.15 2.79l.66.71c1.37 2.1 2.59 4.26 3.71 6.49 1.66 4.56 2.94 9.14 3.79 13.91.68 7.34.79 14.71 1.36 22.05.67 8.49.99 17 1.63 25.48.74 9.91 1.56 19.81 1.98 29.73.39 9.54.91 19.05 1.49 28.57a251.4 251.4 0 0 1-.14 4.73c-.63 20.35-1 40.77-3.19 61.02zm41.36-27.47c0-2.45-.04-4.9-.08-7.34-.13-10.12-.61-20.24-1.27-30.34-.66-10.29-1.24-20.56-1.72-30.86-.47-9.76-1.6-19.47-2.19-29.21-.61-10.04-1.59-20.03-2.33-30.05-.8-10.98-1.58-22.2-5.11-32.71-1.86-5.55-4.29-11.02-7.11-16.15-3.15-5.76-7.01-11.55-12.18-15.66-4.46-3.55-9.04-6.8-14.31-9.09-5.55-2.41-11.1-4.48-16.84-6.35-9.11-2.98-18.59-5.16-28.07-6.58-11.48-1.71-22.9-2.41-34.5-2.67-9.49-.24-18.95.8-28.38 1.73-11.33 1.12-22.72 1.95-33.94 4.02-9.84 1.83-19.74 4.08-29.1 7.69-5.44 2.08-10.91 4.7-15.85 7.82-2.19 1.38-4.22 3.04-6.25 4.64-1.33 1.04-2.72 2.07-3.88 3.31a58.1 58.1 0 0 0-7.85 10.49c-6.24 10.73-7.81 23.15-9.13 35.26-1.09 10.07-1.96 20.13-2.53 30.23-.59 10.12-.65 20.22-.71 30.33-.06 10-.19 20.01-.13 30.01.07 10.68.24 21.33.58 32.01.29 9.64 1.39 19.23 2.08 28.86.7 10.05 1.61 20.06 2.85 30.06.84 6.9 1.66 13.82 3.02 20.64 1 5.06 2.32 10.04 3.81 14.97 3.84 12.74 9.11 25.65 19.56 34.41 2.93 2.47 6.3 5.11 9.67 7.11 3.52 2.07 7.35 3.75 11.16 5.19 6.47 2.44 12.9 3.27 19.78 4.16 9.38 1.19 19.14.4 28.54-.28 10.65-.75 21.21-2.15 31.77-3.59 7.33-.95 14.65-1.91 21.96-2.9 12.2-1.49 24.42-2.86 36.55-4.85 4.86-.8 9.61-2.13 14.33-3.52 4.54-1.33 8.85-3.02 13.18-4.93 4.46-1.98 8.22-4.93 12.04-7.93 4.88-3.85 8.93-8.25 12.55-13.33l1.23-1.82.88-1.41c2.54-4.21 4.49-8.68 6.39-13.25 4.7-11.27 7.93-23.22 7.63-35.54l-.01-.36c1.22-2.22 1.84-4.61 1.84-7.17l.26-2.18c.68-5.13 1.3-10.22 1.62-15.39.14-2.48.19-4.99.19-7.48" fill="#42405f"/><path d="M5244.06 920.559c-4.34-7.727-8.69-15.477-12.63-23.411-5.03-10.109-9.85-20.707-12.47-31.687-2.07-8.551-2.82-17.391-.83-26.02 3.04-13.07 13.63-23.281 26.43-26.8 13.9-3.832 27.43 1.039 37.93 10.199 4.99 4.351 8.74 9.57 12.7 14.89 5.93 8.032 9.89 17.848 13.71 27.129.98 2.262 1.99 4.52 3.03 6.762.88 1.93 1.78 3.84 2.7 5.77 1.79 3.789 3.58 7.57 4.88 11.578 2.35 7.332.8 13.531-.23 20.863-1.24 2.906-2.46 5.809-3.7 8.699-3.24 5.5-7.6 9.848-13.07 13.078-4.43 2.61-9.48 4.219-14.63 4.782a36.735 36.735 0 0 1-12.19 2.07c-12.63 0-25.15-6.359-31.63-17.902M5445.89 1024.41c-2.7-4.72-4.9-9.79-7.11-14.82l-2.57-1.35c-2.42-1.87-4.85-3.74-7.25-5.61-4.46-4.458-7.5-9.751-9.23-15.81-3.05-7.601-6.11-15.172-9.15-22.761-3.29-8.168-6.92-16.598-8.48-25.278-1.67-6.25-1.67-12.519 0-18.761 2.42-8.821 8.33-16.461 16.23-21.071 5.5-3.187 11.42-4.82 17.79-4.84 8.76 0 19.07 3.539 24.95 10.352 3.29 3.789 6.47 7.73 9.07 12.027 1.17 1.91 2.05 4.071 3.05 6.102l.48.949a36.477 36.477 0 0 1 17.45 15.012c5.82 9.691 8.49 21.558 11.55 32.359 3.27 11.621 7.48 24.012 7.41 36.11-.11 15.33-10.45 29.13-25.29 33.22a33.59 33.59 0 0 1-8.94 1.19c-12.05 0-23.84-6.32-29.96-17.02M5267.71 707.898c-3.69-14.027-7.41-28.058-11.03-42.128l-.22-.79-.91-1.539c-1.76-2.89-3.34-5.89-4.83-8.91-2.32-4.64-4.36-9.359-6.27-14.179-3.82-9.68-4.79-20.063-1.9-30.204a35.97 35.97 0 0 1 9.82-16.226c4.97-6.981 12.3-12.184 20.59-14.453 19.4-5.34 41.05 6.39 46.1 26.172 7.89 27.199 14.55 54.75 21.7 82.129 5.23 19.98-6.38 41.089-26.45 46.601a36.335 36.335 0 0 1-9.76 1.309c-16.6 0-32.47-11.059-36.84-27.782M5454.95 747.559c-2.05-1.2-3.9-2.618-5.55-4.258-1.88-1.629-3.46-3.449-5.17-6.379l-2.08-3.832c-1.02-2-2.04-4.008-3.01-6.031-2.07-4.27-3.95-8.61-5.84-12.95-3.14-7.129-6.14-14.371-9.08-21.609-3.56-8.789-5.91-18.551-4.26-27.82l-.9-2.379c-2.15-5.699-.57-13.231 2.41-18.332 3.11-5.328 8.26-9.289 14.22-10.938 6.14-1.691 12.84-.812 18.32 2.399l.66.398c3.13-.039 6.26.352 9.4 1.164a34.18 34.18 0 0 1 22.11 4.297c8.07 4.723 12.61 11.742 15.64 20.352 2.09 5.769 4.19 11.48 5.99 17.308.88 2.879 1.54 5.891 2.16 8.84 1.78 8.031 3.04 17.371.56 25.481-2.23 7.371-5.33 14.57-11.53 19.492l-4.15 3.187-.53.973c-3.15 5.367-5.83 7.019-10.74 10.637-4.41 2.57-9.19 3.863-14.3 3.882-5.12-.019-9.9-1.312-14.33-3.882M5726.36 616.391l-.41-.969.05.129zm-15.96 124.3c3.52 0 7.03-.472 10.46-1.421 9.91-2.731 18.5-9.348 23.68-18.2 4.9-8.371 7.71-21.129 4-30.539-.98-2.48-1.95-4.953-2.94-7.429.42-4.602-.01-9.211-1.25-13.813-2.18-10.539-6.32-20.777-9.83-30.93-2.67-7.73-5.46-15.289-8.52-22.808l-.13-.321.08.192-.38-.93c-1.8-6.332-5.01-11.871-9.64-16.523-2.53-1.949-5.06-3.899-7.6-5.867-8.65-5.082-19.21-6.442-28.88-3.793-14.21 3.941-23.98 15.531-26.74 29.39-6.09 9.481-8.39 21.391-4.99 32.403 3.38 10.98 8 21.539 12.54 32.097 4.04 9.77 7.98 19.571 11.87 29.403 1.88 6.699 5.27 12.527 10.17 17.5 2.68 2.058 5.38 4.117 8.04 6.187a39.962 39.962 0 0 0 20.06 5.402M5454.34 527.68c-6.3-3.68-13.37-11.078-15-18.649l-.87-2.062c-3.91-4.528-6.67-9.739-8.32-15.61-.47-1.828-.88-3.679-1.28-5.531-1.16-3.906-2.81-7.828-4.05-11.558-.77-2.27-1.5-4.579-2.25-6.848-2.42-6.184-4.73-12.41-6.79-18.723-5.46-16.469 3.39-35.527 17.9-44.027 14.65-8.551 35.45-6.711 47.25 6.098 3.96 4.312 7.3 8.699 9.68 13.96 2.08 4.649 4.07 9.34 5.83 14.102l1.34 3.656a39.613 39.613 0 0 1 5.64 12.032c2.01 5.058 3.75 9.972 4.79 15.32.48 3.59.97 7.18 1.46 10.769-.04 7.301-1.89 14.129-5.53 20.43l-.02.043c-.63 13.879-10.96 26.277-24.27 29.938a33.41 33.41 0 0 1-8.77 1.179c-5.83 0-11.66-1.539-16.74-4.519M5805.79 958.922c-7.05-1.973-13.17-5.551-18.37-10.711-5.68-4.711-9.74-11.5-13.86-17.633-1.86-2.777-3.53-5.687-5.12-8.617-2.91-5.32-5.01-11.063-7-16.75-2.32-6.602-2.52-13.879-3.36-20.711-1.17-9.09 1.13-18.711 5.63-26.91 3.47-8.488 9.64-15.91 17.67-20.59 15.91-9.32 35.79-6.629 49 5.012 3.36 2.238 6.44 4.968 9.07 8.367 4.04 5.211 7.67 9.851 10.88 15.41 3.75 6.461 7.09 13.441 8.72 20.742 2.12 7.91 2.12 15.789 0 23.688l-.68 2.242c.92 5.769.61 11.527-.95 17.309-1.37 3.25-2.75 6.492-4.11 9.75-3.62 6.14-8.52 11.019-14.65 14.64l-.76.578c-6.49 3.75-13.52 5.633-21.03 5.672-3.69-.48-7.38-.98-11.08-1.488M5924.45 796.672c-6.87-4.012-13.27-11.434-14.94-19.41-3.6-10.492-6.37-21.434-9.21-32.16-2.74-10.454-5.56-20.903-7.8-31.461l-.79-4.071c-1.74-9.511-2.2-15.59-.22-25.101 1.58-7.629 6.34-15.438 11.85-20.949 4.93-4.899 10.75-8.321 17.45-10.192 4.01-.656 8.04-1.18 12.06-1.578 7.02-.691 16.03 2.629 21.65 6.59 4.03 2.082 7.29 4.91 9.82 8.5 2.63 2.98 5.03 6.129 7.14 9.469 1.74 2.703 3.13 5.621 4.53 8.48 4.86 9.961 8.6 20.371 14.15 30.012 7.45 12.949 7.57 29.16 0 42.097-3.85 6.532-9.1 11.543-15.29 14.993l-1.46 4.789c-1.58 5.64-4.44 10.519-8.55 14.66-2.24 1.73-4.49 3.469-6.71 5.199-5.19 3.012-10.78 4.52-16.79 4.543l-.46.027c-5.89 0-11.35-1.488-16.43-4.437M5773.09 513.211c-12.21-2.391-21.31-12.281-27.88-22.152-3.56-5.329-5.72-11.098-8.21-17.09-1-2.387-2.05-4.899-2.46-7.489-.79-4.898-1.54-9.769-2.06-14.718-.94-8.692 1.44-18.403 6.49-25.512 3.62-6.059 8.44-10.91 14.53-14.488 9.33-5.473 20.72-6.961 31.15-4.09 16.02 4.406 29.71 20.058 29.73 37.16.68 2.797 1.39 5.578 2.01 8.387.51 2.383 1.11 4.769 1.68 7.133l.79 3.468c1.09 4.86 1.47 8.282 1.4 11.711.2 3.918-.2 7.821-1.24 11.59-2.56 9.32-8.8 17.41-17.16 22.32-5.94 3.481-12.03 4.86-18.34 4.86-3.4 0-6.88-.391-10.43-1.09M5636.51 1024.13c-3.01-2.33-6.03-4.66-9.07-6.99-5.53-5.58-9.36-12.18-11.5-19.742-2.68-6.828-4.92-13.808-6.97-20.847-1.65-4.199-3.32-8.403-4.94-12.602-3.79-9.808-7.95-19.961-9.74-30.34-1.55-5.777-1.98-11.55-1.27-17.308-1.14-4.449-2.25-8.891-3.36-13.34-6-23.492 7.36-48.211 31.07-54.742 23.11-6.36 48.68 7.601 54.77 31.09 3.05 11.882 6.03 23.8 9.21 35.66l.06.133c2.46 5.476 4.99 10.918 7.84 16.207l-.24-.09c1.75 3.109 3.22 6.453 4.52 10.019 1.48 3.953 1.3 8.313 1.76 12.492 0 2-.11 3.93-.37 5.848l1.2 3.402c.74 2.129 1.52 4.219 2.34 6.321 3.44 8.969 2.4 18.98.45 28.097-4.18 19.292-24.12 32.852-43.18 32.852-8.05-.04-15.59-2.05-22.58-6.12" fill="#19557f"/><path d="M4064.34 3862.16h.03l1.33 1.19zm-127.96 11.42l.88.76zm65.78 142.56c9.19 6.02 20.5 8.71 31.54 6.52 8.77-1.74 16.76-5.59 24.65-9.59 5.26-2.71 10.57-5.31 15.79-8.08 11.45-6.1 22.65-12.67 34.56-17.82 5.89-2.55 12-4.53 17.88-7.14 5.01-2.21 10.06-4.28 15.19-6.2 2.95-.95 5.91-1.85 8.87-2.75 4.35-.92 8.2-2.84 11.55-5.77 1.48-1.7 2.96-3.42 4.43-5.11 3.65-5.59 4.94-12.48 3.59-19-2.22-10.65-12.18-20.13-23.45-20.06-4.85.03-9.98.21-14.68 1.62-4.25 1.28-8.43 2.72-12.6 4.2-5.14 1.81-10.17 3.93-15.17 6.13-9.82 4.34-19.85 8.02-29.07 13.59-8.98 5.42-17.82 11.01-26.78 16.45-4.31 2.62-8.64 5.22-12.85 7.96-3.23 2.08-6.43 4.14-9.8 5.89l-.02-.07c0-2.55.18-5.07.48-7.61.53-2.03 1.15-4.03 1.92-6 4.39-7.84 9.8-15.06 15.56-21.94 9.89-10.94 20.19-21.54 29.95-32.61 5.62-6.37 11.88-12.84 16.07-20.34 2.64-4.77 5.07-9.66 7.27-14.67.74-1.66 1.41-3.38 1.95-5.12 1.14-3.6 1.8-7.08 2.47-10.82.28-1.58.63-3.19.57-4.79-.1-3.18-.2-6.38-.94-9.49-.26-1.06-1.65-5.78-2.78-7.57-1.67-2.65-3.33-5.22-5.45-7.53-1.67-1.81-5.01-4.74-7.58-5.99-3.98-1.95-7.66-3.91-11.98-4.86-4-.89-8.51-1.8-12.7-1.64-7.63.27-15.72.76-23.11 3-5.63 1.7-11.28 3.46-16.87 5.26-8.04 2.58-15.76 5.91-23.25 9.77-10.82 5.59-21.37 11.73-31.91 17.82-9.96 5.75-19.84 11.93-30.4 16.51-.01-3.72.3-7.36.84-11.02 1.06-4.09 2.25-8.07 3.84-11.99 7.6-14.44 17.36-27.64 26.96-40.78 8.01-10.94 16.36-21.59 23.98-32.81 1.74-2.55 3.5-5.1 5.12-7.72 3.58-5.79 7.63-11.88 9.1-18.58 1.3-5.95 2.59-12.34 1.01-18.41-1.37-5.23-3.5-10.95-7.39-14.9-4.7-4.76-8.76-7.36-14.79-10.08-3.33-1.49-6.72-2.46-10.32-3.14-3.73-.7-7.67-1.59-11.52-1.66-3.25-.06-6.29.22-9.59.5-4.97.43-9.21 1.84-13.94 3.56-3.3 1.21-6.47 2.69-9.58 4.33-5.57 2.96-11.14 6.08-16.41 9.55-7.36 4.88-14.68 9.79-21.75 15.08-3.94 2.93-7.9 5.84-11.91 8.67-7.41 4.61-15 8.54-23.08 11.88l-4.07 1.01-.26-.09-1.28-.84-1.89-2.17-.47-.92-.34-1.99c-.07-4.58.35-9.08 1.03-13.59 1.88-8.36 4.52-16.36 7.88-24.25 2.61-5.07 5.42-10.07 8.65-14.78 3.53-5.15 7.34-10.01 11.29-14.81 3.21-3.41 6.43-6.67 9.88-9.86 3.28-3.01 6.69-5.87 10.05-8.83 9.33-8.2 18.69-16.36 28.07-24.53 8.21-7.13 8.93-20.05 1.78-28.16-7.24-8.23-19.95-8.9-28.17-1.78-12.6 10.91-25.44 21.62-37.95 32.67-12.27 10.83-23.17 23.32-32.32 36.9-3.55 5.29-6.75 10.77-9.48 16.51-3.43 7.18-6.73 14.38-8.8 22.1-2.04 7.62-3.96 15.59-4.35 23.46-.22 4.81-.02 9.52.52 14.31.64 5.61 1.93 11.47 4.93 16.35 4.67 7.57 10.27 14.87 18.08 19.49 3.42 2.02 7.1 4.03 10.91 5.17 3.69 1.11 7.77 2.07 11.65 2.01 6.24-.09 12.38-.79 18.32-2.68 4.53-1.44 9.06-2.97 13.47-4.75 12.49-5.01 23.79-12.22 34.91-19.67 6.35-4.23 12.8-8.35 19.46-12.07 6.13-3.4 12.31-6.89 18.78-9.66-2.35 3.43-4.78 6.78-7.17 10.1-5.24 7.26-10.8 14.29-16.23 21.42-10.22 13.43-20.39 27.08-28.55 41.88-3.86 6.97-7.43 14.34-9.14 22.16-1.04 4.76-2.26 9.62-2.55 14.49-.35 5.51-.28 10.75.26 16.29.34 3.51.99 6.89 2.04 10.27.75 2.33 1.69 5.54 2.9 7.9 1.28 2.51 2.78 4.66 4.42 7.01 3.78 5.41 9.42 9.73 15.63 11.98 4.28 1.55 9.19 2.73 13.79 2.41 5.1-.37 10.31-.68 15.26-2.14 7.34-2.13 14.58-4.73 21.52-7.95 22.54-10.41 43.98-23.4 67.19-32.32 3.94-1.35 7.87-2.69 11.84-3.84 2.41-.68 4.82-1.27 7.26-1.77a95.523 95.523 0 0 1-5.74 8.08c-9.62 10.36-19.73 20.22-29.47 30.45-6.19 6.5-12.4 13.21-17.63 20.51-5.97 8.31-11.94 17.01-15.59 26.64-5.52 14.6-6.54 32.64-.56 47.19 3.39 8.28 9.4 15.24 16.77 20.06" fill="#42405f"/><path d="M4948.05-613.449c30.53 46.097 210.67 572.738 301.34 603.52 90.69 30.757 496.33-402.469 567.32-387.192 71 15.262 426.21 729.762 477.18 747.672 48.03 12.89 492.28-453.492 573.02-440.461 80.8 13.039 367.31 701.332 445.37 722.289 78.08 20.961 417.95-406.199 501.44-493.367" fill="none" stroke="#040606" stroke-width="30" stroke-miterlimit="10"/><path d="M4908.74-467.051c30.54 46.11 210.67 572.75 301.35 603.52 90.68 30.761 496.33-402.457 567.32-387.18 71 15.25 426.2 729.762 477.18 747.66 48.04 12.903 492.28-453.48 573.03-440.449 80.78 13.031 367.29 701.332 445.35 722.281 78.08 20.957 417.96-406.199 501.44-493.371" fill="none" stroke="#040606" stroke-width="30" stroke-miterlimit="10"/><path d="M4869.44-320.668c30.53 46.129 210.68 572.746 301.35 603.52 90.67 30.789 496.32-402.43 567.32-387.172 70.99 15.261 426.2 729.769 477.17 747.66 48.04 12.898 492.28-453.461 573.03-440.43 80.78 13.031 367.31 701.309 445.36 722.27 78.09 20.968 417.95-406.2 501.45-493.379" fill="none" stroke="#040606" stroke-width="30" stroke-miterlimit="10"/></g></svg>